<?xml version="1.0" encoding="utf-8"?>
<!-- Generator: Adobe Illustrator 17.1.0, SVG Export Plug-In . SVG Version: 6.00 Build 0)  -->
<!DOCTYPE svg PUBLIC "-//W3C//DTD SVG 1.1//EN" "http://www.w3.org/Graphics/SVG/1.1/DTD/svg11.dtd">
<svg version="1.1" id="Layer_1" xmlns="http://www.w3.org/2000/svg" xmlns:xlink="http://www.w3.org/1999/xlink" x="0px" y="0px"
	 viewBox="-230 -2.5 560 105" enable-background="new -230 -2.5 560 105" xml:space="preserve">
<path id="logo_x5F_c" fill="#FFFFFF" d="M-139.4,86.4c-11.5,11.4-23.4,16.1-38.1,16.1c-28.7,0-52.5-17.7-52.5-52.7
	c0-35.2,23.8-52.3,52.5-52.3c14,0,24.9,4,35.7,14.7l-15.4,16.3c-5.8-5.2-12.9-7.9-19.8-7.9c-16.6,0-28.5,11.9-28.5,29.2
	c0,18.9,12.8,28.9,28,28.9c7.9,0,15.6-2.3,21.7-8.2L-139.4,86.4z"/>
<path id="logo_x5F_a" fill="#FFFFFF" d="M-50.3,1h22.9v98h-22.6l-1.2-14.3c-5.6,11.7-21,17.7-32,17.8c-29.2,0.2-52.2-18.2-52.2-52.8
	c0-34.1,23.8-52,52.7-51.6c13.3,0,25.9,6.1,31.5,16.1C-51.2,14.1-50.3,1-50.3,1z M-109.6,49.6c0,18.9,12.9,30.1,29.2,30.1
	c38.5,0,38.5-59.8,0-59.8C-96.5,19.7-109.6,30.7-109.6,49.6z"/>
<path id="logo_x5F_n" fill="#FFFFFF" d="M66.8,99V47.4c0-15.1-7.7-26.4-23.3-26.4c-15.1,0-24.8,12.6-24.8,27.6V99H-6V1h21.9
	l1.6,12.6c10-9.8,20.1-16.1,32.4-16.1c23.3,0,41.7,18.6,41.7,49.7V99H66.8L66.8,99z"/>
<path id="logo_x5F_v" fill="#FFFFFF" d="M209.9,1l-42,98h-26.4L99.2,1h26.6l13.7,31.9l15.2,41.6l15.1-41.3L183.3,1H209.9z"/>
<path id="logo_x5F_s" fill="#FFFFFF" d="M283.8,26.5c-7-6.6-15.1-8.8-24.5-8.8c-11.6,0-18,3.7-18,9.8c0,6.5,5.8,10,18.4,10.9
	c18.7,1.1,42.4,5.4,42.4,31.5c0,17.5-14.2,32.5-42.5,32.5c-15.6,0-31.3-2.6-45.7-17.7l12.1-17.5c7,7.9,23.1,13.7,34.1,13.8
	c9.3,0.2,17.9-4.5,17.9-11.9c0-6.8-5.6-9.6-19.6-10.5c-18.6-1.4-42.2-8.2-42.2-30.6c-0.2-22.6,24.8-30.6,42.9-30.6
	c15.4,0,27.1,3,38.5,12.9L283.8,26.5L283.8,26.5z"/>
<g>
	<path fill="#FFFFFF" d="M316.4,8.2h2.8c0.5,0,0.9,0,1.2,0.2c0.5,0.2,0.7,0.7,0.7,1.6c0,0.7-0.2,1.2-0.7,1.4
		c-0.4,0.2-0.7,0.2-1.2,0.2h-2.8V8.2z M316.4,13.4h2.4c0.7,0,1.2,0.2,1.4,0.3c0.2,0.4,0.4,0.9,0.4,1.6v1.2c0,0.3,0,0.7,0.2,1
		c0,0.2,0.2,0.4,0.2,0.7h2.8V18c-0.2-0.2-0.4-0.4-0.5-0.7c0-0.2,0-0.5,0-1.2v-0.9c0-0.9-0.2-1.6-0.4-1.9c-0.2-0.4-0.7-0.7-1.2-1.1
		c0.7-0.2,1.2-0.7,1.4-1.2c0.4-0.5,0.5-1.2,0.5-1.8s0-0.9-0.2-1.2c-0.2-0.3-0.4-0.7-0.7-1c-0.4-0.3-0.7-0.7-1.2-0.9
		c-0.5-0.2-1.1-0.3-1.9-0.3h-5.9v12.4h2.4v-4.7H316.4z"/>
	<path fill="#FFFFFF" d="M318.8,2.6c5.2,0,9.6,4.4,9.6,9.6s-4.4,9.6-9.6,9.6s-9.6-4.4-9.6-9.6S313.6,2.6,318.8,2.6 M318.8,23.4
		c6.1,0,11.2-5.1,11.2-11.2S324.9,1,318.8,1s-11.2,5.1-11.2,11.2S312.7,23.4,318.8,23.4"/>
</g>
</svg>
