<svg xmlns="http://www.w3.org/2000/svg" viewBox="-230 -2.5 560 105" enable-background="new -230 -2.5 560 105"><path fill="#fff" d="M-139.4 86.4c-11.5 11.4-23.4 16.1-38.1 16.1-28.7 0-52.5-17.7-52.5-52.7 0-35.2 23.8-52.3 52.5-52.3 14 0 24.9 4 35.7 14.7l-15.4 16.3c-5.8-5.2-12.9-7.9-19.8-7.9-16.6 0-28.5 11.9-28.5 29.2 0 18.9 12.8 28.9 28 28.9 7.9 0 15.6-2.3 21.7-8.2l16.4 15.9z"/><path fill="#fff" d="M-50.3 1h22.9v98h-22.6l-1.2-14.3c-5.6 11.7-21 17.7-32 17.8-29.2.2-52.2-18.2-52.2-52.8 0-34.1 23.8-52 52.7-51.6 13.3 0 25.9 6.1 31.5 16.1 0-.1.9-13.2.9-13.2zm-59.3 48.6c0 18.9 12.9 30.1 29.2 30.1 38.5 0 38.5-59.8 0-59.8-16.1-.2-29.2 10.8-29.2 29.7z"/><path fill="#fff" d="M66.8 99v-51.6c0-15.1-7.7-26.4-23.3-26.4-15.1 0-24.8 12.6-24.8 27.6v50.4h-24.7v-98h21.9l1.6 12.6c10-9.8 20.1-16.1 32.4-16.1 23.3 0 41.7 18.6 41.7 49.7v51.8h-24.8z"/><path fill="#fff" d="M209.9 1l-42 98h-26.4l-42.3-98h26.6l13.7 31.9 15.2 41.6 15.1-41.3 13.5-32.2h26.6z"/><path fill="#fff" d="M283.8 26.5c-7-6.6-15.1-8.8-24.5-8.8-11.6 0-18 3.7-18 9.8 0 6.5 5.8 10 18.4 10.9 18.7 1.1 42.4 5.4 42.4 31.5 0 17.5-14.2 32.5-42.5 32.5-15.6 0-31.3-2.6-45.7-17.7l12.1-17.5c7 7.9 23.1 13.7 34.1 13.8 9.3.2 17.9-4.5 17.9-11.9 0-6.8-5.6-9.6-19.6-10.5-18.6-1.4-42.2-8.2-42.2-30.6-.2-22.6 24.8-30.6 42.9-30.6 15.4 0 27.1 3 38.5 12.9l-13.8 16.2z"/><g fill="#fff"><path d="M316.4 8.2h2.8c.5 0 .9 0 1.2.2.5.2.7.7.7 1.6 0 .7-.2 1.2-.7 1.4-.4.2-.7.2-1.2.2h-2.8v-3.4zm0 5.2h2.4c.7 0 1.2.2 1.4.3.2.4.4.9.4 1.6v1.2c0 .3 0 .7.2 1 0 .2.2.4.2.7h2.8v-.2c-.2-.2-.4-.4-.5-.7v-2.1c0-.9-.2-1.6-.4-1.9-.2-.4-.7-.7-1.2-1.1.7-.2 1.2-.7 1.4-1.2.4-.5.5-1.2.5-1.8s0-.9-.2-1.2c-.2-.3-.4-.7-.7-1-.4-.3-.7-.7-1.2-.9-.5-.2-1.1-.3-1.9-.3h-5.9v12.4h2.4v-4.7h.3zM318.8 2.6c5.2 0 9.6 4.4 9.6 9.6s-4.4 9.6-9.6 9.6-9.6-4.4-9.6-9.6 4.4-9.6 9.6-9.6m0 20.8c6.1 0 11.2-5.1 11.2-11.2s-5.1-11.2-11.2-11.2-11.2 5.1-11.2 11.2 5.1 11.2 11.2 11.2"/></g></svg>