<svg xmlns="http://www.w3.org/2000/svg" viewBox="0 0 200 26" enable-background="new 0 0 200 26"><path d="M177.127 18.347c-.807.621-2.212 1.835-2.973 2.617l-2.744-2.464v-.152c.356-.103.432-.438.432-.839v-6.684c-.636-.457-1.931-1.586-2.643-2.236l-.889.788v8.132l.686.609c.132.117.294.28.534.28.294 0 .497-.104.788-.356l.279.306c-.749.541-2.134 1.702-2.998 2.617l-2.745-2.49v-.127c.279-.103.431-.284.431-.712v-6.785c-.66-.509-2.039-1.696-2.642-2.261l-.89.762v8.157l.636.56c.221.194.377.33.61.33.279 0 .457-.051.762-.356l.28.306c-.882.688-2.123 1.784-2.999 2.617l-2.745-2.439v-.152c.306-.076.432-.331.432-.788v-8.083l-.711-.559c-.178-.14-.347-.229-.508-.229-.222 0-.468.113-.762.381l-.28-.356c.814-.551 2.109-1.728 3.024-2.592l2.414 2.262 2.592-2.262c1.212 1.01 2.643 2.185 3.481 2.694l3.075-2.694c1.144.94 3.252 2.617 4.319 3.253v.126c-.305.102-.508.333-.508.788v7.166l.559.533c.192.185.417.382.661.382.305 0 .54-.161.788-.382l.254.332zM156.85 2.668l-1.017.915c-.824.742-1.485 1.067-2.109 1.067-.484 0-.947-.227-1.448-.661-.177-.153-.343-.305-.584-.305-.276 0-.505.123-.737.356l-.28-.305 3.024-2.617 1.524 1.347c.177.156.417.254.635.254.262 0 .537-.152.711-.356l.281.305zM157.459 18.347c-.773.629-2.253 1.905-2.999 2.643l-2.769-2.465v-.152c.294-.08.432-.356.432-.712v-8.182l-.635-.509c-.183-.146-.292-.254-.534-.254-.274 0-.556.123-.788.356l-.279-.331c.758-.545 2.142-1.702 3.023-2.617l2.745 2.364v.127c-.234.09-.508.279-.508.737v8.157l.711.636c.176.156.392.254.61.254.263 0 .483-.127.711-.356l.28.304zM104.298 18.347c-.744.56-2.054 1.697-2.999 2.643l-2.745-2.49v-.152c.241-.082.407-.36.407-.788v-13.011l-.737-.559c-.161-.122-.318-.228-.457-.228-.321 0-.548.218-.762.432l-.305-.331c.915-.686 2.237-1.83 3.049-2.668l2.745 2.364v.102c-.268.08-.509.462-.509.89v12.96l.737.66c.179.161.4.229.61.229.224 0 .5-.168.686-.356l.28.303zM74.541 18.347c-.813.594-2.296 1.873-2.998 2.617l-2.744-2.439v-.152c.261-.088.432-.326.432-.915v-6.607c-.68-.52-1.972-1.625-2.643-2.261l-.889.762v8.157l.813.712c.319.278.819.221 1.22-.152l.254.279c-.841.621-2.198 1.822-2.999 2.617l-2.745-2.439v-.152c.281-.115.432-.362.432-.763v-8.132l-.737-.534c-.168-.121-.278-.229-.432-.229-.348 0-.579.182-.788.356l-.305-.331c.725-.513 1.946-1.552 3.024-2.592l2.414 2.262 2.592-2.262c.908.785 3.183 2.525 4.32 3.278v.127c-.4.106-.508.405-.508.584v7.369l.864.788c.148.135.636.2 1.144-.28l.279.332zM197.583 17.305c-1.875.899-4.267 2.432-5.641 3.659-.792-.643-1.83-1.297-3.049-1.297-1.144 0-1.5.4-1.5.788 0 .241.356.212.356.56 0 .16-.167.355-.381.355-.268 0-.534-.28-.534-.762 0-.75.446-1.745 1.831-3.278l2.363-2.618-3.024-1.55v-.152c.243-.069.331-.271.331-.559v-2.261c0-.237-.143-.478-.331-.585v-.177c1.952-.965 4.2-2.219 5.489-3.304.343.38 1.296.915 2.261.915.814 0 .915-.249.915-.534l-.127-.33c0-.215.12-.305.28-.305.241 0 .432.18.432.635 0 1.204-1.143 2.694-3.023 2.694-1.337 0-2.157-.424-2.719-1.093l-.127.076v3.329l1.855.89.788-.788 3.557 1.804v.152c-.187.081-.305.264-.305.483v2.566c0 .34.145.445.305.534v.153zm-3.353 1.322v-3.786l-1.753-.813-3.685 3.913.051.025c.588-.32 1.465-.482 2.668-.482.936 0 2.08.526 2.668 1.169l.051-.026zM187.165 10.952l-5.921 3.736v2.337c.741.256 2.327 1.083 3.1 1.525l1.5-1.424c.076-.432.231-.863.686-.863.214 0 .331.183.331.356 0 .214-.125.379-.229.482l-3.863 3.838c-1.124-.717-3.646-2.025-4.955-2.592v-.153c.253-.102.381-.366.381-.66v-7.319c0-.32-.163-.614-.407-.66v-.152c1.718-.815 4.018-2.135 5.819-3.253 1.045 1.549 2.571 3.62 3.558 4.802zm-2.872 1.143c-.814-1.014-2.221-2.876-2.999-4.065l-.051.025v5.997l3.05-1.957zM150.344 1.779c0 2.006-1.344 2.972-2.998 3.227v12.731c.929-.671 1.67-1.573 2.058-2.516l.051-.228-.127-.381c.001-.175.04-.382.28-.382.213 0 .356.168.356.382 0 3.045-2.215 6.936-8.437 6.936-4.45 0-8.106-3.356-8.106-8.03 0-6.242 5.186-8.444 8.691-9.224-1.173-.196-2.814-.483-4.345-.483-2.926 0-3.85 1.386-4.091 2.388l-.305-.152c.053-1.413 1.297-5.286 5.107-5.286 3.731 0 6.116 1.55 9.021 1.55 1.919 0 2.264-.864 2.439-1.753l.33.127c.025.118.076.851.076 1.094zm-3.482 16.289v-13.011l-.457.025c-.614 0-1.188-.126-1.906-.254-.92.443-1.753 1.409-1.753 2.897 0 2.801 1.576 3.46 1.576 6.302 0 2.234-1.876 3.875-3.405 4.625.827.31 1.747.432 2.694.432 1.07 0 2.536-.523 3.251-1.016zm-3.074-13.392l-.508-.102c-3.092.575-6.658 3.311-6.658 7.827 0 2.972 1.579 5.021 3.811 6.048.662-.466 1.397-1.311 1.397-2.796 0-2.641-1.702-4.078-1.702-6.48 0-1.8 1.175-3.402 3.66-4.497zM124.271 17.305c-1.875.899-4.267 2.432-5.642 3.659-.791-.643-1.829-1.297-3.049-1.297-1.144 0-1.499.4-1.499.788 0 .241.355.212.355.56 0 .16-.167.355-.381.355-.268 0-.534-.28-.534-.762 0-.75.445-1.745 1.83-3.278l2.363-2.618-3.023-1.55v-.177c.244-.069.33-.246.33-.534v-2.261c0-.306-.102-.483-.33-.585v-.177c1.952-.965 4.2-2.219 5.489-3.304.343.38 1.296.915 2.262.915.813 0 .915-.249.915-.534 0-.161-.127-.226-.127-.33 0-.215.12-.305.279-.305.241 0 .433.18.433.635 0 1.204-1.169 2.694-3.024 2.694-1.337 0-2.158-.424-2.719-1.093l-.127.076v3.329l1.855.89.788-.788 3.558 1.804v.178c-.188.08-.305.264-.305.483v2.516c0 .34.127.482.305.533v.178zm-3.353 1.322v-3.786l-1.753-.813-3.685 3.913.051.025c.588-.32 1.465-.482 2.668-.482.937 0 2.08.526 2.668 1.169l.051-.026zM114.03 10.952l-5.92 3.736v2.337c.741.256 2.328 1.083 3.101 1.525l1.499-1.424c.102-.432.231-.863.686-.863.214 0 .331.183.331.356 0 .214-.099.379-.203.482l-3.888 3.838c-1.123-.717-3.646-2.025-4.956-2.592v-.153c.215-.08.381-.366.381-.66v-7.319c0-.32-.163-.614-.407-.66v-.152c1.717-.815 4.018-2.135 5.819-3.253 1.045 1.549 2.57 3.62 3.557 4.802zm-2.871 1.143c-.814-1.014-2.221-2.876-2.998-4.065l-.051.025v5.997l3.049-1.957zM97.233 10.952l-5.946 3.736v2.337c.741.256 2.327 1.083 3.1 1.525l1.499-1.424c.102-.457.229-.863.712-.863.214 0 .305.183.305.356 0 .214-.099.379-.203.482l-3.888 3.863c-1.123-.717-3.646-2.051-4.955-2.617v-.153c.214-.08.381-.366.381-.66v-7.319c0-.32-.163-.614-.407-.66v-.152c1.718-.815 4.043-2.135 5.845-3.253 1.045 1.549 2.57 3.62 3.557 4.802zm-2.896 1.143c-.814-1.014-2.221-2.876-2.998-4.065l-.051.025v5.997l3.049-1.957zM86.764 19.897c-.08 3.183-1.552 5.515-4.523 5.515-2.326 0-3.782-1.221-5.896-1.221-1.23 0-1.914.411-2.262.839l-.33-.279c.455-2.193 1.929-3.583 4.015-3.583 2.3 0 3.741 1.474 6.175 1.474 1.124 0 1.788-.543 2.109-1.372l-.025-.051c-.359.126-.732.178-1.093.178-1.254 0-2.389-.854-2.618-2.287-.597.418-1.8 1.341-2.389 1.855-1.469-.947-3.727-2.155-4.879-2.668v-.152c.24-.081.407-.317.407-.61v-7.268c0-.427-.164-.657-.457-.711v-.128c2.054-.79 4.331-2.162 5.819-3.304 1.282 1.015 3.406 2.491 4.778 3.279v.126c-.187.08-.356.284-.356.712v7.979c0 .994.247 1.524.966 1.524.114 0 .242.008.381-.025l.178.178zm-4.548-1.296v-7.776c-.797-.526-2.655-1.867-3.609-2.617l-.127.102v8.589c1.017.495 2.802 1.574 3.354 1.982l.382-.28zM61.581 18.576c-.855 1.469-1.741 2.566-3.024 2.566-1.015 0-1.732-.581-2.109-1.677l-1.677-4.879h-6.505l-.94 2.719c1.042.079 1.996.711 2.262.711.294 0 .543-.228.864-.762l.406.254-2.16 3.456c-.588-.508-1.514-1.042-2.745-1.042-1.685 0-2.731.453-3.507 1.042l-.28-.102c.374-1.817 1.876-3.396 4.498-3.583l4.523-13.265-.153-.457c-.312-.938-.932-1.449-1.601-1.449-.695 0-1.056.319-1.296.559l-.201-.177c.187-1.043 1.148-2.186 2.617-2.186 1.229 0 2.062.6 2.516 1.321h.051c.214-.561.614-1.014 1.042-1.067l.076.127c-.16.124-.356.625-.356 1.169 0 .274.062.546.152.813l5.336 15.781c.127.373.392.559.686.559.428 0 .694-.254 1.042-.763l.483.332zm-7.445-5.921l-2.592-7.623h-.051l-2.592 7.623h5.235zM36.322 17.305c-1.875.899-4.267 2.432-5.641 3.659-.791-.643-1.83-1.297-3.049-1.297-1.144 0-1.5.4-1.5.788 0 .241.356.212.356.56 0 .16-.167.355-.381.355-.268 0-.534-.28-.534-.762 0-.75.445-1.745 1.83-3.278l2.363-2.618-3.024-1.55v-.177c.243-.069.33-.246.33-.534v-2.261c0-.237-.143-.478-.33-.585v-.177c1.952-.965 4.199-2.219 5.489-3.304.343.38 1.296.915 2.262.915.813 0 .915-.249.915-.534 0-.161-.127-.226-.127-.33 0-.215.119-.305.28-.305.24 0 .432.18.432.635 0 1.204-.991 2.694-3.024 2.694-1.337 0-2.157-.424-2.719-1.093l-.127.076v3.329l1.855.89.788-.788 3.558 1.804v.204c-.188.08-.305.263-.305.482v2.49c0 .34.145.445.305.533v.179zm-3.354 1.322v-3.786l-1.753-.813-3.685 3.912.051.025c.588-.32 1.465-.482 2.668-.482.937 0 2.08.526 2.668 1.169l.051-.025zM25.08 17.661c-1.677.686-4.447 2.262-5.768 3.304-1.5-.991-3.481-2.49-4.854-3.278v-.178c.305-.102.381-.382.381-.763v-6.277c0-.583-.11-.82-.432-.889v-.152c1.982-.788 3.989-1.906 5.768-3.304 1.245.991 3.507 2.465 4.803 3.279v.152c-.268.107-.331.339-.331.66v6.633c0 .355.218.581.432.661v.152zm-3.481 1.194v-8.208c-1.067-.635-2.694-1.754-3.558-2.439l-.152.102v8.157c1.143.635 2.643 1.728 3.608 2.465l.102-.077zM14.001 16.289l-2.439 4.676c-.936-.803-2.322-1.373-4.141-1.373-2.728 0-6.127.707-7.09 1.322l-.331-.357c1.07-.936 2.186-3.365 2.186-6.251 0-3.076-1.753-4.527-1.753-7.572 0-3.13 1.397-4.866 3.989-6.175l.305.279c-.928.773-1.408 1.699-1.5 2.847l4.473-3.685c.829.802 2.151 1.702 3.354 1.702.909 0 1.372-.186 1.372-.584 0-.214-.178-.278-.178-.407 0-.214.154-.305.33-.305.241 0 .407.287.407.61 0 1.686-1.729 3.1-3.506 3.1-.59 0-1.087-.05-1.525-.178v12.756c.274-.027.501-.051.686-.051 1.686 0 3.181.712 3.582.712.588 0 .8-.42 1.271-1.321l.508.255zm-6.53.457v-13.011c-.671-.298-1.22-.75-1.779-1.397l-2.49 2.007c0 3.745 1.957 5.438 1.957 8.462 0 2.115-1.493 4.315-2.643 5.438l.102.026c1.52-.869 3.491-1.336 4.853-1.525zM200 20.329"/></svg>