<?xml version="1.0" encoding="utf-8"?>
<!-- Generator: Adobe Illustrator 18.0.0, SVG Export Plug-In . SVG Version: 6.00 Build 0)  -->
<!DOCTYPE svg PUBLIC "-//W3C//DTD SVG 1.1//EN" "http://www.w3.org/Graphics/SVG/1.1/DTD/svg11.dtd">
<svg version="1.1" id="Layer_1" xmlns="http://www.w3.org/2000/svg" xmlns:xlink="http://www.w3.org/1999/xlink" x="0px" y="0px"
	 viewBox="0 0 200 26" enable-background="new 0 0 200 26" xml:space="preserve">
<g>
	<path d="M177.127,18.347c-0.807,0.621-2.212,1.835-2.973,2.617L171.41,18.5v-0.152c0.356-0.103,0.432-0.438,0.432-0.839v-6.684
		c-0.636-0.457-1.931-1.586-2.643-2.236l-0.889,0.788v8.132l0.686,0.609c0.132,0.117,0.294,0.28,0.534,0.28
		c0.294,0,0.497-0.104,0.788-0.356l0.279,0.306c-0.749,0.541-2.134,1.702-2.998,2.617l-2.745-2.49v-0.127
		c0.279-0.103,0.431-0.284,0.431-0.712v-6.785c-0.66-0.509-2.039-1.696-2.642-2.261l-0.89,0.762v8.157l0.636,0.56
		c0.221,0.194,0.377,0.33,0.61,0.33c0.279,0,0.457-0.051,0.762-0.356l0.28,0.306c-0.882,0.688-2.123,1.784-2.999,2.617l-2.745-2.439
		v-0.152c0.306-0.076,0.432-0.331,0.432-0.788V9.504l-0.711-0.559c-0.178-0.14-0.347-0.229-0.508-0.229
		c-0.222,0-0.468,0.113-0.762,0.381l-0.28-0.356c0.814-0.551,2.109-1.728,3.024-2.592l2.414,2.262l2.592-2.262
		c1.212,1.01,2.643,2.185,3.481,2.694l3.075-2.694c1.144,0.94,3.252,2.617,4.319,3.253v0.126c-0.305,0.102-0.508,0.333-0.508,0.788
		v7.166l0.559,0.533c0.192,0.185,0.417,0.382,0.661,0.382c0.305,0,0.54-0.161,0.788-0.382L177.127,18.347z"/>
	<path d="M156.85,2.668l-1.017,0.915c-0.824,0.742-1.485,1.067-2.109,1.067c-0.484,0-0.947-0.227-1.448-0.661
		c-0.177-0.153-0.343-0.305-0.584-0.305c-0.276,0-0.505,0.123-0.737,0.356l-0.28-0.305l3.024-2.617l1.524,1.347
		c0.177,0.156,0.417,0.254,0.635,0.254c0.262,0,0.537-0.152,0.711-0.356L156.85,2.668z"/>
	<path d="M157.459,18.347c-0.773,0.629-2.253,1.905-2.999,2.643l-2.769-2.465v-0.152c0.294-0.08,0.432-0.356,0.432-0.712V9.479
		l-0.635-0.509c-0.183-0.146-0.292-0.254-0.534-0.254c-0.274,0-0.556,0.123-0.788,0.356l-0.279-0.331
		c0.758-0.545,2.142-1.702,3.023-2.617l2.745,2.364v0.127c-0.234,0.09-0.508,0.279-0.508,0.737v8.157l0.711,0.636
		c0.176,0.156,0.392,0.254,0.61,0.254c0.263,0,0.483-0.127,0.711-0.356L157.459,18.347z"/>
	<path d="M104.298,18.347c-0.744,0.56-2.054,1.697-2.999,2.643l-2.745-2.49v-0.152c0.241-0.082,0.407-0.36,0.407-0.788V4.549
		l-0.737-0.559c-0.161-0.122-0.318-0.228-0.457-0.228c-0.321,0-0.548,0.218-0.762,0.432L96.7,3.863
		c0.915-0.686,2.237-1.83,3.049-2.668l2.745,2.364v0.102c-0.268,0.08-0.509,0.462-0.509,0.89v12.96l0.737,0.66
		c0.179,0.161,0.4,0.229,0.61,0.229c0.224,0,0.5-0.168,0.686-0.356L104.298,18.347z"/>
	<path d="M74.541,18.347c-0.813,0.594-2.296,1.873-2.998,2.617l-2.744-2.439v-0.152c0.261-0.088,0.432-0.326,0.432-0.915v-6.607
		c-0.68-0.52-1.972-1.625-2.643-2.261l-0.889,0.762v8.157l0.813,0.712c0.319,0.278,0.819,0.221,1.22-0.152l0.254,0.279
		c-0.841,0.621-2.198,1.822-2.999,2.617l-2.745-2.439v-0.152c0.281-0.115,0.432-0.362,0.432-0.763V9.479l-0.737-0.534
		c-0.168-0.121-0.278-0.229-0.432-0.229c-0.348,0-0.579,0.182-0.788,0.356l-0.305-0.331c0.725-0.513,1.946-1.552,3.024-2.592
		l2.414,2.262l2.592-2.262c0.908,0.785,3.183,2.525,4.32,3.278v0.127c-0.4,0.106-0.508,0.405-0.508,0.584v7.369l0.864,0.788
		c0.148,0.135,0.636,0.2,1.144-0.28L74.541,18.347z"/>
	<path d="M197.583,17.305c-1.875,0.899-4.267,2.432-5.641,3.659c-0.792-0.643-1.83-1.297-3.049-1.297c-1.144,0-1.5,0.4-1.5,0.788
		c0,0.241,0.356,0.212,0.356,0.56c0,0.16-0.167,0.355-0.381,0.355c-0.268,0-0.534-0.28-0.534-0.762c0-0.75,0.446-1.745,1.831-3.278
		l2.363-2.618l-3.024-1.55V13.01c0.243-0.069,0.331-0.271,0.331-0.559V10.19c0-0.237-0.143-0.478-0.331-0.585V9.428
		c1.952-0.965,4.2-2.219,5.489-3.304c0.343,0.38,1.296,0.915,2.261,0.915c0.814,0,0.915-0.249,0.915-0.534
		c0-0.161-0.127-0.203-0.127-0.33c0-0.215,0.12-0.305,0.28-0.305c0.241,0,0.432,0.18,0.432,0.635c0,1.204-1.143,2.694-3.023,2.694
		c-1.337,0-2.157-0.424-2.719-1.093l-0.127,0.076v3.329l1.855,0.89l0.788-0.788l3.557,1.804v0.152
		c-0.187,0.081-0.305,0.264-0.305,0.483v2.566c0,0.34,0.145,0.445,0.305,0.534V17.305z M194.23,18.627v-3.786l-1.753-0.813
		l-3.685,3.913l0.051,0.025c0.588-0.32,1.465-0.482,2.668-0.482c0.936,0,2.08,0.526,2.668,1.169L194.23,18.627z"/>
	<path d="M187.165,10.952l-5.921,3.736v2.337c0.741,0.256,2.327,1.083,3.1,1.525l1.5-1.424c0.076-0.432,0.231-0.863,0.686-0.863
		c0.214,0,0.331,0.183,0.331,0.356c0,0.214-0.125,0.379-0.229,0.482l-3.863,3.838c-1.124-0.717-3.646-2.025-4.955-2.592v-0.153
		c0.253-0.102,0.381-0.366,0.381-0.66v-7.319c0-0.32-0.163-0.614-0.407-0.66V9.403c1.718-0.815,4.018-2.135,5.819-3.253
		C184.652,7.699,186.178,9.77,187.165,10.952z M184.293,12.095c-0.814-1.014-2.221-2.876-2.999-4.065l-0.051,0.025v5.997
		L184.293,12.095z"/>
	<path d="M150.344,1.779c0,2.006-1.344,2.972-2.998,3.227v12.731c0.929-0.671,1.67-1.573,2.058-2.516
		c0.037-0.088,0.051-0.171,0.051-0.228c0-0.134-0.127-0.219-0.127-0.381c0.001-0.175,0.04-0.382,0.28-0.382
		c0.213,0,0.356,0.168,0.356,0.382c0,3.045-2.215,6.936-8.437,6.936c-4.45,0-8.106-3.356-8.106-8.03
		c0-6.242,5.186-8.444,8.691-9.224c-1.173-0.196-2.814-0.483-4.345-0.483c-2.926,0-3.85,1.386-4.091,2.388l-0.305-0.152
		c0.053-1.413,1.297-5.286,5.107-5.286c3.731,0,6.116,1.55,9.021,1.55c1.919,0,2.264-0.864,2.439-1.753l0.33,0.127
		C150.293,0.803,150.344,1.536,150.344,1.779z M146.862,18.068V5.057c-0.149,0.01-0.305,0.025-0.457,0.025
		c-0.614,0-1.188-0.126-1.906-0.254c-0.92,0.443-1.753,1.409-1.753,2.897c0,2.801,1.576,3.46,1.576,6.302
		c0,2.234-1.876,3.875-3.405,4.625c0.827,0.31,1.747,0.432,2.694,0.432C144.681,19.084,146.147,18.561,146.862,18.068z
		 M143.788,4.676l-0.508-0.102c-3.092,0.575-6.658,3.311-6.658,7.827c0,2.972,1.579,5.021,3.811,6.048
		c0.662-0.466,1.397-1.311,1.397-2.796c0-2.641-1.702-4.078-1.702-6.48C140.128,7.373,141.303,5.771,143.788,4.676z"/>
	<path d="M124.271,17.305c-1.875,0.899-4.267,2.432-5.642,3.659c-0.791-0.643-1.829-1.297-3.049-1.297
		c-1.144,0-1.499,0.4-1.499,0.788c0,0.241,0.355,0.212,0.355,0.56c0,0.16-0.167,0.355-0.381,0.355c-0.268,0-0.534-0.28-0.534-0.762
		c0-0.75,0.445-1.745,1.83-3.278l2.363-2.618l-3.023-1.55v-0.177c0.244-0.069,0.33-0.246,0.33-0.534V10.19
		c0-0.306-0.102-0.483-0.33-0.585V9.428c1.952-0.965,4.2-2.219,5.489-3.304c0.343,0.38,1.296,0.915,2.262,0.915
		c0.813,0,0.915-0.249,0.915-0.534c0-0.161-0.127-0.226-0.127-0.33c0-0.215,0.12-0.305,0.279-0.305c0.241,0,0.433,0.18,0.433,0.635
		c0,1.204-1.169,2.694-3.024,2.694c-1.337,0-2.158-0.424-2.719-1.093l-0.127,0.076v3.329l1.855,0.89l0.788-0.788l3.558,1.804v0.178
		c-0.188,0.08-0.305,0.264-0.305,0.483v2.516c0,0.34,0.127,0.482,0.305,0.533V17.305z M120.918,18.627v-3.786l-1.753-0.813
		l-3.685,3.913l0.051,0.025c0.588-0.32,1.465-0.482,2.668-0.482c0.937,0,2.08,0.526,2.668,1.169L120.918,18.627z"/>
	<path d="M114.03,10.952l-5.92,3.736v2.337c0.741,0.256,2.328,1.083,3.101,1.525l1.499-1.424c0.102-0.432,0.231-0.863,0.686-0.863
		c0.214,0,0.331,0.183,0.331,0.356c0,0.214-0.099,0.379-0.203,0.482l-3.888,3.838c-1.123-0.717-3.646-2.025-4.956-2.592v-0.153
		c0.215-0.08,0.381-0.366,0.381-0.66v-7.319c0-0.32-0.163-0.614-0.407-0.66V9.403c1.717-0.815,4.018-2.135,5.819-3.253
		C111.518,7.699,113.043,9.77,114.03,10.952z M111.159,12.095c-0.814-1.014-2.221-2.876-2.998-4.065l-0.051,0.025v5.997
		L111.159,12.095z"/>
	<path d="M97.233,10.952l-5.946,3.736v2.337c0.741,0.256,2.327,1.083,3.1,1.525l1.499-1.424c0.102-0.457,0.229-0.863,0.712-0.863
		c0.214,0,0.305,0.183,0.305,0.356c0,0.214-0.099,0.379-0.203,0.482l-3.888,3.863c-1.123-0.717-3.646-2.051-4.955-2.617v-0.153
		c0.214-0.08,0.381-0.366,0.381-0.66v-7.319c0-0.32-0.163-0.614-0.407-0.66V9.403c1.718-0.815,4.043-2.135,5.845-3.253
		C94.721,7.699,96.246,9.77,97.233,10.952z M94.337,12.095c-0.814-1.014-2.221-2.876-2.998-4.065l-0.051,0.025v5.997L94.337,12.095z
		"/>
	<path d="M86.764,19.897c-0.08,3.183-1.552,5.515-4.523,5.515c-2.326,0-3.782-1.221-5.896-1.221c-1.23,0-1.914,0.411-2.262,0.839
		l-0.33-0.279c0.455-2.193,1.929-3.583,4.015-3.583c2.3,0,3.741,1.474,6.175,1.474c1.124,0,1.788-0.543,2.109-1.372l-0.025-0.051
		c-0.359,0.126-0.732,0.178-1.093,0.178c-1.254,0-2.389-0.854-2.618-2.287c-0.597,0.418-1.8,1.341-2.389,1.855
		c-1.469-0.947-3.727-2.155-4.879-2.668v-0.152c0.24-0.081,0.407-0.317,0.407-0.61v-7.268c0-0.427-0.164-0.657-0.457-0.711V9.428
		c2.054-0.79,4.331-2.162,5.819-3.304c1.282,1.015,3.406,2.491,4.778,3.279v0.126c-0.187,0.08-0.356,0.284-0.356,0.712v7.979
		c0,0.994,0.247,1.524,0.966,1.524c0.114,0,0.242,0.008,0.381-0.025L86.764,19.897z M82.216,18.601v-7.776
		c-0.797-0.526-2.655-1.867-3.609-2.617L78.48,8.31v8.589c1.017,0.495,2.802,1.574,3.354,1.982L82.216,18.601z"/>
	<path d="M61.581,18.576c-0.855,1.469-1.741,2.566-3.024,2.566c-1.015,0-1.732-0.581-2.109-1.677l-1.677-4.879h-6.505l-0.94,2.719
		c1.042,0.079,1.996,0.711,2.262,0.711c0.294,0,0.543-0.228,0.864-0.762l0.406,0.254l-2.16,3.456
		c-0.588-0.508-1.514-1.042-2.745-1.042c-1.685,0-2.731,0.453-3.507,1.042l-0.28-0.102c0.374-1.817,1.876-3.396,4.498-3.583
		l4.523-13.265l-0.153-0.457c-0.312-0.938-0.932-1.449-1.601-1.449c-0.695,0-1.056,0.319-1.296,0.559L47.936,2.49
		c0.187-1.043,1.148-2.186,2.617-2.186c1.229,0,2.062,0.6,2.516,1.321h0.051c0.214-0.561,0.614-1.014,1.042-1.067l0.076,0.127
		c-0.16,0.124-0.356,0.625-0.356,1.169c0,0.274,0.062,0.546,0.152,0.813l5.336,15.781c0.127,0.373,0.392,0.559,0.686,0.559
		c0.428,0,0.694-0.254,1.042-0.763L61.581,18.576z M54.136,12.655l-2.592-7.623h-0.051l-2.592,7.623H54.136z"/>
	<path d="M36.322,17.305c-1.875,0.899-4.267,2.432-5.641,3.659c-0.791-0.643-1.83-1.297-3.049-1.297c-1.144,0-1.5,0.4-1.5,0.788
		c0,0.241,0.356,0.212,0.356,0.56c0,0.16-0.167,0.355-0.381,0.355c-0.268,0-0.534-0.28-0.534-0.762c0-0.75,0.445-1.745,1.83-3.278
		l2.363-2.618l-3.024-1.55v-0.177c0.243-0.069,0.33-0.246,0.33-0.534V10.19c0-0.237-0.143-0.478-0.33-0.585V9.428
		c1.952-0.965,4.199-2.219,5.489-3.304c0.343,0.38,1.296,0.915,2.262,0.915c0.813,0,0.915-0.249,0.915-0.534
		c0-0.161-0.127-0.226-0.127-0.33c0-0.215,0.119-0.305,0.28-0.305c0.24,0,0.432,0.18,0.432,0.635c0,1.204-0.991,2.694-3.024,2.694
		c-1.337,0-2.157-0.424-2.719-1.093l-0.127,0.076v3.329l1.855,0.89l0.788-0.788l3.558,1.804v0.204
		c-0.188,0.08-0.305,0.263-0.305,0.482v2.49c0,0.34,0.145,0.445,0.305,0.533V17.305z M32.968,18.627v-3.786l-1.753-0.813
		L27.53,17.94l0.051,0.025c0.588-0.32,1.465-0.482,2.668-0.482c0.937,0,2.08,0.526,2.668,1.169L32.968,18.627z"/>
	<path d="M25.08,17.661c-1.677,0.686-4.447,2.262-5.768,3.304c-1.5-0.991-3.481-2.49-4.854-3.278v-0.178
		c0.305-0.102,0.381-0.382,0.381-0.763v-6.277c0-0.583-0.11-0.82-0.432-0.889V9.428c1.982-0.788,3.989-1.906,5.768-3.304
		c1.245,0.991,3.507,2.465,4.803,3.279v0.152c-0.268,0.107-0.331,0.339-0.331,0.66v6.633c0,0.355,0.218,0.581,0.432,0.661V17.661z
		 M21.599,18.855v-8.208c-1.067-0.635-2.694-1.754-3.558-2.439L17.889,8.31v8.157c1.143,0.635,2.643,1.728,3.608,2.465
		L21.599,18.855z"/>
	<path d="M14.001,16.289l-2.439,4.676c-0.936-0.803-2.322-1.373-4.141-1.373c-2.728,0-6.127,0.707-7.09,1.322L0,20.557
		c1.07-0.936,2.186-3.365,2.186-6.251c0-3.076-1.753-4.527-1.753-7.572c0-3.13,1.397-4.866,3.989-6.175l0.305,0.279
		C3.799,1.611,3.319,2.537,3.227,3.685L7.7,0c0.829,0.802,2.151,1.702,3.354,1.702c0.909,0,1.372-0.186,1.372-0.584
		c0-0.214-0.178-0.278-0.178-0.407c0-0.214,0.154-0.305,0.33-0.305c0.241,0,0.407,0.287,0.407,0.61c0,1.686-1.729,3.1-3.506,3.1
		c-0.59,0-1.087-0.05-1.525-0.178v12.756c0.274-0.027,0.501-0.051,0.686-0.051c1.686,0,3.181,0.712,3.582,0.712
		c0.588,0,0.8-0.42,1.271-1.321L14.001,16.289z M7.471,16.746V3.735C6.8,3.437,6.251,2.985,5.692,2.338l-2.49,2.007
		c0,3.745,1.957,5.438,1.957,8.462c0,2.115-1.493,4.315-2.643,5.438l0.102,0.026C4.138,17.402,6.109,16.935,7.471,16.746z"/>
	<path d="M200,20.329"/>
</g>
</svg>
