<?xml version="1.0" encoding="utf-8"?>
<!-- Generator: Adobe Illustrator 17.1.0, SVG Export Plug-In . SVG Version: 6.00 Build 0)  -->
<!DOCTYPE svg PUBLIC "-//W3C//DTD SVG 1.1//EN" "http://www.w3.org/Graphics/SVG/1.1/DTD/svg11.dtd">
<svg version="1.1" id="Layer_1" xmlns="http://www.w3.org/2000/svg" xmlns:xlink="http://www.w3.org/1999/xlink" x="0px" y="0px"
	 viewBox="0 0 220 40" enable-background="new 0 0 220 40" xml:space="preserve">
<g>
	<path fill="#FFFFFF" d="M28.8,37.55V21.986c0-3.499-2.132-6.846-5.579-7.049c-3.649-0.154-6.336,2.635-6.336,7.049v15.613h-2.283
		V21.581c0-3.552-2.788-6.694-6.337-6.644c-3.499,0.152-5.731,3.55-5.731,7.049V37.55H0V21.729c0-4.713,3.347-8.972,8.063-9.175
		c3.345-0.1,6.235,1.725,7.655,4.208c1.268-2.483,3.956-4.461,7.2-4.411c4.207,0.052,8.214,3.499,8.214,7.962V37.55H28.8z"/>
	<path fill="#FFFFFF" d="M43.522,37.649c-4.563,0-8.063-4.36-7.909-8.971c0.202-4.916,4.461-8.215,9.785-8.215h9.124
		c0-1.621-0.505-2.839-1.671-3.953c-1.013-0.914-1.925-1.319-3.245-1.319H37.894v-2.385h10.7c2.534,0,4.41,0.408,6.234,2.232
		c1.522,1.573,2.181,3.042,2.181,5.274v17.337H43.522z M54.575,23.001H44.84c-3.601,0-6.846,2.684-6.846,6.234
		c0,3.65,2.131,6.235,7.048,6.235h9.532V23.001z"/>
	<path fill="#FFFFFF" d="M75.679,37.55H62.852v-2.28h13.131c3.449,0,6.238-2.89,6.238-6.341c0-3.6-3.042-6.391-6.642-6.391h-7.912
		c-2.687,0-4.815-2.429-4.714-5.169c0.049-2.687,2.434-4.714,5.121-4.714h14.096v2.233H68.378c-1.622,0-3.143,1.115-3.143,2.737
		c0,1.926,0.911,2.534,4.258,2.534h5.883c5.425,0,9.024,3.603,9.227,8.466C84.805,33.443,80.546,37.55,75.679,37.55z"/>
	<path fill="#FFFFFF" d="M107.586,37.501V20.816c0-1.874-0.558-3.396-1.929-4.411c-1.672-1.163-3.091-1.265-5.12-1.265h-9.583V37.55
		h-2.637V0.03h2.587v12.624h9.582c2.687,0,4.462,0.203,6.59,1.673c2.13,1.472,2.941,3.398,2.941,5.984v17.189H107.586z"/>
	<path fill="#FFFFFF" d="M139.49,38.107c-3.195,0.053-5.881-1.722-7.249-4.109c-1.471,2.437-4.309,4.36-7.35,4.109
		c-5.779-0.405-8.367-4.665-8.367-9.632V12.705h2.534V28.27c0,4.26,2.076,7.505,5.73,7.604c3.599,0,6.083-2.733,6.083-7.093V12.705
		h2.532V28.27c0,4.921,2.386,7.604,6.187,7.604c3.248-0.098,5.983-2.733,5.983-6.081V12.705h2.534V29.54
		C148.109,34.256,143.701,38.058,139.49,38.107z"/>
	<path fill="#FFFFFF" d="M191.394,14.887c-1.469,0-2.736,0.405-3.752,1.317c-1.617,1.319-2.128,2.89-2.128,4.969V37.55h-2.28V20.006
		c0-2.179,1.066-3.954,2.23-5.17c1.265-1.319,3.348-2.131,5.73-2.131h3.243v2.183H191.394z"/>
	<path fill="#FFFFFF" d="M217.466,37.55l-11.764-16.835l-4.918,2.385v14.45h-2.284V0.181h2.284v20.231l15.007-7.607H220
		l-12.267,6.898L220,37.55H217.466z"/>
	<g>
		<g>
			<path fill="#AF2328" d="M177.225,30.614c0,0,0.407-0.206-0.826-0.619l-2.519-0.884c0,0,5.459-0.206,5.459-0.619
				c0,0-0.616-0.272-2.73-0.203h-4.101c0,0-1.764-0.714-2.917-1.368c0.075-0.084,0.188-0.206,0.342-0.368
				c-0.149,0.14-0.272,0.264-0.354,0.361c-0.551-0.314-0.961-0.614-0.961-0.813c0,0-0.21-0.248,1.462,0.3
				c-0.05,0.052-0.104,0.106-0.147,0.152c0.052-0.049,0.1-0.095,0.159-0.148c0.624,0.205,1.502,0.517,2.759,0.997
				c0,0,1.847,0.818,2.254,0.338c0,0,0.203-0.475-1.097-0.952l-3.1-1.083c1.191-0.986,2.769-2.183,3.41-2.664
				c-0.654,0.536-1.527,1.516-1.883,1.925c0.999-1.011,6.256-5.011,6.256-5.011l0.167-0.629c0.382-0.322,0.645-0.66,0.552-0.941
				c0,0-0.142-1.024-3.215,0.481c0,0,1.028-1.299,0.614-1.777c0,0-0.545-0.069-1.365,0.682c0,0-4.233,3.959-5.258,4.509
				c0,0,4.988-5.261,5.532-6.014c0,0,0.477-0.956-0.544-0.681c0,0-0.142-0.752-0.826-0.069c0,0-3.823,3.893-6.415,5.808
				l-0.138-1.233h-0.342l-0.066-1.708c0,0-0.348-1.162-0.412,0v3.009c0,0-0.958-1.027-0.273-8.13c0,0,0.064-1.231-0.338-1.231
				c0,0-0.414-0.204-0.48,2.801c0,0-0.554-3.62-1.231-3.689c0,0-1.229-0.341-1.028,1.162c0,0,0.412,2.801,0.276,3.004
				c0,0-1.577-3.278-1.775-3.55c0,0-0.891-1.023-0.28,0.34c0,0,1.371,2.869,1.303,3.279c0,0-0.614-0.272-1.98-3.825
				c0,0-0.414-0.617-0.826-0.274c0,0-0.338,0.205,0.346,1.707c0,0-0.752-0.137-0.609,0.615h-0.622c0,0-0.407-0.134,0.412,1.094
				c0,0-0.89-0.068-0.481,0.683c0,0,3.147,6.969,3.075,7.449l-5.602-2.599c0,0-1.159-0.409-0.821,0.408c0,0-1.428-0.749-1.293-0.134
				c0,0-2.051-0.615-1.778-0.138c0,0-0.408,0.479,1.163,1.505c0,0-0.887,0.272,1.299,1.09c0,0,2.184,0.891,2.798,1.234
				c0,0,0.545,0.612-3.481-0.887c0,0-2.388-0.619-2.868-0.479c0,0-1.575-0.549-1.643-0.347c0,0-1.023,0.207,1.917,0.958
				c0,0-0.414,0.48,0.957,0.822c0,0,3.55,0.821,4.711,1.639l-0.072,0.408c0,0-5.394-1.775-6.827-2.25c0,0-1.094,0.067,0.543,0.681
				c0,0,2.391,0.682,5.946,1.978l3.211,1.094l-4.778,5.056l0.272,0.203l5.806-4.781c0,0,0.749-0.201-2.326,3.277
				c0,0-3.21,3.078-2.936,3.692l0.272,0.339c0,0-1.295,1.028-0.891,1.507l-0.473,0.68l0.473,0.55c0,0,0.957-1.098,2.668-2.053
				c0,0-1.094,1.367-1.569,1.706c0,0-0.819,0.821-0.142,1.024c0,0,0.343-0.203,1.369-1.635c0,0,3.618-4.029,6.559-6.493
				c0,0,1.297-0.617-5.537,6.08c0,0,4.166-3.892,6.834-6.967c0,0,0.479-0.133,0.479,1.094c0,0,0.273,3.484,0.883,6.695
				c0,0,0.48,2.049,0.755,2.184c0,0,0.276,0-0.07-6.011l2.32,4.237c0,0,0.206,0.478,0.552,0.272c0,0,0.134,0-0.276-1.159
				c0,0-1.365-2.803-1.501-3.687c0,0,1.159,0.817,1.985,3.414c0,0,1.023,2.051,1.841,1.978c0,0,0.202-0.203,0.202-0.953l0.485-0.137
				l-3.419-7.105l0.282,0.52l3.333,6.173l-3.001-6.077l3.275,0.887c0,0-4.574-1.436-3.275-1.503c0,0,5.598,1.574,7.378,2.325
				c0,0,1.023-0.207,0.886-1.094C179.339,32.047,179.413,31.705,177.225,30.614z M160.882,18.227
				c-0.047-0.148-0.091-0.323-0.124-0.526l0.48,0.617l0.139,0.681C161.378,18.999,161.081,18.786,160.882,18.227z M161.304,12.715
				l0.412,1.161C161.038,13.329,161.304,12.715,161.304,12.715z M155.564,22.514c-0.065-0.04-0.096-0.065-0.096-0.065l-0.068-0.158
				l0.19,0.028l0.154,0.129l0.216,0.089l0.251,0.034l0.31,0.157l0.282,0.124l0.247,0.152l0.344,0.187l0.591,0.408
				C156.996,23.463,155.892,22.745,155.564,22.514z M158.39,22.505c-0.188,0-0.404,0.067-0.404,0.067h-0.53l-0.124-0.157
				c0,0-0.03-0.096,0.062-0.124c0.093-0.033,0.276-0.095,0.276-0.095l0.315,0.028l0.246,0.094l0.192,0.033
				C158.424,22.353,158.579,22.505,158.39,22.505z M161.07,28.578l-0.561,0.401l-0.782,0.504l1.311-1.437l0.216,0.066l0.157-0.157
				c0,0,0.089,0,0.119,0.091C161.568,28.145,161.07,28.578,161.07,28.578z M160.165,34.151l-0.062,0.124l-0.253,0.128l-0.246,0.248
				l-0.34,0.248l-0.155,0.157l-0.19,0.124l-0.248,0.28l-0.182,0.185l-0.162,0.129l-0.34,0.214c0,0,0,0,0.064-0.091
				c0.058-0.094,0.09-0.123,0.09-0.123s0,0,0.124-0.129c0.126-0.123,0,0,0.092-0.123c0.096-0.129,0,0,0.096-0.129
				c0.094-0.124,0.218-0.214,0.218-0.214s0,0,0.154-0.157c0.16-0.157,0.16-0.091,0.285-0.157c0.124-0.062,0,0,0.155-0.153
				c0.155-0.158,0.308-0.31,0.308-0.31l0.278-0.253l0.221-0.219l0.128,0.034L160.165,34.151z M162.627,28.979c0,0,0,0-0.062,0.099
				c-0.064,0.091-0.098,0.157-0.098,0.157s-0.184,0.249-0.369,0.372c-0.19,0.124-0.13,0.186-0.13,0.186l-0.37,0.28
				c0,0-0.068,0.129-0.152,0.154c-0.099,0.033-0.191,0.19-0.191,0.19l-0.062-0.157c0,0,0,0,0.029-0.091
				c0.032-0.096,0.092-0.124,0.092-0.124l0.156-0.157c0,0,0,0,0.128-0.095c0.124-0.095,0,0,0.124-0.186c0.124-0.19,0,0,0.124-0.091
				c0.122-0.099,0.122-0.161,0.122-0.161l0.16-0.277l0.374-0.251l0.214-0.125L162.627,28.979z M162.905,24.843
				c-0.091,0.099,0.06,0.032-0.091,0.099c-0.154,0.058-0.223,0.115-0.313,0.115c-0.096,0-0.188,0-0.28-0.09
				c-0.094-0.092-0.094-0.092-0.094-0.092l-0.369-0.189c-0.257-0.181-0.38-0.215-0.38-0.215s-0.032,0.033-0.124,0
				c-0.092-0.033,0.157,0-0.092-0.033c-0.25-0.032-0.407-0.158-0.407-0.158s-0.063,0.033-0.123-0.061
				c-0.062-0.094-0.062-0.094-0.062-0.094l-0.283-0.092L160.133,24l-0.371-0.057l-0.343-0.157l-0.218-0.124l-0.216-0.128
				c0,0-0.066-0.029-0.098-0.12c-0.029-0.098,0.126-0.098-0.029-0.098c-0.154,0-0.154,0-0.154,0l-0.156-0.186v-0.153l0.372,0.058
				l0.346,0.157h0.155c0,0,0.096,0.032,0.219,0.032c0.124,0,0.124,0,0.124,0l0.588,0.157l0.254,0.062c0,0,0.09,0.063,0.248,0.12
				c0.157,0.066-0.062,0.037,0.157,0.066c0.214,0.034,0.338-0.066,0.493,0.063c0.159,0.123,0.159,0.123,0.159,0.123
				s0.186,0.158,0.308,0.219c0.13,0.058,0.13,0.058,0.13,0.058s0.124-0.025,0.338,0.099c0.223,0.123,0.223,0.123,0.223,0.123
				s0.154,0.157,0.178,0.249c0.036,0.093,0.036,0.093,0.036,0.093S163.001,24.748,162.905,24.843z M161.51,17.836
				c0,0,0.957,1.163,1.437,2.667C162.947,20.503,162.539,20.638,161.51,17.836z M163.681,25.337
				c-0.246,0.158-0.278-0.056-0.278-0.056l-0.128,0.056l-0.216-0.056v-0.224h0.185c0,0,0.098,0,0.191,0c0.094,0,0.094,0,0.094,0
				s0.152-0.028,0.152,0.129C163.681,25.337,163.93,25.185,163.681,25.337z M165.541,18.113l-1.299-2.529
				c0,0-0.614-4.099-0.139-4.031c0,0,0.687-0.956,1.23,1.915l0.414,1.706C165.747,15.174,165.887,17.498,165.541,18.113z
				 M170.564,33.843c0.093,0,0.247,0,0.247,0l0.161,0.404c0.06,0.281,0.461,0.809,0.461,0.809l-0.188-0.063
				c0,0-0.124-0.061-0.213-0.127c-0.091-0.062-0.123-0.092-0.221-0.215c-0.093-0.124-0.093-0.157-0.154-0.438
				c-0.064-0.281-0.216-0.281-0.188-0.371C170.503,33.748,170.469,33.843,170.564,33.843z M176.695,28.517l0.156,0.094
				c0,0-0.124,0.121-0.218,0.121c-0.09,0-0.152-0.03-0.344-0.03h-0.308c-0.092,0-0.216-0.062-0.344,0
				c-0.124,0.063-0.339,0.063-0.461,0.063c-0.13,0-0.346-0.033-0.346-0.033s-0.124-0.03-0.216-0.03c-0.096,0-0.284,0-0.284,0h-0.809
				L176.695,28.517z M169.412,23.943l-0.369,0.123l-0.288,0.339l-0.213,0.124l0.09-0.338c0,0,0.312-0.404,0.468-0.438
				c0.099-0.021,0.149,0,0.194,0.025c0.028,0.009,0.052,0.024,0.088,0.036C169.475,23.842,169.412,23.943,169.412,23.943z
				 M170.815,25.672l-1.107-0.387c0,0,0.204-1.433,7.236-4.778C173.914,22.82,171.962,24.565,170.815,25.672z M178.657,18.591
				c0,0,0.066,0.136-1.501,0.818l-1.571,0.683l0.612-0.818C176.197,19.273,178.182,18.247,178.657,18.591z M170.972,22.291
				l5.35-4.702l-0.278,0.435l-0.936,0.996l-1.868,1.62l-3.36,2.865l-0.154-0.092L170.972,22.291z M167.885,21.854l0.157-0.157
				l0.219-0.215l0.344-0.247l0.338-0.409l0.346-0.028l-0.19,0.438l-0.438,0.401l-0.493,0.528l-0.25,0.156l-0.062-0.123
				L167.885,21.854z M167.823,23.562c0,0,0.094-0.247,0.156-0.339c0.063-0.094,0.562-0.561,0.562-0.561l0.558-0.651
				c0,0,4.83-4.889,5.76-5.419c0,0-3.703,4.11-6.665,6.757l-0.118,0.185L167.823,23.562z M168.693,33.653l-0.463-0.871l-0.062-0.496
				l0.188,0.092l0.186,0.438l0.716,1.647L168.693,33.653z M169.568,32.753l-0.525-0.653l-0.502-0.594l-0.218-0.281l-0.062-0.219
				l-0.124-0.528l0.092-0.153l0.188,0.092l0.311,0.28l0.154,0.343l0.339,0.433l0.314,0.438l0.158,0.338l0.341,0.438l0.12,0.785
				L169.568,32.753z M170.972,30.011l-0.629-0.281l-0.525-0.215l-0.124-0.189l0.303-0.033l0.41,0.222l0.502,0.153l0.684,0.153
				l0.496,0.19l0.595,0.123l0.746,0.253l0.186,0.342L170.972,30.011z M172.437,24.965c-0.08,0.081-0.14,0.148-0.161,0.187
				C172.276,25.152,172.336,25.081,172.437,24.965z"/>
		</g>
	</g>
</g>
</svg>
