<svg xmlns="http://www.w3.org/2000/svg" viewBox="0 0 220 40" enable-background="new 0 0 220 40"><path fill="#fff" d="M28.8 37.55v-15.564c0-3.499-2.132-6.846-5.579-7.049-3.649-.154-6.336 2.635-6.336 7.049v15.613h-2.283v-16.018c0-3.552-2.788-6.694-6.337-6.644-3.499.152-5.731 3.55-5.731 7.049v15.564h-2.534v-15.821c0-4.713 3.347-8.972 8.063-9.175 3.345-.1 6.235 1.725 7.655 4.208 1.268-2.483 3.956-4.461 7.2-4.411 4.207.052 8.214 3.499 8.214 7.962v17.237h-2.332z"/><path fill="#fff" d="M43.522 37.649c-4.563 0-8.063-4.36-7.909-8.971.202-4.916 4.461-8.215 9.785-8.215h9.124c0-1.621-.505-2.839-1.671-3.953-1.013-.914-1.925-1.319-3.245-1.319h-11.712v-2.385h10.7c2.534 0 4.41.408 6.234 2.232 1.522 1.573 2.181 3.042 2.181 5.274v17.337h-13.487zm11.053-14.648h-9.735c-3.601 0-6.846 2.684-6.846 6.234 0 3.65 2.131 6.235 7.048 6.235h9.532v-12.469z"/><path fill="#fff" d="M75.679 37.55h-12.827v-2.28h13.131c3.449 0 6.238-2.89 6.238-6.341 0-3.6-3.042-6.391-6.642-6.391h-7.912c-2.687 0-4.815-2.429-4.714-5.169.049-2.687 2.434-4.714 5.121-4.714h14.096v2.233h-13.792c-1.622 0-3.143 1.115-3.143 2.737 0 1.926.911 2.534 4.258 2.534h5.883c5.425 0 9.024 3.603 9.227 8.466.202 4.818-4.057 8.925-8.924 8.925z"/><path fill="#fff" d="M107.586 37.501v-16.685c0-1.874-.558-3.396-1.929-4.411-1.672-1.163-3.091-1.265-5.12-1.265h-9.583v22.41h-2.637v-37.52h2.587v12.624h9.582c2.687 0 4.462.203 6.59 1.673 2.13 1.472 2.941 3.398 2.941 5.984v17.189h-2.431z"/><path fill="#fff" d="M139.49 38.107c-3.195.053-5.881-1.722-7.249-4.109-1.471 2.437-4.309 4.36-7.35 4.109-5.779-.405-8.367-4.665-8.367-9.632v-15.77h2.534v15.565c0 4.26 2.076 7.505 5.73 7.604 3.599 0 6.083-2.733 6.083-7.093v-16.076h2.532v15.565c0 4.921 2.386 7.604 6.187 7.604 3.248-.098 5.983-2.733 5.983-6.081v-17.088h2.534v16.835c.002 4.716-4.406 8.518-8.617 8.567z"/><path fill="#fff" d="M191.394 14.887c-1.469 0-2.736.405-3.752 1.317-1.617 1.319-2.128 2.89-2.128 4.969v16.377h-2.28v-17.544c0-2.179 1.066-3.954 2.23-5.17 1.265-1.319 3.348-2.131 5.73-2.131h3.243v2.183h-3.043z"/><path fill="#fff" d="M217.466 37.55l-11.764-16.835-4.918 2.385v14.45h-2.284v-37.369h2.284v20.231l15.007-7.607h4.209l-12.267 6.898 12.267 17.847h-2.534z"/><path fill="#AF2328" d="M177.225 30.614s.407-.206-.826-.619l-2.519-.884s5.459-.206 5.459-.619c0 0-.616-.272-2.73-.203h-4.101s-1.764-.714-2.917-1.368l.342-.368c-.149.14-.272.264-.354.361-.551-.314-.961-.614-.961-.813 0 0-.21-.248 1.462.3l-.147.152.159-.148c.624.205 1.502.517 2.759.997 0 0 1.847.818 2.254.338 0 0 .203-.475-1.097-.952l-3.1-1.083c1.191-.986 2.769-2.183 3.41-2.664-.654.536-1.527 1.516-1.883 1.925.999-1.011 6.256-5.011 6.256-5.011l.167-.629c.382-.322.645-.66.552-.941 0 0-.142-1.024-3.215.481 0 0 1.028-1.299.614-1.777 0 0-.545-.069-1.365.682 0 0-4.233 3.959-5.258 4.509 0 0 4.988-5.261 5.532-6.014 0 0 .477-.956-.544-.681 0 0-.142-.752-.826-.069 0 0-3.823 3.893-6.415 5.808l-.138-1.233h-.342l-.066-1.708s-.348-1.162-.412 0v3.009s-.958-1.027-.273-8.13c0 0 .064-1.231-.338-1.231 0 0-.414-.204-.48 2.801 0 0-.554-3.62-1.231-3.689 0 0-1.229-.341-1.028 1.162 0 0 .412 2.801.276 3.004 0 0-1.577-3.278-1.775-3.55 0 0-.891-1.023-.28.34 0 0 1.371 2.869 1.303 3.279 0 0-.614-.272-1.98-3.825 0 0-.414-.617-.826-.274 0 0-.338.205.346 1.707 0 0-.752-.137-.609.615h-.622s-.407-.134.412 1.094c0 0-.89-.068-.481.683 0 0 3.147 6.969 3.075 7.449l-5.602-2.599s-1.159-.409-.821.408c0 0-1.428-.749-1.293-.134 0 0-2.051-.615-1.778-.138 0 0-.408.479 1.163 1.505 0 0-.887.272 1.299 1.09 0 0 2.184.891 2.798 1.234 0 0 .545.612-3.481-.887 0 0-2.388-.619-2.868-.479 0 0-1.575-.549-1.643-.347 0 0-1.023.207 1.917.958 0 0-.414.48.957.822 0 0 3.55.821 4.711 1.639l-.072.408s-5.394-1.775-6.827-2.25c0 0-1.094.067.543.681 0 0 2.391.682 5.946 1.978l3.211 1.094-4.778 5.056.272.203 5.806-4.781s.749-.201-2.326 3.277c0 0-3.21 3.078-2.936 3.692l.272.339s-1.295 1.028-.891 1.507l-.473.68.473.55s.957-1.098 2.668-2.053c0 0-1.094 1.367-1.569 1.706 0 0-.819.821-.142 1.024 0 0 .343-.203 1.369-1.635 0 0 3.618-4.029 6.559-6.493 0 0 1.297-.617-5.537 6.08 0 0 4.166-3.892 6.834-6.967 0 0 .479-.133.479 1.094 0 0 .273 3.484.883 6.695 0 0 .48 2.049.755 2.184 0 0 .276 0-.07-6.011l2.32 4.237s.206.478.552.272c0 0 .134 0-.276-1.159 0 0-1.365-2.803-1.501-3.687 0 0 1.159.817 1.985 3.414 0 0 1.023 2.051 1.841 1.978 0 0 .202-.203.202-.953l.485-.137-3.419-7.105.282.52 3.333 6.173-3.001-6.077 3.275.887s-4.574-1.436-3.275-1.503c0 0 5.598 1.574 7.378 2.325 0 0 1.023-.207.886-1.094 0-.001.074-.343-2.114-1.434zm-16.343-12.387c-.047-.148-.091-.323-.124-.526l.48.617.139.681c.001 0-.296-.213-.495-.772zm.422-5.512l.412 1.161c-.678-.547-.412-1.161-.412-1.161zm-5.74 9.799l-.096-.065-.068-.158.19.028.154.129.216.089.251.034.31.157.282.124.247.152.344.187.591.408c-.989-.136-2.093-.854-2.421-1.085zm2.826-.009c-.188 0-.404.067-.404.067h-.53l-.124-.157s-.03-.096.062-.124l.276-.095.315.028.246.094.192.033c.001.002.156.154-.033.154zm2.68 6.073l-.561.401-.782.504 1.311-1.437.216.066.157-.157s.089 0 .119.091c.038.099-.46.532-.46.532zm-.905 5.573l-.062.124-.253.128-.246.248-.34.248-.155.157-.19.124-.248.28-.182.185-.162.129-.34.214.064-.091.09-.123.124-.129.092-.123.096-.129c.094-.124.218-.214.218-.214l.154-.157c.16-.157.16-.091.285-.157l.155-.153.308-.31.278-.253.221-.219.128.034-.035.187zm2.462-5.172l-.062.099-.098.157s-.184.249-.369.372c-.19.124-.13.186-.13.186l-.37.28s-.068.129-.152.154c-.099.033-.191.19-.191.19l-.062-.157.029-.091.092-.124.156-.157.128-.095.124-.186.124-.091c.122-.099.122-.161.122-.161l.16-.277.374-.251.214-.125-.089.277zm.278-4.136l-.091.099c-.154.058-.223.115-.313.115-.096 0-.188 0-.28-.09l-.094-.092-.369-.189c-.257-.181-.38-.215-.38-.215h-.124l-.092-.033c-.25-.032-.407-.158-.407-.158s-.063.033-.123-.061l-.062-.094-.283-.092-.154-.033-.371-.057-.343-.157-.218-.124-.216-.128s-.066-.029-.098-.12l-.029-.098h-.154l-.156-.186v-.153l.372.058.346.157h.155l.219.032h.124l.588.157.254.062.248.12.157.066c.214.034.338-.066.493.063l.159.123s.186.158.308.219l.13.058s.124-.025.338.099l.223.123s.154.157.178.249l.036.093s.125.092.029.187zm-1.395-7.007s.957 1.163 1.437 2.667c0 0-.408.135-1.437-2.667zm2.171 7.501c-.246.158-.278-.056-.278-.056l-.128.056-.216-.056v-.224h.47s.152-.028.152.129v.151zm1.86-7.224l-1.299-2.529s-.614-4.099-.139-4.031c0 0 .687-.956 1.23 1.915l.414 1.706s.14 2.324-.206 2.939zm5.023 15.73h.247l.161.404c.06.281.461.809.461.809l-.188-.063-.213-.127c-.091-.062-.123-.092-.221-.215-.093-.124-.093-.157-.154-.438-.064-.281-.216-.281-.188-.371l.095.001zm6.131-5.326l.156.094s-.124.121-.218.121l-.344-.03h-.308c-.092 0-.216-.062-.344 0-.124.063-.339.063-.461.063l-.346-.033-.216-.03h-1.093l3.174-.185zm-7.283-4.574l-.369.123-.288.339-.213.124.09-.338s.312-.404.468-.438c.099-.021.149 0 .194.025l.088.036c.093.028.03.129.03.129zm1.403 1.729l-1.107-.387s.204-1.433 7.236-4.778c-3.03 2.313-4.982 4.058-6.129 5.165zm7.842-7.081s.066.136-1.501.818l-1.571.683.612-.818c0-.001 1.985-1.027 2.46-.683zm-7.685 3.7l5.35-4.702-.278.435-.936.996-1.868 1.62-3.36 2.865-.154-.092 1.246-1.122zm-3.087-.437l.157-.157.219-.215.344-.247.338-.409.346-.028-.19.438-.438.401-.493.528-.25.156-.062-.123.029-.344zm-.062 1.708s.094-.247.156-.339c.063-.094.562-.561.562-.561l.558-.651s4.83-4.889 5.76-5.419c0 0-3.703 4.11-6.665 6.757l-.118.185-.253.028zm.87 10.091l-.463-.871-.062-.496.188.092.186.438.716 1.647-.565-.81zm.875-.9l-.525-.653-.502-.594-.218-.281-.062-.219-.124-.528.092-.153.188.092.311.28.154.343.339.433.314.438.158.338.341.438.12.785-.586-.719zm1.404-2.742l-.629-.281-.525-.215-.124-.189.303-.033.41.222.502.153.684.153.496.19.595.123.746.253.186.342-2.644-.718zm1.465-5.046l-.161.187.161-.187z"/></svg>