<?xml version="1.0" encoding="utf-8"?>
<!-- Generator: Adobe Illustrator 17.1.0, SVG Export Plug-In . SVG Version: 6.00 Build 0)  -->
<!DOCTYPE svg PUBLIC "-//W3C//DTD SVG 1.1//EN" "http://www.w3.org/Graphics/SVG/1.1/DTD/svg11.dtd">
<svg version="1.1" id="Layer_1" xmlns="http://www.w3.org/2000/svg" xmlns:xlink="http://www.w3.org/1999/xlink" x="0px" y="0px"
	 viewBox="0 1200 500 100" enable-background="new 0 1200 500 100" xml:space="preserve">
<g>
	<path fill="#FFFFFF" d="M65.4,1289.9v-35.5c0-8-4.8-15.6-12.7-16.1c-8.4-0.3-14.4,6-14.4,16.1v35.5h-5.2v-36.3
		c0-8-6.4-15.2-14.4-15.1c-8,0.3-13,8-13,16.1v35.3H0v-36c0-10.7,7.5-20.4,18.4-20.9c7.5-0.2,14.2,3.8,17.4,9.5
		c2.8-5.7,9-10.2,16.4-10c9.5,0.2,18.7,8,18.7,18.1v39.3H65.4z"/>
	<path fill="#FFFFFF" d="M99,1290.1c-10.4,0-18.4-9.9-17.9-20.4c0.5-11.2,10.2-18.7,22.2-18.7h20.7c0-3.7-1.2-6.5-3.8-9
		c-2.3-2-4.3-3-7.4-3H86.1v-5.4h24.2c5.7,0,10,1,14.2,5c3.5,3.5,5,6.9,5,12v39.5H99z M124.1,1256.8h-22.2c-8.2,0-15.6,6-15.6,14.2
		c0,8.4,4.8,14.2,16.1,14.2h21.7L124.1,1256.8L124.1,1256.8z"/>
	<path fill="#FFFFFF" d="M172.1,1289.9h-29.3v-5.2h29.8c7.9,0,14.2-6.5,14.2-14.4c0-8.2-6.9-14.5-15.1-14.5h-17.9
		c-6.2,0-10.9-5.5-10.7-11.7c0.2-6.2,5.5-10.7,11.7-10.7H187v5h-31.6c-3.7,0-7.2,2.5-7.2,6.2c0,4.3,2,5.7,9.7,5.7h13.4
		c12.4,0,20.6,8.2,20.9,19.2C192.8,1280.5,183.1,1289.9,172.1,1289.9z"/>
	<path fill="#FFFFFF" d="M244.5,1289.7v-38c0-4.2-1.3-7.7-4.3-10c-3.8-2.7-7-2.8-11.7-2.8h-21.7v51h-6v-85.3h5.9v28.8h21.7
		c6.2,0,10.2,0.5,15.1,3.8s6.7,7.7,6.7,13.5v39.1h-5.5V1289.7z"/>
	<path fill="#FFFFFF" d="M317.1,1291.2c-7.2,0.2-13.4-3.8-16.6-9.4c-3.3,5.5-9.9,9.9-16.7,9.4c-13.2-1-19.1-10.5-19.1-21.9v-36h5.7
		v35.5c0,9.7,4.7,17.1,13,17.2c8.2,0,13.9-6.2,13.9-16.1v-36.6h5.7v35.5c0,11.2,5.4,17.2,14,17.2c7.4-0.2,13.5-6.2,13.5-13.9v-38.8
		h5.7v38.3C336.6,1282.4,326.6,1291.1,317.1,1291.2z"/>
	<path fill="#FFFFFF" d="M434.9,1238.4c-3.3,0-6.2,0.8-8.5,3c-3.7,3-4.8,6.5-4.8,11.4v37.1h-5.2v-40c0-5,2.3-9,5-11.7
		c2.8-3,7.5-4.8,13-4.8h7.4v5H434.9z"/>
	<path fill="#FFFFFF" d="M494.3,1289.9l-26.8-38.3l-11.2,5.4v32.9h-5.2v-84.9h5.2v46l34.1-17.2h9.5l-27.9,15.7l27.9,40.5H494.3z"/>
	<g>
		<g>
			<path fill="#AF2328" d="M402.8,1274.2c0,0,1-0.5-1.8-1.3l-5.7-2c0,0,12.4-0.5,12.4-1.3c0,0-1.3-0.7-6.2-0.5h-9.4
				c0,0-4-1.7-6.7-3.2c0.2-0.2,0.5-0.5,0.8-0.8c-0.3,0.3-0.7,0.7-0.8,0.8c-1.2-0.7-2.2-1.3-2.2-1.8c0,0-0.5-0.5,3.3,0.7
				c-0.2,0.2-0.2,0.2-0.3,0.3c0.2-0.2,0.2-0.2,0.3-0.3c1.3,0.5,3.3,1.2,6.4,2.3c0,0,4.2,1.8,5.2,0.8c0,0,0.5-1-2.5-2.2l-7-2.5
				c2.7-2.2,6.4-5,7.7-6c-1.5,1.2-3.5,3.5-4.3,4.3c2.3-2.3,14.2-11.4,14.2-11.4l0.3-1.5c0.8-0.7,1.5-1.5,1.3-2.2
				c0,0-0.3-2.3-7.4,1.2c0,0,2.3-3,1.3-4c0,0-1.2-0.2-3.2,1.5c0,0-9.7,9-11.9,10.2c0,0,11.4-11.9,12.5-13.7c0,0,1-2.2-1.2-1.5
				c0,0-0.3-1.7-1.8-0.2c0,0-8.7,8.9-14.5,13.2l-0.3-2.8h-0.8l-0.2-3.8c0,0-0.8-2.7-1,0v6.7c0,0-2.2-2.3-0.7-18.4
				c0,0,0.2-2.8-0.8-2.8c0,0-1-0.5-1.2,6.4c0,0-1.3-8.2-2.8-8.4c0,0-2.8-0.8-2.3,2.7c0,0,1,6.4,0.7,6.9c0,0-3.5-7.5-4-8
				c0,0-2-2.3-0.7,0.8c0,0,3.2,6.5,3,7.5c0,0-1.3-0.7-4.5-8.7c0,0-1-1.3-1.8-0.7c0,0-0.8,0.5,0.8,3.8c0,0-1.7-0.3-1.3,1.3h-1.3
				c0,0-1-0.3,1,2.5c0,0-2-0.2-1.2,1.5c0,0,7.2,15.9,7,16.9l-12.7-5.9c0,0-2.7-1-1.8,1c0,0-3.2-1.7-3-0.3c0,0-4.7-1.3-4-0.3
				c0,0-1,1.2,2.7,3.3c0,0-2,0.7,3,2.5c0,0,5,2,6.4,2.8c0,0,1.2,1.3-7.9-2c0,0-5.4-1.3-6.5-1.2c0,0-3.5-1.2-3.7-0.8
				c0,0-2.3,0.5,4.3,2.2c0,0-1,1.2,2.2,1.8c0,0,8,1.8,10.7,3.7l-0.2,1c0,0-12.2-4-15.6-5.2c0,0-2.5,0.2,1.2,1.5
				c0,0,5.4,1.5,13.5,4.5l7.4,2.5l-10.9,11.5l0.7,0.5l13.2-10.9c0,0,1.7-0.5-5.4,7.5c0,0-7.4,7-6.7,8.4l0.7,0.8c0,0-3,2.3-2,3.3
				l-1,1.5l1,1.2c0,0,2.2-2.5,6-4.7c0,0-2.5,3.2-3.5,3.8c0,0-1.8,1.8-0.3,2.3c0,0,0.8-0.5,3.2-3.7c0,0,8.2-9.2,14.9-14.7
				c0,0,3-1.3-12.5,13.9c0,0,9.5-8.9,15.6-15.9c0,0,1.2-0.3,1.2,2.5c0,0,0.7,7.9,2,15.2c0,0,1.2,4.7,1.7,5c0,0,0.7,0-0.2-13.7
				l5.4,9.7c0,0,0.5,1,1.3,0.7c0,0,0.3,0-0.7-2.7c0,0-3.2-6.4-3.3-8.4c0,0,2.7,1.8,4.5,7.7c0,0,2.3,4.7,4.2,4.5c0,0,0.5-0.5,0.5-2.2
				l1.2-0.3l-7.7-16.2l0.7,1.2l7.5,14l-6.9-13.9l7.5,2c0,0-10.4-3.3-7.5-3.3c0,0,12.7,3.5,16.7,5.4c0,0,2.3-0.5,2-2.5
				C407.5,1277.3,407.7,1276.5,402.8,1274.2z M365.7,1245.9c-0.2-0.3-0.2-0.7-0.3-1.2l1.2,1.3l0.3,1.5
				C366.7,1247.7,366.1,1247.2,365.7,1245.9z M366.6,1233.4l1,2.7C366.1,1234.9,366.6,1233.4,366.6,1233.4z M353.5,1255.8
				c-0.2-0.2-0.2-0.2-0.2-0.2l-0.2-0.3h0.5l0.3,0.3l0.5,0.2h0.5l0.7,0.3l0.7,0.3l0.5,0.3l0.8,0.5l1.3,1
				C356.9,1257.8,354.3,1256.3,353.5,1255.8z M360,1255.6c-0.5,0-0.8,0.2-0.8,0.2h-1.3l-0.3-0.3c0,0,0-0.2,0.2-0.3
				c0.2,0,0.7-0.2,0.7-0.2h0.7l0.5,0.2h0.5C360,1255.3,360.4,1255.6,360,1255.6z M366.1,1269.5l-1.3,0.8l-1.8,1.2l3-3.3l0.5,0.2
				l0.3-0.3c0,0,0.2,0,0.3,0.2C367.2,1268.5,366.1,1269.5,366.1,1269.5z M364,1282.2l-0.2,0.3l-0.5,0.3l-0.5,0.5l-0.8,0.5l-0.3,0.3
				l-0.5,0.3l-0.5,0.7l-0.3,0.5l-0.3,0.3l-0.8,0.5c0,0,0,0,0.2-0.2s0.2-0.3,0.2-0.3s0,0,0.3-0.3c0.3-0.3,0,0,0.2-0.3s0,0,0.2-0.3
				s0.5-0.5,0.5-0.5s0,0,0.3-0.3c0.3-0.3,0.3-0.2,0.7-0.3s0,0,0.3-0.3s0.7-0.7,0.7-0.7l0.7-0.5l0.5-0.5h0.3L364,1282.2z
				 M369.6,1270.3c0,0,0,0-0.2,0.2s-0.2,0.3-0.2,0.3s-0.3,0.5-0.8,0.8s-0.3,0.5-0.3,0.5l-0.8,0.7c0,0-0.2,0.3-0.3,0.3
				c-0.2,0-0.5,0.5-0.5,0.5l-0.2-0.3c0,0,0,0,0-0.2s0.2-0.3,0.2-0.3l0.3-0.3c0,0,0,0,0.3-0.2c0.3-0.2,0,0,0.3-0.5s0,0,0.3-0.2
				s0.3-0.3,0.3-0.3l0.3-0.7l0.8-0.5l0.5-0.3L369.6,1270.3z M370.2,1261c-0.2,0.2,0.2,0-0.2,0.2c-0.3,0.2-0.5,0.3-0.7,0.3
				c-0.2,0-0.5,0-0.7-0.2c-0.2-0.2-0.2-0.2-0.2-0.2l-0.8-0.5c-0.5-0.3-0.8-0.5-0.8-0.5s0,0-0.3,0c-0.2,0,0.3,0-0.2,0s-1-0.3-1-0.3
				s-0.2,0-0.3-0.2c-0.2-0.2-0.2-0.2-0.2-0.2l-0.7-0.2h-0.3l-0.8-0.2l-0.8-0.3l-0.5-0.3l-0.5-0.3c0,0-0.2,0-0.2-0.3
				c0-0.2,0.3-0.2,0-0.2s-0.3,0-0.3,0l-0.3-0.5v-0.3l0.8,0.2l0.8,0.3h0.3c0,0,0.2,0,0.5,0s0.3,0,0.3,0l1.3,0.3l0.5,0.2
				c0,0,0.2,0.2,0.5,0.3s-0.2,0,0.3,0.2c0.5,0,0.8-0.2,1.2,0.2s0.3,0.3,0.3,0.3s0.5,0.3,0.7,0.5c0.3,0.2,0.3,0.2,0.3,0.2
				s0.3,0,0.8,0.2c0.5,0.3,0.5,0.3,0.5,0.3s0.3,0.3,0.3,0.5s0,0.2,0,0.2S370.4,1260.8,370.2,1261z M367.1,1245.1c0,0,2.2,2.7,3.3,6
				C370.4,1251.1,369.4,1251.4,367.1,1245.1z M372.1,1262.1c-0.5,0.3-0.7-0.2-0.7-0.2l-0.3,0.2l-0.5-0.2v-0.5h0.5c0,0,0.2,0,0.5,0
				c0.2,0,0.2,0,0.2,0s0.3,0,0.3,0.3C372.1,1262.1,372.6,1261.8,372.1,1262.1z M376.3,1245.7l-3-5.7c0,0-1.3-9.4-0.3-9.2
				c0,0,1.5-2.2,2.8,4.3l1,3.8C376.8,1239,377.1,1244.2,376.3,1245.7z M387.6,1281.5c0.2,0,0.5,0,0.5,0l0.3,0.8c0.2,0.7,1,1.8,1,1.8
				l-0.5-0.2c0,0-0.3-0.2-0.5-0.3s-0.3-0.2-0.5-0.5s-0.2-0.3-0.3-1c-0.2-0.7-0.5-0.7-0.5-0.8
				C387.5,1281.2,387.5,1281.5,387.6,1281.5z M401.5,1269.3l0.3,0.2c0,0-0.3,0.3-0.5,0.3s-0.3,0-0.8,0h-0.7c-0.2,0-0.5-0.2-0.8,0
				s-0.8,0.2-1,0.2c-0.3,0-0.8,0-0.8,0s-0.3,0-0.5,0s-0.7,0-0.7,0h-1.8L401.5,1269.3z M384.9,1258.9l-0.8,0.3l-0.7,0.8l-0.5,0.3
				l0.2-0.8c0,0,0.7-0.8,1-1c0.2,0,0.3,0,0.5,0h0.2C385.1,1258.8,384.9,1258.9,384.9,1258.9z M388.3,1262.8l-2.5-0.8
				c0,0,0.5-3.2,16.4-10.9C395.3,1256.4,390.8,1260.3,388.3,1262.8z M406,1246.7c0,0,0.2,0.3-3.3,1.8l-3.5,1.5l1.3-1.8
				C400.5,1248.4,405,1246.1,406,1246.7z M388.6,1255.3l12.2-10.7l-0.7,1l-2.2,2.3l-4.2,3.7l-7.7,6.5l-0.3-0.2L388.6,1255.3z
				 M381.6,1254.3l0.3-0.3l0.5-0.5l0.8-0.5l0.8-1h0.8l-0.5,1l-1,0.8l-1.2,1.2l-0.5,0.3l-0.2-0.3L381.6,1254.3z M381.4,1258.1
				c0,0,0.2-0.5,0.3-0.8c0.2-0.2,1.3-1.3,1.3-1.3l1.3-1.5c0,0,11-11,13-12.4c0,0-8.4,9.4-15.2,15.4l-0.3,0.5L381.4,1258.1z
				 M383.4,1281l-1-2l-0.2-1.2l0.5,0.2l0.5,1l1.7,3.7L383.4,1281z M385.5,1279l-1.2-1.5l-1.2-1.3l-0.5-0.7l-0.2-0.5l-0.3-1.2
				l0.2-0.3l0.5,0.2l0.7,0.7l0.3,0.8l0.8,1l0.7,1l0.3,0.8l0.8,1l0.3,1.8L385.5,1279z M388.6,1272.7l-1.5-0.7l-1.2-0.5l-0.3-0.5h0.7
				l1,0.5l1.2,0.3l1.5,0.3l1.2,0.5l1.3,0.3l1.7,0.5l0.5,0.8L388.6,1272.7z M392,1261.3c-0.2,0.2-0.3,0.3-0.3,0.5
				C391.5,1261.6,391.6,1261.5,392,1261.3z"/>
		</g>
	</g>
</g>
</svg>
