<?xml version="1.0" encoding="utf-8"?>
<!-- Generator: Adobe Illustrator 18.0.0, SVG Export Plug-In . SVG Version: 6.00 Build 0)  -->
<!DOCTYPE svg PUBLIC "-//W3C//DTD SVG 1.1//EN" "http://www.w3.org/Graphics/SVG/1.1/DTD/svg11.dtd">
<svg version="1.1" id="Layer_1" xmlns="http://www.w3.org/2000/svg" xmlns:xlink="http://www.w3.org/1999/xlink" x="0px" y="0px"
	 viewBox="0 0 300 85" enable-background="new 0 0 300 85" xml:space="preserve">
<g>
	<path d="M0,78.233"/>
	<path d="M291.356,25.567l-0.409,1.841l-3.783,1.022c-0.841,0.227-1.642,1.019-2.046,1.534l-17.179,21.885l-6.444,21.476
		c-0.337,1.121,0.107,1.764,0.818,1.943l4.5,1.124l-0.613,1.841h-22.499l0.613-1.841l4.193-1.022
		c1.135-0.277,1.753-0.926,2.147-2.25l6.443-21.682l-5.625-21.168c-0.269-1.013-0.541-1.854-1.635-2.148l-2.659-0.716l0.408-1.841
		h19.227l-0.409,1.841l-3.272,0.92c-1.146,0.322-1.413,0.911-1.125,2.045l4.602,17.998l13.703-18.202
		c0.258-0.343,0.411-0.716,0.411-1.023c0-0.406-0.341-0.699-0.82-0.818l-3.681-0.92l0.512-1.841H291.356z"/>
	<path d="M246.564,37.531h-2.556l-2.25-6.851c-0.413-1.26-1.024-1.635-2.25-1.635h-5.625L220.69,73.325
		c-0.334,1.119-0.008,1.758,1.022,2.045l3.681,1.022l-0.613,1.841h-21.987l0.613-1.841l3.885-0.92
		c1.724-0.408,2.107-0.938,2.558-2.455l13.09-43.973h-6.546c-1.015,0-1.814,0.653-2.454,1.533l-4.602,6.34h-2.556l4.09-12.68h1.635
		c0.408,0.915,1.031,1.33,1.943,1.33h27.51c1.534,0,2.046-0.409,2.659-1.33h1.739L246.564,37.531z"/>
	<path d="M205.761,36.917h-2.558l-2.455-6.544c-0.372-0.996-1.128-1.329-2.045-1.329h-10.431l-5.931,20.043h9.921
		c1.021,0,1.637-0.503,2.351-1.534l2.76-3.989h2.558l-4.705,15.954h-2.556l0.103-5.624c0.018-1.017-0.613-1.329-1.637-1.329h-9.818
		l-6.544,22.09h14.419c1.932,0,2.67-0.37,3.683-1.637l5.726-7.158h2.762l-5.83,13.806h-1.839c-0.512-1.022-1.239-1.431-3.07-1.431
		h-33.032l0.614-1.841l3.988-1.022c1.028-0.264,1.655-0.926,2.046-2.25l12.681-42.849c0.244-0.826-0.031-1.556-0.613-1.739
		l-3.579-1.125l0.51-1.841h28.533c0.965,0,1.738-0.409,2.25-1.33h1.637L205.761,36.917z"/>
	<path d="M290.844,11.76c-23.934,5.456-53.356,8.284-78.336,8.284c-62.381,0-106.151-8.488-124.661-12.885L9.818,80.994
		l-6.341,0.818l22.908-69.745c-3.649,1.927-15.951,5.114-21.578,5.523c-1.792,0.13-1.829-0.857-1.022-1.329
		c5.419-3.171,7.999-5.68,10.431-11.864c11.253,2.737,19.738,0.613,29.964-3.17L23.418,59.928L78.643,0
		c35.178,7.505,72.643,10.636,101.449,10.636c26.865,0,50.479-4.232,62.586-9.204c17.068,10.166,36.608,9.298,47.759,8.59
		C292.058,9.919,292.261,11.438,290.844,11.76z"/>
	<path d="M170.683,25.567l-0.512,1.841l-4.296,1.227c-0.828,0.236-1.232,0.726-1.534,1.739L151.66,72.915
		c-0.377,1.271-0.663,2.082,0.921,2.557l3.067,0.92l-0.613,1.841h-20.35l0.613-1.841l2.966-0.92
		c1.653-0.514,2.163-1.119,2.556-2.455L153.4,30.271c0.262-0.89-0.075-1.526-0.716-1.739l-3.375-1.125l0.511-1.841H170.683z"/>
	<path d="M140.309,38.554c0,7.999-6.343,14.933-16.669,14.522c-1.787-0.07-4.305-0.411-5.931-0.921
		c0,9.776,3.001,19.738,8.794,19.738c3.579,0,4.636-2.998,5.113-5.522c0.079-0.411,0.414-0.713,0.921-0.205
		c1.373,1.373,2.556,3.283,2.556,6.136c0,6.003-3.79,8.693-9.511,8.693c-14.496,0-15.151-20.844-12.782-33.646
		c0.13-0.705,0.411-0.816,0.92-0.512c1.846,1.109,3.975,1.739,6.954,1.739c4.688,0,9.101-3.722,9.101-10.431
		c0-6.707-5.571-10.84-13.805-10.84l-13.601,45.816c-0.134,0.449-0.205,0.82-0.205,1.124c0,0.608,0.243,0.947,0.92,1.126
		l3.887,1.022l-0.614,1.841H86.006l0.614-1.841l3.068-0.92c0.942-0.283,1.396-0.841,1.841-2.352l13.499-45.816
		c-5.851,1.238-8.693,3.396-8.693,6.75c0,1.931,0.436,2.843,1.023,3.68c0.223,0.321,0.312,0.68,0.307,1.023
		c-0.014,0.755-0.658,1.431-2.557,1.431c-3.049,0-5.829-1.738-5.829-6.032c0-2.54,1.565-11.147,23.93-11.147
		C132.143,23.01,140.309,29.101,140.309,38.554z"/>
	<path d="M85.495,76.392l-0.614,1.841H65.655l0.613-1.841l3.375-0.92c0.958-0.261,1.432-0.933,1.534-2.045l0.818-8.898H50.417
		l-7.055,8.592c-0.457,0.555-0.716,0.983-0.716,1.329c0,0.449,0.244,0.742,0.818,0.921l3.272,1.022l-0.613,1.841H29.964l0.716-1.841
		l3.375-0.818c1.184-0.287,2.367-1.184,3.273-2.249l43.668-51.338l4.5-0.818l-4.193,52.36c-0.089,1.117,0.067,1.832,1.33,2.147
		L85.495,76.392z M74.655,34.873L53.69,60.746h18.612L74.655,34.873z"/>
	<path d="M300,78.233"/>
</g>
</svg>
