<svg xmlns="http://www.w3.org/2000/svg" viewBox="0 0 300 85" enable-background="new 0 0 300 85"><path d="M0 78.233"/><path d="M291.356 25.567l-.409 1.841-3.783 1.022c-.841.227-1.642 1.019-2.046 1.534l-17.179 21.885-6.444 21.476c-.337 1.121.107 1.764.818 1.943l4.5 1.124-.613 1.841h-22.499l.613-1.841 4.193-1.022c1.135-.277 1.753-.926 2.147-2.25l6.443-21.682-5.625-21.168c-.269-1.013-.541-1.854-1.635-2.148l-2.659-.716.408-1.841h19.227l-.409 1.841-3.272.92c-1.146.322-1.413.911-1.125 2.045l4.602 17.998 13.703-18.202c.258-.343.411-.716.411-1.023 0-.406-.341-.699-.82-.818l-3.681-.92.512-1.841h14.622zM246.564 37.531h-2.556l-2.25-6.851c-.413-1.26-1.024-1.635-2.25-1.635h-5.625l-13.193 44.28c-.334 1.119-.008 1.758 1.022 2.045l3.681 1.022-.613 1.841h-21.987l.613-1.841 3.885-.92c1.724-.408 2.107-.938 2.558-2.455l13.09-43.973h-6.546c-1.015 0-1.814.653-2.454 1.533l-4.602 6.34h-2.556l4.09-12.68h1.635c.408.915 1.031 1.33 1.943 1.33h27.51c1.534 0 2.046-.409 2.659-1.33h1.739l.207 13.294zM205.761 36.917h-2.558l-2.455-6.544c-.372-.996-1.128-1.329-2.045-1.329h-10.431l-5.931 20.043h9.921c1.021 0 1.637-.503 2.351-1.534l2.76-3.989h2.558l-4.705 15.954h-2.556l.103-5.624c.018-1.017-.613-1.329-1.637-1.329h-9.818l-6.544 22.09h14.419c1.932 0 2.67-.37 3.683-1.637l5.726-7.158h2.762l-5.83 13.806h-1.839c-.512-1.022-1.239-1.431-3.07-1.431h-33.032l.614-1.841 3.988-1.022c1.028-.264 1.655-.926 2.046-2.25l12.681-42.849c.244-.826-.031-1.556-.613-1.739l-3.579-1.125.51-1.841h28.533c.965 0 1.738-.409 2.25-1.33h1.637l.101 12.679zM290.844 11.76c-23.934 5.456-53.356 8.284-78.336 8.284-62.381 0-106.151-8.488-124.661-12.885l-78.029 73.835-6.341.818 22.908-69.745c-3.649 1.927-15.951 5.114-21.578 5.523-1.792.13-1.829-.857-1.022-1.329 5.419-3.171 7.999-5.68 10.431-11.864 11.253 2.737 19.738.613 29.964-3.17l-20.762 58.701 55.225-59.928c35.178 7.505 72.643 10.636 101.449 10.636 26.865 0 50.479-4.232 62.586-9.204 17.068 10.166 36.608 9.298 47.759 8.59 1.621-.103 1.824 1.416.407 1.738zM170.683 25.567l-.512 1.841-4.296 1.227c-.828.236-1.232.726-1.534 1.739l-12.681 42.541c-.377 1.271-.663 2.082.921 2.557l3.067.92-.613 1.841h-20.35l.613-1.841 2.966-.92c1.653-.514 2.163-1.119 2.556-2.455l12.58-42.746c.262-.89-.075-1.526-.716-1.739l-3.375-1.125.511-1.841h20.863zM140.309 38.554c0 7.999-6.343 14.933-16.669 14.522-1.787-.07-4.305-.411-5.931-.921 0 9.776 3.001 19.738 8.794 19.738 3.579 0 4.636-2.998 5.113-5.522.079-.411.414-.713.921-.205 1.373 1.373 2.556 3.283 2.556 6.136 0 6.003-3.79 8.693-9.511 8.693-14.496 0-15.151-20.844-12.782-33.646.13-.705.411-.816.92-.512 1.846 1.109 3.975 1.739 6.954 1.739 4.688 0 9.101-3.722 9.101-10.431 0-6.707-5.571-10.84-13.805-10.84l-13.601 45.816c-.134.449-.205.82-.205 1.124 0 .608.243.947.92 1.126l3.887 1.022-.614 1.841h-20.351l.614-1.841 3.068-.92c.942-.283 1.396-.841 1.841-2.352l13.499-45.816c-5.851 1.238-8.693 3.396-8.693 6.75 0 1.931.436 2.843 1.023 3.68.223.321.312.68.307 1.023-.014.755-.658 1.431-2.557 1.431-3.049 0-5.829-1.738-5.829-6.032 0-2.54 1.565-11.147 23.93-11.147 18.934 0 27.1 6.091 27.1 15.544zM85.495 76.392l-.614 1.841h-19.226l.613-1.841 3.375-.92c.958-.261 1.432-.933 1.534-2.045l.818-8.898h-21.578l-7.055 8.592c-.457.555-.716.983-.716 1.329 0 .449.244.742.818.921l3.272 1.022-.613 1.841h-16.159l.716-1.841 3.375-.818c1.184-.287 2.367-1.184 3.273-2.249l43.668-51.338 4.5-.818-4.193 52.36c-.089 1.117.067 1.832 1.33 2.147l2.862.715zm-10.84-41.519l-20.965 25.873h18.612l2.353-25.873zM300 78.233"/></svg>