<svg xmlns="http://www.w3.org/2000/svg" viewBox="0 0 240 50" enable-background="new 0 0 240 50"><path d="M225 20.44v8.53s-.15 6.47-5.15 6.47h-10.44v-22.06h10s5.59-.44 5.59 7.06zM191.91 0v48.97h48.09v-48.97h-48.09zm28.24 41.18c-12.06 0-17.5.14-17.5.14v-33.38h14.26s14.71-1.62 14.71 11.62v9.26s.59 12.36-11.47 12.36zM127.94 17.5c0 4.12-1.03 5-5.15 5-4.11 0-9.11.15-9.11.15v-9.12h9.26s5-.74 5 3.97zM96.18 0v48.97h48.08v-48.97h-48.08zm38.38 32.94v7.65h-6.62v-7.21s0-5.59-3.82-5.59c-3.83 0-10.44.15-10.44.15v12.8h-6.47v-32.95h19.11s8.24-.44 8.24 8.53c0 8.97-5 9.42-5 9.42s5 .29 5 7.2zM0 0v48.97h48.09v-48.97h-48.09zm38.24 40.88h-8.24l-5.29-23.97-5.74 24.12h-8.09l-6.76-33.09h6.62l4.55 25.15 5.89-25.15 7.2.15 5.89 25.44 4.41-25.59h6.32l-6.76 32.94zM84.339 13.309v-5.588h-23.236v5.588h8.089v22.06h-8.089v5.588h23.236v-5.588h-8.824v-22.06h8.824z"/><polygon points="153.088,7.794 153.088,13.235 157.647,13.235 157.647,35.441 153.088,35.441 153.088,40.882 181.177,40.882 181.177,30.147 175.588,30.147 175.588,35.441 163.676,35.441 163.676,26.471 172.5,26.471 172.5,21.029 163.676,21.029 163.676,13.235 175.147,13.235 175.147,18.529 181.177,18.529 181.177,7.794"/></svg>