<?xml version="1.0" encoding="utf-8"?>
<!-- Generator: Adobe Illustrator 18.0.0, SVG Export Plug-In . SVG Version: 6.00 Build 0)  -->
<!DOCTYPE svg PUBLIC "-//W3C//DTD SVG 1.1//EN" "http://www.w3.org/Graphics/SVG/1.1/DTD/svg11.dtd">
<svg version="1.1" id="Layer_1" xmlns="http://www.w3.org/2000/svg" xmlns:xlink="http://www.w3.org/1999/xlink" x="0px" y="0px"
	 viewBox="0 0 240 50" enable-background="new 0 0 240 50" xml:space="preserve">
<g>
	<path d="M225,20.44c0,7.5,0,8.53,0,8.53s-0.15,6.47-5.15,6.47s-10.44,0-10.44,0V13.38h10C219.41,13.38,225,12.94,225,20.44z"/>
	<path d="M191.91,0v48.97H240V0H191.91z M220.15,41.18c-12.06,0-17.5,0.14-17.5,0.14V7.94h14.26c0,0,14.71-1.62,14.71,11.62v9.26
		C231.62,28.82,232.21,41.18,220.15,41.18z"/>
	<path d="M127.94,17.5c0,4.12-1.03,5-5.15,5c-4.11,0-9.11,0.15-9.11,0.15v-9.12h9.26C122.94,13.53,127.94,12.79,127.94,17.5z"/>
	<path d="M96.18,0v48.97h48.08V0H96.18z M134.56,32.94c0,6.91,0,7.65,0,7.65h-6.62v-7.21c0,0,0-5.59-3.82-5.59
		c-3.83,0-10.44,0.15-10.44,0.15v12.8h-6.47V7.79h19.11c0,0,8.24-0.44,8.24,8.53c0,8.97-5,9.42-5,9.42S134.56,26.03,134.56,32.94z"
		/>
	<path d="M0,0v48.97h48.09V0H0z M38.24,40.88H30l-5.29-23.97l-5.74,24.12h-8.09L4.12,7.94h6.62l4.55,25.15l5.89-25.15l7.2,0.15
		l5.89,25.44l4.41-25.59H45L38.24,40.88z"/>
	<path d="M84.339,13.309V7.721H61.103v5.588c0,0,7.671,0,8.089,0v22.06c-0.418,0-8.089,0-8.089,0v5.588h23.236v-5.588
		c0,0-8.405,0-8.824,0v-22.06C75.934,13.309,84.339,13.309,84.339,13.309z"/>
	<polygon points="153.088,7.794 153.088,13.235 157.647,13.235 157.647,35.441 153.088,35.441 153.088,40.882 181.177,40.882 
		181.177,30.147 175.588,30.147 175.588,35.441 163.676,35.441 163.676,26.471 172.5,26.471 172.5,21.029 163.676,21.029 
		163.676,13.235 175.147,13.235 175.147,18.529 181.177,18.529 181.177,7.794 	"/>
</g>
</svg>
