<?xml version="1.0" encoding="utf-8"?>
<!-- Generator: Adobe Illustrator 18.1.0, SVG Export Plug-In . SVG Version: 6.00 Build 0)  -->
<!DOCTYPE svg PUBLIC "-//W3C//DTD SVG 1.1//EN" "http://www.w3.org/Graphics/SVG/1.1/DTD/svg11.dtd">
<svg version="1.1"
	 id="svg6895" inkscape:output_extension="org.inkscape.output.svg.inkscape" sodipodi:version="0.32" inkscape:version="0.46" sodipodi:docname="The Wall Street Journal Logo.svg" xmlns:cc="http://creativecommons.org/ns#" xmlns:sodipodi="http://sodipodi.sourceforge.net/DTD/sodipodi-0.dtd" xmlns:dc="http://purl.org/dc/elements/1.1/" xmlns:inkscape="http://www.inkscape.org/namespaces/inkscape" xmlns:rdf="http://www.w3.org/1999/02/22-rdf-syntax-ns#" xmlns:svg="http://www.w3.org/2000/svg"
	 xmlns="http://www.w3.org/2000/svg" xmlns:xlink="http://www.w3.org/1999/xlink" x="0px" y="0px" viewBox="-99.5 -186 300 25.5"
	 enable-background="new -99.5 -186 300 25.5" xml:space="preserve">
<defs>
	
	
		<inkscape:perspective  inkscape:persp3d-origin="372.04724 : 350.78739 : 1" id="perspective6903" inkscape:vp_y="0 : 1000 : 0" inkscape:vp_z="744.09448 : 526.18109 : 1" inkscape:vp_x="0 : 526.18109 : 1" sodipodi:type="inkscape:persp3d">
		</inkscape:perspective>
</defs>
<sodipodi:namedview  inkscape:window-width="1280" inkscape:window-height="750" inkscape:current-layer="layer1" inkscape:window-y="-8" inkscape:window-x="-8" inkscape:pageshadow="2" inkscape:document-units="px" inkscape:pageopacity="0.0" id="base" inkscape:zoom="3.959798" bordercolor="#666666" inkscape:cy="10.749328" gridtolerance="10000" inkscape:cx="156.09352" borderopacity="1.0" pagecolor="#ffffff" guidetolerance="10" showgrid="false" objecttolerance="10">
	</sodipodi:namedview>
<g>
	<path id="path11107" d="M-55.722-160.7h-12.814v-0.938h0.66c0.85,0,1.352-0.406,1.352-1.441v-20.292c0-1.034-0.502-1.44-1.352-1.44
		h-0.689v-0.938h12.843v8.613h-0.846v-0.098c0-5.101-1.555-7.424-4.398-7.424h-2.107v10.4h0.537c1.599,0,2.352-1.537,2.352-4.761
		v-0.092h0.85v10.834h-0.85v-0.062c0-3.164-0.722-4.794-2.352-4.794h-0.537v11.343h1.981c2.808,0,4.524-2.727,4.524-7.399v-0.091
		h0.846V-160.7z"/>
	<path id="path11109" d="M-69.382-160.7h-7.505v-0.938h0.628c0.846,0,1.38-0.406,1.38-1.441v-9.832h-5.496v9.832
		c0,1.035,0.533,1.441,1.382,1.441h0.661v0.938h-7.538v-0.938h0.658c0.852,0,1.383-0.406,1.383-1.441v-20.292
		c0-1.034-0.532-1.44-1.383-1.44h-0.658v-0.938h7.538v0.938h-0.661c-0.85,0-1.382,0.406-1.382,1.44v9.113h5.496v-9.113
		c0-1.034-0.534-1.44-1.38-1.44h-0.628v-0.938h7.505v0.938h-0.66c-0.848,0-1.383,0.406-1.383,1.44v20.292
		c0,1.035,0.536,1.441,1.383,1.441h0.66V-160.7z"/>
	<path id="path11111" d="M-86.278-177.079h-0.848v-0.093c0-4.041-1.535-7.487-3.329-7.487h-0.752v21.579
		c0,1.035,0.53,1.441,1.381,1.441h0.784v0.938h-7.725v-0.938h0.724c0.846,0,1.38-0.406,1.38-1.441v-21.579h-0.661
		c-1.794,0-3.329,3.23-3.329,7.487v0.093H-99.5v-8.671h13.222V-177.079z"/>
</g>
<g>
	<path id="path11113" d="M8.199-160.7H-4.457v-0.938h0.881c0.847,0,1.383-0.377,1.383-1.413v-20.351
		c0-1.041-0.536-1.408-1.383-1.408h-0.692v-0.938h7.476v0.938H2.61c-0.85,0-1.381,0.367-1.381,1.408v21.613h1.85
		c3.387,0,4.27-3.858,4.27-7.426v-0.094h0.85V-160.7z"/>
	<path id="path11115" d="M-4.894-160.7h-12.658l0.501-0.938h0.38c0.85,0,1.381-0.377,1.381-1.413v-20.351
		c0-1.041-0.532-1.408-1.381-1.408h-0.688v-0.938h7.473v0.938h-0.599c-0.847,0-1.382,0.367-1.382,1.408v21.613h1.856
		c3.383,0,4.269-3.823,4.269-7.461v-0.094h0.849V-160.7z"/>
	<path id="path11117" d="M-27.6-184.812h-0.253c-1.207,0-1.829,0.222-2.26,2.284l-4.585,22.015h-1.414l-2.856-14.403h-0.031
		l-2.92,14.403h-1.412l-4.492-22.577c-0.287-1.441-0.704-1.722-1.979-1.722h-0.094v-0.938h6.816v0.938h-0.126
		c-0.979,0-1.225,0.342-1.225,1c0,0.152-0.003,0.384,0.032,0.563l2.857,15.281h0.062l1.851-10.046l-0.972-5.076
		c-0.245-1.252-0.532-1.722-1.535-1.722h-0.16v-0.938h6.719v0.938h-0.124c-1.254,0-1.508,0.421-1.508,1.281
		c0,0.233,0.04,0.493,0.096,0.783l2.855,14.594h0.065l2.702-14.622c0.036-0.212,0.06-0.411,0.06-0.596
		c0-1.001-0.333-1.44-1.665-1.44h-0.187v-0.938h5.684V-184.812z"/>
	<path id="path11119" d="M-16.955-160.7h-7.129v-0.938h0.187c1.301,0,1.696-0.343,1.696-1.066c0-0.202-0.04-0.475-0.093-0.751
		l-0.597-3.319h-4.269l-0.599,3.319c-0.053,0.304-0.094,0.531-0.094,0.751c0,0.779,0.303,1.066,1.604,1.066h0.123v0.938h-5.367
		v-0.938h0.276c1.103,0,1.733-0.257,2.012-1.723L-24.837-186h1.598l4.497,22.544c0.266,1.361,0.97,1.818,1.569,1.818h0.218V-160.7z
		 M-23.142-167.934l-1.886-11.086h-0.06l-1.883,11.086H-23.142z"/>
</g>
<g>
	<g>
		<path id="path11121" d="M97.04-177.079h-0.848v-0.093c0-4.041-1.53-7.487-3.328-7.487h-0.751v21.579
			c0,1.035,0.529,1.441,1.383,1.441h0.779v0.938h-7.722v-0.938h0.723c0.85,0,1.383-0.406,1.383-1.441v-21.579h-0.661
			c-1.796,0-3.328,3.23-3.328,7.487v0.093h-0.849v-8.671h13.22V-177.079z"/>
		<path id="path11123" d="M82.722-160.7H69.908v-0.938h0.66c0.848,0,1.35-0.406,1.35-1.441v-20.292c0-1.034-0.502-1.44-1.35-1.44
			h-0.691v-0.938h12.845v8.613h-0.849v-0.098c0-5.101-1.556-7.424-4.397-7.424h-2.103v10.4h0.533c1.601,0,2.357-1.537,2.357-4.761
			v-0.092h0.851v10.834h-0.851v-0.062c0-3.164-0.723-4.794-2.357-4.794h-0.533v11.343h1.977c2.808,0,4.523-2.727,4.523-7.399v-0.091
			h0.849V-160.7z"/>
		<path id="path11125" d="M69.029-160.7h-12.81v-0.938h0.66c0.844,0,1.345-0.406,1.345-1.441v-20.292c0-1.034-0.501-1.44-1.345-1.44
			h-0.691v-0.938h12.842v8.613h-0.848v-0.098c0-5.101-1.556-7.424-4.399-7.424h-2.101v10.4h0.535c1.595,0,2.353-1.537,2.353-4.761
			v-0.092h0.846v10.834h-0.846v-0.062c0-3.164-0.719-4.794-2.355-4.794h-0.533v11.343h1.977c2.809,0,4.523-2.727,4.523-7.399v-0.091
			h0.848V-160.7z"/>
		<path id="path11127" d="M40.11-177.079h-0.854v-0.093c0-4.041-1.529-7.487-3.327-7.487h-0.753v21.579
			c0,1.035,0.534,1.441,1.383,1.441h0.782v0.938h-7.722v-0.938h0.723c0.846,0,1.379-0.406,1.379-1.441v-21.579h-0.659
			c-1.796,0-3.33,3.23-3.33,7.487v0.093h-0.846v-8.671H40.11V-177.079z"/>
		<path id="path11129" d="M26.854-166.775c0,4.432-2.693,6.263-5.841,6.263c-2.285,0-3.331-0.749-4.427-1.503l-0.599,1.315H15.33
			v-8.611h0.846v0.252c0,6.044,3.051,7.421,4.586,7.421c2.329,0,3.359-1.338,3.359-3.976c0-2.884-1.814-4.983-4.43-6.955
			c-2.366-1.784-4.553-3.977-4.553-7.637c0.002-3.77,2.335-5.733,5.118-5.733c2.325,0,3.398,0.942,4.021,1.47l0.628-1.223h0.63
			v8.647h-0.848v-0.252c0-4.696-1.414-7.514-4.209-7.514c-1.772,0-2.7,1.243-2.7,3.226c0,2.355,1.394,3.694,3.99,5.701
			C24.639-173.666,26.854-171.328,26.854-166.775"/>
		<path id="path11131" d="M55.996-164.115c0,2.102-0.796,3.603-2.856,3.603c-2.058,0-2.932-1.527-3.079-4.637l-0.219-4.664
			c-0.118-2.466-1.06-3.13-2.484-3.13h-0.907v9.864c0,1.035,0.403,1.441,1.254,1.441h0.879v0.938h-7.662v-0.938h0.724
			c0.846,0,1.381-0.406,1.381-1.441v-20.292c0-1.034-0.536-1.44-1.381-1.44h-0.724v-0.938H47.8c4.152,0,6.75,2.123,6.75,6.073
			c0,4.134-2.883,5.698-5.431,6.201v0.06c2.089,0.222,3.994,1.77,4.114,4.136l0.284,5.479c0.052,1.09,0.188,1.413,0.692,1.413
			c0.624,0,0.75-0.471,0.75-2.098v-0.91h1.038V-164.115z M50.94-179.613c0-3.918-1.55-5.046-3.673-5.046h-0.815v10.555h0.938
			C49.608-174.104,50.94-175.603,50.94-179.613"/>
	</g>
	<g>
		<path id="path11133" d="M196.131-160.7h-12.655l0.5-0.938h0.382c0.846,0,1.381-0.377,1.381-1.413v-20.35
			c0-1.037-0.535-1.41-1.381-1.41h-0.693v-0.938h7.472v0.938h-0.596c-0.846,0-1.38,0.373-1.38,1.41v21.611h1.852
			c3.388,0,4.271-3.823,4.271-7.426v-0.094h0.848V-160.7z"/>
		<path id="path11135" d="M200.5-162.234c0,0.942-0.702,1.721-1.452,1.721c-0.747,0-1.442-0.779-1.442-1.721
			c0-0.94,0.694-1.69,1.442-1.69C199.798-163.924,200.5-163.174,200.5-162.234"/>
		<path id="path11137" d="M170.822-184.812h-0.664c-0.779,0-1.41,0.592-1.41,1.816v22.391h-1.226l-7.85-19.73h-0.064v16.879
			c0,1.225,0.625,1.818,1.414,1.818h0.628v0.938h-5.307v-0.938h0.724c0.786,0,1.412-0.593,1.412-1.818v-19.792
			c0-0.879-0.34-1.563-1.225-1.563h-0.912v-0.938h4.838l6.375,16.127h0.063v-13.373c0-1.23-0.629-1.816-1.418-1.816h-0.658v-0.938
			h5.28V-184.812z"/>
		<path id="path11139" d="M141.962-184.812h-1.324c-0.784,0-1.253,0.656-1.253,1.816v16.692c0,3.326-1.115,5.791-4.712,5.791
			c-3.824,0-6.062-2.342-6.062-5.791v-17.068c0-1.034-0.5-1.44-1.344-1.44h-0.694v-0.938h7.351v0.938h-0.476
			c-0.85,0-1.348,0.406-1.348,1.44l0.002,17.286c0,2.828,1.112,4.447,3.012,4.447c1.929,0,3.106-1.376,3.106-4.447v-16.91
			c0-1.161-0.439-1.816-1.222-1.816h-0.722v-0.938h5.685V-184.812z"/>
		<path id="path11141" d="M113.571-184.812h-0.627c-0.85,0-1.386,0.406-1.386,1.44v17.475c0,3.92-2.465,5.384-5.616,5.384
			c-2.259,0-4.521-1.843-4.521-5.384c0-1.905,1.188-2.725,2.126-2.725c0.99,0,1.702,0.694,1.702,1.879
			c0,1.511-0.885,2.147-2.042,2.316c0,1.289,0.997,2.787,2.703,2.787c1.635,0,2.195-0.903,2.195-3.605v-18.128
			c0-1.034-0.498-1.44-1.348-1.44h-0.663v-0.938h7.476V-184.812z"/>
		<path id="path11143" d="M184.07-160.7h-7.128v-0.938h0.19c1.3,0,1.696-0.343,1.696-1.066c0-0.202-0.043-0.475-0.092-0.751
			l-0.597-3.319h-4.272l-0.598,3.319c-0.054,0.304-0.094,0.531-0.094,0.751c0,0.779,0.306,1.066,1.603,1.066h0.128v0.938h-5.37
			v-0.938h0.277c1.098,0,1.732-0.257,2.012-1.723L176.192-186h1.599l4.491,22.544c0.273,1.361,0.974,1.818,1.571,1.818h0.217V-160.7
			z M177.887-167.934l-1.884-11.086h-0.062l-1.886,11.086H177.887z"/>
		<path id="path11145" d="M156.279-164.115c0,2.102-0.797,3.603-2.852,3.603c-2.06,0-2.935-1.527-3.08-4.637l-0.22-4.664
			c-0.116-2.479-1.063-3.13-2.479-3.13h-0.915v9.864c0,1.035,0.411,1.441,1.257,1.441h0.882v0.938h-7.665v-0.938h0.722
			c0.85,0,1.383-0.406,1.383-1.441v-20.292c0-1.034-0.533-1.44-1.383-1.44h-0.722v-0.938h6.875c4.156,0,6.751,2.123,6.751,6.073
			c0,4.134-2.88,5.698-5.433,6.201v0.06c2.095,0.222,3.993,1.758,4.115,4.136l0.287,5.479c0.051,1.095,0.187,1.413,0.688,1.413
			c0.627,0,0.751-0.471,0.751-2.098v-0.91h1.037V-164.115z M151.221-179.613c0-3.918-1.549-5.046-3.674-5.046h-0.814v10.555h0.942
			C149.892-174.104,151.221-175.603,151.221-179.613"/>
		<path id="path11147" d="M126.633-173.287c0,7.116-2.336,12.774-6.625,12.774c-4.187,0-6.533-5.659-6.533-12.774
			c0.002-7.122,2.249-12.652,6.533-12.652C124.244-185.939,126.633-180.409,126.633-173.287z M122.739-167.338v-11.839
			c0-4.326-0.962-5.635-2.731-5.635c-1.768,0-2.667,1.243-2.667,5.699v11.738c0,4.182,0.805,5.735,2.667,5.735
			C121.84-161.639,122.739-163.292,122.739-167.338"/>
	</g>
</g>
</svg>
