<?xml version="1.0" encoding="utf-8"?>
<!-- Generator: Adobe Illustrator 17.1.0, SVG Export Plug-In . SVG Version: 6.00 Build 0)  -->
<!DOCTYPE svg PUBLIC "-//W3C//DTD SVG 1.1//EN" "http://www.w3.org/Graphics/SVG/1.1/DTD/svg11.dtd">
<svg version="1.1" id="Layer_1" xmlns="http://www.w3.org/2000/svg" xmlns:xlink="http://www.w3.org/1999/xlink" x="0px" y="0px"
	 viewBox="0 0 50 50" enable-background="new 0 0 50 50" xml:space="preserve">
<g>
	<path fill="#FFFFFF" d="M20.4,25c0,4.1,1.7,7.8,4.3,10.5c3-2.5,4.9-6.3,4.9-10.5s-1.9-8-4.9-10.5C22,17.2,20.4,20.9,20.4,25z"/>
	<path fill="#FFFFFF" d="M35.2,10.2c-3.3,0-6.3,1.1-8.7,2.9c3.3,2.9,5.4,7.2,5.4,12s-2.1,9-5.4,12C29,38.9,32,40,35.2,40
		C43.4,39.8,50,33.2,50,25S43.4,10.2,35.2,10.2z"/>
	<path fill="#FFFFFF" d="M15.9,38.7C8.4,38.7,2.2,32.5,2.2,25s6.1-13.7,13.7-13.7c3.3,0,6.4,1.2,8.8,3.2c0.5-0.5,1.1-1,1.7-1.5
		c-2.8-2.5-6.5-4-10.5-4C7.1,9.1,0,16.2,0,25s7.1,15.9,15.9,15.9c4,0,7.7-1.5,10.5-4c-0.6-0.4-1.2-0.9-1.7-1.5
		C22.3,37.5,19.3,38.7,15.9,38.7z"/>
</g>
</svg>
