<?xml version="1.0" encoding="utf-8"?>
<!-- Generator: Adobe Illustrator 17.1.0, SVG Export Plug-In . SVG Version: 6.00 Build 0)  -->
<!DOCTYPE svg PUBLIC "-//W3C//DTD SVG 1.1//EN" "http://www.w3.org/Graphics/SVG/1.1/DTD/svg11.dtd">
<svg version="1.1" id="Layer_1" xmlns="http://www.w3.org/2000/svg" xmlns:xlink="http://www.w3.org/1999/xlink" x="0px" y="0px"
	 viewBox="0 0 50 50" enable-background="new 0 0 50 50" xml:space="preserve">
<g>
	<g>
		<g>
			<path fill="#FFFFFF" d="M25,48L25,48c-0.4,0-0.8-0.2-1.1-0.4C22,45.7,11.5,35.2,4.8,28.5C1.7,25.3,0,21.3,0,17.1
				c0-4,1.6-7.8,4.5-10.7C7.4,3.6,11.2,2,15.2,2c3.6,0,7,1.2,9.8,3.5C27.7,3.3,31.2,2,34.8,2c4.1,0,7.9,1.6,10.8,4.4
				c2.9,2.9,4.5,6.7,4.5,10.7c0,4.2-1.7,8.2-4.9,11.4C40.9,32.8,35,38.7,30.9,42.9l-4.7,4.7C25.8,47.8,25.4,48,25,48z M15.2,5
				C12,5,8.9,6.3,6.6,8.6S3,13.9,3,17.1c0,3.4,1.4,6.7,4,9.3c5.8,5.8,14.7,14.7,18,18l3.7-3.7c4.2-4.2,10.1-10.1,14.3-14.4
				c2.6-2.6,4-5.9,4-9.3c0-3.2-1.3-6.2-3.6-8.5C41.1,6.3,38,5,34.8,5c-3.3,0-6.4,1.3-8.7,3.6C25.8,8.9,25.4,9,25,9l0,0
				c-0.4,0-0.8-0.2-1.1-0.4C21.6,6.3,18.5,5,15.2,5z"/>
		</g>
	</g>
</g>
</svg>
