<?xml version="1.0" encoding="utf-8"?>
<!-- Generator: Adobe Illustrator 17.1.0, SVG Export Plug-In . SVG Version: 6.00 Build 0)  -->
<!DOCTYPE svg PUBLIC "-//W3C//DTD SVG 1.1//EN" "http://www.w3.org/Graphics/SVG/1.1/DTD/svg11.dtd">
<svg version="1.1" id="Layer_1" xmlns="http://www.w3.org/2000/svg" xmlns:xlink="http://www.w3.org/1999/xlink" x="0px" y="0px"
	 viewBox="140 140 320 320" enable-background="new 140 140 320 320" xml:space="preserve">
<pattern  y="600" width="69.7" height="69.7" patternUnits="userSpaceOnUse" id="New_Pattern_Swatch_20" viewBox="1 -70.7 69.7 69.7" overflow="visible">
	<g>
		<polygon fill="none" points="1,-1 70.7,-1 70.7,-70.7 1,-70.7 		"/>
		
			<image overflow="visible" width="132" height="132" id="s5F77Z_16_" xlink:href="A1091DAE1B55C93D.jpg"  transform="matrix(0.5281 0 0 0.5281 1 -70.7051)">
		</image>
	</g>
</pattern>
<path fill="#DDDCDC" d="M299,139c-88.4,0-160,71.6-160,160s71.6,160,160,160c46.5,0,88.4-19.9,117.7-51.6c1.5-1.6,3-3.3,4.4-5
	c23.6-27.9,37.9-64,37.9-103.4C459,210.6,387.4,139,299,139z"/>
<pattern  id="SVGID_1_" xlink:href="#New_Pattern_Swatch_20" patternTransform="matrix(2 0 0 2 9586.6406 8493.958)">
</pattern>
<circle opacity="0.5" fill="url(#SVGID_1_)" cx="299" cy="299" r="160"/>
<path fill="#DBDBDB" d="M393.7,372.2c0,11.9,6.8,22.3,16.8,27.3v4.2c-2.8,0.4-5.6,0.6-8.5,0.6c-17.8,0-33.8-7.5-45.2-19.4
	c-6.9,1.8-14.1,2.8-21.7,2.8c-41.6,0-75.4-30-75.4-67c0-37,33.8-67,75.4-67c41.7,0,75.4,30,75.4,67c0,14.5-5.2,27.9-14,38.9
	C394.7,363.3,393.7,367.7,393.7,372.2"/>
<path fill="#30BCAE" d="M285.9,196.5c53.4,0,98.4,36.3,99.7,79.4c-9.4-4.2-21.5-8.1-32.3-8.1c-18.3,0-35.6,6.4-48.7,18
	c-13.6,12.1-21.1,28.3-21.1,45.6c0,8.6,1.8,16.9,5.3,24.5c-1,0-2,0-3,0c-5.2,0-10.3-0.3-15.3-1c-21.1,21.1-49.3,22.7-73.8,22.2
	l3.3-1.9c13.1-6.4,24.5-18.2,24.5-31.6c0-1.9-0.1-5.3-0.4-7.1c-22.2-14.6-36.4-35.3-36.4-60.3C187.8,232.2,231.7,196.5,285.9,196.5"
	/>
<path fill="#59C9BE" d="M282.6,193.3c53.4,0,96.8,34.6,98.1,77.7c-9.4-4.2-19.9-6.4-30.6-6.4c-18.3,0-35.6,6.4-48.7,18
	c-13.6,12.1-22.7,25-22.7,42.3c0,8.6,1.8,16.9,5.3,24.5c-1,0-2,0-3,0c-5.2,0-10.3-0.3-15.3-1c-21.1,21.1-44.6,28.1-68.9,28.7V372
	c13.1-6.4,24.5-18.2,24.5-31.6c0-1.9-0.1-3.7-0.4-5.5c-22.2-14.6-36.4-36.9-36.4-62C184.5,229,228.4,193.3,282.6,193.3"/>
<path fill="#FFFFFF" d="M388.8,372.2c0,11.9,6.8,22.3,16.8,27.3v4.2c-2.8,0.4-5.6,0.6-8.5,0.6c-17.8,0-33.8-7.5-45.2-19.4
	c-6.9,1.8-14.1,2.8-21.7,2.8c-41.6,0-75.4-30-75.4-67c0-37,33.8-67,75.4-67c41.7,0,75.4,30,75.4,67c0,14.5-5.2,27.9-14,38.9
	C389.8,363.3,388.8,367.7,388.8,372.2"/>
<path fill="#005CB9" d="M331.8,369c3.7-3.7,24.9-24.9,38.1-38.1c11.8-11.8,11.6-29.1,0.8-39.8c-10.8-10.7-28.2-10.7-38.9,0.1
	c-10.7-10.8-28.1-10.8-38.9-0.1c-10.8,10.7-11,28,0.8,39.8C306.9,344.2,328.1,365.3,331.8,369"/>
<path fill="#009ECA" d="M328.5,365.8c3.7-3.7,24.9-24.9,38.1-38.1c11.8-11.8,11.6-29.1,0.8-39.8c-10.8-10.7-28.2-10.7-38.9,0.1
	c-10.7-10.8-28.1-10.8-38.9-0.1c-10.8,10.7-11,28,0.8,39.8C303.6,340.9,324.8,362.1,328.5,365.8"/>
</svg>
