<?xml version="1.0" encoding="utf-8"?>
<!-- Generator: Adobe Illustrator 17.1.0, SVG Export Plug-In . SVG Version: 6.00 Build 0)  -->
<!DOCTYPE svg PUBLIC "-//W3C//DTD SVG 1.1//EN" "http://www.w3.org/Graphics/SVG/1.1/DTD/svg11.dtd">
<svg version="1.1" id="Layer_1" xmlns="http://www.w3.org/2000/svg" xmlns:xlink="http://www.w3.org/1999/xlink" x="0px" y="0px"
	 viewBox="0 0 320 320" enable-background="new 0 0 320 320" xml:space="preserve">
<pattern  y="50" width="117" height="117" patternUnits="userSpaceOnUse" id="Unnamed_Pattern_1" viewBox="1 -118 117 117" overflow="visible">
	<g>
		<polygon fill="none" points="1,-1 118,-1 118,-118 1,-118 		"/>
		
			<image overflow="visible" width="1248" height="1248" id="TpCBdW_3_" xlink:href="3E00B1E31C5BC4CF.jpg"  transform="matrix(9.373100e-02 0 0 9.373100e-02 1 -117.9771)">
		</image>
	</g>
</pattern>
<circle fill="#DDDCDC" cx="160" cy="160" r="160"/>
<path fill="#EEEEED" d="M160,320c64.1,0,119.4-37.7,144.9-92.1H15.1C40.6,282.3,95.9,320,160,320z"/>
<line fill="none" stroke="#30BCAE" stroke-width="6" stroke-linecap="round" stroke-miterlimit="10" x1="103.8" y1="252.1" x2="97.2" y2="267.8"/>
<line fill="none" stroke="#30BCAE" stroke-width="6" stroke-linecap="round" stroke-miterlimit="10" x1="216" y1="252.1" x2="222.6" y2="267.8"/>
<line fill="none" stroke="#009ECA" stroke-width="4" stroke-linecap="round" stroke-miterlimit="10" x1="161.7" y1="67.8" x2="161.7" y2="55.5"/>
<line fill="none" stroke="#009ECA" stroke-width="4" stroke-linecap="round" stroke-miterlimit="10" x1="154.6" y1="55.5" x2="168.7" y2="55.5"/>
<line fill="none" stroke="#005CB9" stroke-width="4" stroke-linecap="round" stroke-miterlimit="10" x1="102.1" y1="85.2" x2="81.4" y2="55.5"/>
<line fill="none" stroke="#005CB9" stroke-width="4" stroke-linecap="round" stroke-miterlimit="10" x1="217.7" y1="85.2" x2="238.4" y2="55.5"/>
<path opacity="5.000000e-02" fill="#DDDCDC" d="M238.5,167.8c0,43.3-35.1,78.5-78.5,78.5c-43.3,0-78.5-35.1-78.5-78.5
	c0-43.3,35.1-78.5,78.5-78.5C203.3,89.4,238.5,124.5,238.5,167.8z"/>
<g>
	<path fill="#D8D1CA" d="M159.8,72.9c-52.4,0-94.9,42.5-94.9,94.9s42.5,94.9,94.9,94.9c52.4,0,94.9-42.5,94.9-94.9
		S212.2,72.9,159.8,72.9z M159.8,245.7c-43,0-77.8-34.8-77.8-77.8c0-43,34.8-77.8,77.8-77.8c43,0,77.8,34.8,77.8,77.8
		C237.6,210.8,202.8,245.7,159.8,245.7z"/>
</g>
<g opacity="0.1">
	<path fill="#9E1E22" d="M159.8,72.9c-52.4,0-94.9,42.5-94.9,94.9s42.5,94.9,94.9,94.9c52.4,0,94.9-42.5,94.9-94.9
		S212.2,72.9,159.8,72.9z M159.8,245.7c-43,0-77.8-34.8-77.8-77.8c0-43,34.8-77.8,77.8-77.8c43,0,77.8,34.8,77.8,77.8
		C237.6,210.8,202.8,245.7,159.8,245.7z"/>
</g>
<g opacity="5.000000e-02">
	
		<pattern  id="SVGID_1_" xlink:href="#Unnamed_Pattern_1" patternTransform="matrix(2 0 0 2 9923.8916 7744.8813)"  opacity="5.000000e-02">
	</pattern>
	<path fill="url(#SVGID_1_)" d="M159.8,72.9c-52.4,0-94.9,42.5-94.9,94.9s42.5,94.9,94.9,94.9c52.4,0,94.9-42.5,94.9-94.9
		S212.2,72.9,159.8,72.9z M159.8,245.7c-43,0-77.8-34.8-77.8-77.8c0-43,34.8-77.8,77.8-77.8c43,0,77.8,34.8,77.8,77.8
		C237.6,210.8,202.8,245.7,159.8,245.7z"/>
</g>
<path fill="#319B9B" d="M237.8,167.8c0,43-34.8,77.8-77.8,77.8c-43,0-77.8-34.8-77.8-77.8c0-43,34.8-77.8,77.8-77.8
	C203,90,237.8,124.9,237.8,167.8z"/>
<g>
	<g>
		<g>
			<g>
				<path fill="#30BCAE" d="M160,67.8c-55.5,0-100.5,45-100.5,100.5c0,55.5,45,100.5,100.5,100.5c55.5,0,100.5-45,100.5-100.5
					C260.5,112.8,215.5,67.8,160,67.8z M160,245.7c-43,0-77.8-34.8-77.8-77.8c0-43,34.8-77.8,77.8-77.8c43,0,77.8,34.8,77.8,77.8
					C237.8,210.8,203,245.7,160,245.7z"/>
			</g>
		</g>
	</g>
</g>
<g>
	<g>
		<g>
			<g>
				<path fill="#59C9BE" d="M158.4,67.8c-54.6,0-98.9,44.3-98.9,98.9c0,54.6,44.3,98.9,98.9,98.9c54.6,0,98.9-44.3,98.9-98.9
					C257.3,112.1,213,67.8,158.4,67.8z M158.4,242.8c-42.3,0-76.6-34.3-76.6-76.6c0-42.3,34.3-76.6,76.6-76.6
					c42.3,0,76.6,34.3,76.6,76.6C235,208.5,200.7,242.8,158.4,242.8z"/>
			</g>
		</g>
	</g>
</g>
<path fill="#30BCAE" d="M237.8,172.2c0,43-34.8,77.8-77.8,77.8c-43,0-77.8-34.8-77.8-77.8S117,94.4,160,94.4
	C203,94.4,237.8,129.3,237.8,172.2z"/>
<path fill="#FFFFFF" d="M237.8,169.8c0,43-34.8,77.8-77.8,77.8c-43,0-77.8-34.8-77.8-77.8c0-43,34.8-77.8,77.8-77.8
	C203,92,237.8,126.9,237.8,169.8z"/>
<path fill="#005CB9" d="M193.8,138.3c-0.1-0.1-0.2-0.2-0.4-0.2c-2.5,0-20.6,16.1-30.8,25.3c0,0,0,0-0.1,0c-4.8-9.2-26.5-51-29.2-51
	l-0.1,0l-0.1,0c-0.6,0.3-1.6,0.8,9.4,27.4c4.5,10.9,9.4,22.2,11.5,27.1c-0.6,1.1-1,2.4-1,3.7c0,4.2,3.4,7.6,7.6,7.6
	c4.2,0,7.6-3.4,7.6-7.6c0-0.2-0.1-0.5-0.1-0.7c3.3-3.6,7.6-8.4,11.6-13C195.1,139.6,194.2,138.7,193.8,138.3z"/>
<path fill="#009ECA" d="M193.8,136.8c-0.1-0.1-0.2-0.2-0.4-0.2c-2.5,0-20.6,16.1-30.8,25.3c0,0,0,0-0.1,0c-4.8-9.2-26.5-51-29.2-51
	l-0.1,0l-0.1,0c-0.6,0.3-1.6,0.8,9.4,27.5c4.5,10.9,9.4,22.2,11.5,27.1c-0.6,1.1-1,2.4-1,3.7c0,4.2,3.4,7.6,7.6,7.6
	c4.2,0,7.6-3.4,7.6-7.6c0-0.2-0.1-0.5-0.1-0.7c3.3-3.6,7.6-8.4,11.6-13C195.1,138.1,194.2,137.3,193.8,136.8z"/>
<text transform="matrix(1 0 0 1 149.2146 109.5332)" fill="#009ECA" font-family="'Effra-Bold'" font-size="19.7701">12</text>
<text transform="matrix(1 0 0 1 154.4021 238.6973)" fill="#009ECA" font-family="'Effra-Bold'" font-size="19.7701">6</text>
<text transform="matrix(1 0 0 1 217.826 174.1191)" fill="#009ECA" font-family="'Effra-Bold'" font-size="19.7701">3</text>
<text transform="matrix(1 0 0 1 87.9217 174.1191)" fill="#009ECA" font-family="'Effra-Bold'" font-size="19.7701">9</text>
<g>
	<path fill="#009ECA" d="M108.7,139.3c0.6,0.2,0.8,0.9,0.6,1.4l0,0c-0.2,0.6-0.9,0.8-1.4,0.6L97.7,137c-0.6-0.2-0.8-0.9-0.6-1.4l0,0
		c0.2-0.6,0.9-0.8,1.4-0.6L108.7,139.3z"/>
	<path fill="#009ECA" d="M127.7,118.8c0.3,0.5,0.2,1.2-0.3,1.5l0,0c-0.5,0.3-1.2,0.2-1.5-0.3l-6.2-9c-0.3-0.5-0.2-1.2,0.3-1.5l0,0
		c0.5-0.3,1.2-0.2,1.5,0.3L127.7,118.8z"/>
</g>
<g>
	<path fill="#009ECA" d="M211.1,139.3c-0.6,0.2-0.8,0.9-0.6,1.4l0,0c0.2,0.6,0.9,0.8,1.4,0.6l10.1-4.3c0.6-0.2,0.8-0.9,0.6-1.4l0,0
		c-0.2-0.6-0.9-0.8-1.4-0.6L211.1,139.3z"/>
	<path fill="#009ECA" d="M192.1,118.8c-0.4,0.5-0.2,1.2,0.3,1.5l0,0c0.5,0.3,1.2,0.2,1.5-0.3l6.2-9c0.3-0.5,0.2-1.2-0.3-1.5l0,0
		c-0.5-0.3-1.2-0.2-1.5,0.3L192.1,118.8z"/>
</g>
<g>
	<path fill="#009ECA" d="M108.7,195.7c0.6-0.2,0.8-0.9,0.6-1.4l0,0c-0.2-0.6-0.9-0.8-1.4-0.6L97.7,198c-0.6,0.2-0.8,0.9-0.6,1.4l0,0
		c0.2,0.6,0.9,0.8,1.4,0.6L108.7,195.7z"/>
	<path fill="#009ECA" d="M127.7,216.2c0.3-0.5,0.2-1.2-0.3-1.5l0,0c-0.5-0.3-1.2-0.2-1.5,0.3l-6.2,9c-0.3,0.5-0.2,1.2,0.3,1.5l0,0
		c0.5,0.3,1.2,0.2,1.5-0.3L127.7,216.2z"/>
</g>
<g>
	<path fill="#009ECA" d="M211.1,195.7c-0.6-0.2-0.8-0.9-0.6-1.4l0,0c0.2-0.6,0.9-0.8,1.4-0.6l10.1,4.3c0.6,0.2,0.8,0.9,0.6,1.4l0,0
		c-0.2,0.6-0.9,0.8-1.4,0.6L211.1,195.7z"/>
	<path fill="#009ECA" d="M192.1,216.2c-0.4-0.5-0.2-1.2,0.3-1.5l0,0c0.5-0.3,1.2-0.2,1.5,0.3l6.2,9c0.3,0.5,0.2,1.2-0.3,1.5l0,0
		c-0.5,0.3-1.2,0.2-1.5-0.3L192.1,216.2z"/>
</g>
<path fill="#009ECA" d="M91.9,55.2l-12.1,8.5c-10.2,7.1-12.7,21.2-5.5,31.4l49-34.3C116.1,50.6,102.1,48.1,91.9,55.2z"/>
<path fill="#009ECA" d="M227.9,55.2l12.1,8.5c10.2,7.1,12.7,21.2,5.5,31.4l-49-34.3C203.7,50.6,217.7,48.1,227.9,55.2z"/>
<path fill="#005CB9" d="M91.9,55.2l-12.1,8.5c-10.2,7.1-12.7,21.2-5.5,31.4l49-34.3C116.1,50.6,102.1,48.1,91.9,55.2z"/>
<path fill="#009ECA" d="M91.9,55.2l-12.1,8.5c-10.2,7.1-12.7,21.2-5.5,31.4l43.5-34.3C110.7,50.6,102.1,48.1,91.9,55.2z"/>
<path fill="#005CB9" d="M227.9,55.2l12.1,8.5c10.2,7.1,12.7,21.2,5.5,31.4l-49-34.3C203.7,50.6,217.7,48.1,227.9,55.2z"/>
<path fill="#009ECA" d="M227.9,55.2l12.1,8.5c10.2,7.1,9.9,15.7,2.8,25.9l-46.3-28.8C203.7,50.6,217.7,48.1,227.9,55.2z"/>
</svg>
