<?xml version="1.0" encoding="utf-8"?>
<!-- Generator: Adobe Illustrator 17.1.0, SVG Export Plug-In . SVG Version: 6.00 Build 0)  -->
<!DOCTYPE svg PUBLIC "-//W3C//DTD SVG 1.1//EN" "http://www.w3.org/Graphics/SVG/1.1/DTD/svg11.dtd">
<svg version="1.1" id="Layer_1" xmlns="http://www.w3.org/2000/svg" xmlns:xlink="http://www.w3.org/1999/xlink" x="0px" y="0px"
	 viewBox="0 0 320 320" enable-background="new 0 0 320 320" xml:space="preserve">
<pattern  x="-140" y="-140" width="69.7" height="69.7" patternUnits="userSpaceOnUse" id="New_Pattern_Swatch_26" viewBox="1 -70.7 69.7 69.7" overflow="visible">
	<g>
		<polygon fill="none" points="1,-1 70.7,-1 70.7,-70.7 1,-70.7 		"/>
		
			<image overflow="visible" width="132" height="132" id="s5F77Z_22_" xlink:href="72A21AB048430905.jpg"  transform="matrix(0.5281 0 0 0.5281 1 -70.7051)">
		</image>
	</g>
</pattern>
<path fill="#DDDCDC" d="M160,0C71.6,0,0,71.6,0,160c0,12.8,1.5,25.2,4.3,37.1C21.1,267.6,84.4,320,160,320c4.6,0,9.1-0.2,13.6-0.6
	c8.8-0.7,17.3-2.2,25.6-4.3c37.7-9.5,70.1-32.4,91.8-63.3c7-10,12.9-20.8,17.6-32.4c2.9-7.2,5.3-14.7,7.1-22.3
	c2.8-11.9,4.3-24.3,4.3-37.1C320,71.6,248.4,0,160,0z"/>
<pattern  id="SVGID_1_" xlink:href="#New_Pattern_Swatch_26" patternTransform="matrix(2 0 0 2 9749.7695 7432.3682)">
</pattern>
<circle opacity="0.8" fill="url(#SVGID_1_)" cx="160" cy="160" r="160"/>
<g>
	<path fill="none" d="M47.7,46c-1-0.4-2.1-0.7-3.2-0.7c-4.5,0-8.1,3.6-8.1,8.1c0,1.4,0.4,2.6,1,3.8C40.6,53.4,44.1,49.6,47.7,46z"/>
	<path fill="none" d="M212.6,35.5c0-1.7-0.5-3.2-1.4-4.5c-1.3-0.9-2.9-1.4-4.5-1.4c-4.5,0-8.1,3.7-8.1,8.1c0,1.7,0.5,3.2,1.4,4.5
		c1.3,0.9,2.9,1.4,4.5,1.4C209,43.7,212.6,40,212.6,35.5z"/>
	<path fill="none" d="M37.3,57.3c0.1,0.3,0.3,0.5,0.4,0.8c1.3,0.9,2.9,1.4,4.5,1.4c4.5,0,8.1-3.6,8.1-8.1c0-1.7-0.5-3.2-1.4-4.5
		c-0.4-0.3-0.9-0.5-1.3-0.7C44.1,49.6,40.6,53.4,37.3,57.3z"/>
	<path fill="none" d="M199.2,315.2c11.3-2.8,22.1-6.9,32.4-12L181,225.9l0,0c-2,1.4-4.7,1-6.1-1c-0.8-1.1-1-2.4-0.7-3.6
		c2.7-4.3,10.1-13.5,24.7-18.1c0,0,0,0-0.1,0.1c1.3,0,2.6,0.6,3.5,1.8c1.3,1.8,1,4.4-0.6,5.8c-0.1,0.1-0.2,0.2-0.3,0.3l58.2,74
		c12-9.6,22.7-20.8,31.5-33.4c7-10,12.9-20.8,17.6-32.4c2.9-7.2,5.3-14.7,7.1-22.3c2.8-11.9,4.3-24.3,4.3-37.1
		c0-28-7.2-54.4-19.9-77.3l-12.4,10.6c0.7,1.6,1.2,3.5,1.2,5.4c0,7.3-5.9,13.3-13.2,13.3c-4.2,0-8-2-10.4-5.1c-3.1-2.4-5-6.2-5-10.4
		c0-2.5,0.7-4.8,1.9-6.7l-46.6-42.3c-2.3,2.1-5.4,3.5-8.8,3.5c-1.7,0-3.3-0.3-4.8-0.9l-21.3,31.8l-4.4-3l0.3-0.5l-2.5-1.7L195.2,45
		c-2.4-2.4-4-5.8-4-9.4c0-7.3,5.9-13.3,13.2-13.3c4.2,0,8,2,10.4,5.1c3.1,2.4,5.1,6.2,5.1,10.4c0,1.9-0.4,3.7-1.1,5.3l47,42.7
		c2.2-1.5,4.8-2.5,7.6-2.5c3.4,0,6.6,1.3,8.9,3.5l13.4-11.4C267.5,30.1,217.3,0,160,0C118.3,0,80.3,16,51.8,42.1
		c0.3,0.3,0.6,0.6,0.8,1c3.1,2.4,5,6.2,5,10.4c0,2.5-0.7,4.8-1.9,6.8l30.1,27.3l-0.1,0.1l2.3,2.1l-3.6,4L52.1,64.3
		c-2.1,1.5-4.8,2.4-7.6,2.4c-3.2,0-6.2-1.2-8.5-3.1l-9.4,8C9.8,97,0,127.3,0,160c0,12.8,1.5,25.2,4.3,37.1
		C21.1,267.6,84.4,320,160,320 M179.8,202.9c-30.9,22.4-74.1,15.4-96.4-15.5C61,156.5,67.9,113.3,98.9,90.9
		c30.9-22.4,74.1-15.4,96.4,15.5C217.7,137.3,210.7,180.5,179.8,202.9z"/>
	<path fill="none" d="M172.7,91c-3.8-2.5-7.2-3.9-7.7-3.2L149.8,111c-4.4-2.1-9.3-3.3-14.4-3.3c-7.3,0-14.1,2.4-19.6,6.3L97.3,96.9
		c-0.6-0.5-3.5,1.7-6.6,5c-3.1,3.3-5.1,6.4-4.5,7l19,17.6c-2.2,4.5-3.5,9.5-3.5,14.9c0,18.6,15.1,33.6,33.7,33.6
		c18.6,0,33.6-15.1,33.6-33.6c0-7.4-2.4-14.3-6.5-19.9l16.2-24.7v0C179.1,96,176.5,93.4,172.7,91z"/>
	<path fill="none" d="M281.5,96.5c0-1.7-0.5-3.2-1.4-4.5c-1.3-0.9-2.9-1.4-4.5-1.4c-4.5,0-8.1,3.6-8.1,8.1c0,1.7,0.5,3.3,1.4,4.6
		c1.3,0.9,2.9,1.4,4.5,1.4C277.9,104.7,281.5,101,281.5,96.5z"/>
	<path fill="#005CB9" d="M37.3,57.3c-0.1,0.1-0.1,0.2-0.2,0.3c0.2,0.2,0.4,0.4,0.6,0.5C37.6,57.8,37.5,57.5,37.3,57.3z"/>
	<path fill="#005CB9" d="M49,46.7c-0.3-0.4-0.6-0.8-0.9-1.1c-0.1,0.1-0.3,0.3-0.4,0.4C48.2,46.2,48.6,46.5,49,46.7z"/>
	<path fill="#005CB9" d="M53.5,58.2l2.3,2.1c1.2-2,1.9-4.3,1.9-6.8c0-4.2-2-8-5-10.4c1.8,2.3,2.8,5.1,2.8,8.2
		C55.5,53.8,54.8,56.2,53.5,58.2z"/>
	<path fill="#005CB9" d="M44.5,66.8c2.8,0,5.4-0.9,7.6-2.4l32.5,29.5l3.6-4l-2.3-2.1l-3.5,3.9L49.9,62.1c-2.1,1.5-4.8,2.4-7.6,2.4
		c-3.2,0-6.1-1.2-8.4-3.1c-2.5,3.1-4.8,6.3-7.3,10.2l9.4-8C38.3,65.6,41.3,66.8,44.5,66.8z"/>
	<path fill="#005CB9" d="M285.5,91.1c0.7,1.6,1.2,3.5,1.2,5.4c0,7.3-5.9,13.3-13.2,13.3c-3.1,0-5.9-1.1-8.2-2.9
		c2.4,3.1,6.2,5.1,10.4,5.1c7.3,0,13.2-5.9,13.2-13.3c0-1.9-0.4-3.8-1.2-5.4l12.4-10.6c-0.5-0.9-1-1.8-1.6-2.8L285.5,91.1z"/>
	<path fill="#005CB9" d="M275.6,90.6c1.7,0,3.2,0.5,4.5,1.4c-1.5-2.2-3.9-3.6-6.7-3.6c-4.5,0-8.1,3.6-8.1,8.1c0,2.8,1.4,5.3,3.6,6.8
		c-0.9-1.3-1.4-2.9-1.4-4.6C267.5,94.2,271.1,90.6,275.6,90.6z"/>
	<path fill="#005CB9" d="M216.5,41l2.3,2.1c0.7-1.6,1.1-3.4,1.1-5.3c0-4.2-2-8-5.1-10.4c1.8,2.3,2.8,5.1,2.8,8.2
		C217.7,37.5,217.3,39.3,216.5,41z"/>
	<path fill="#005CB9" d="M213.3,45.3c-2.3,2.1-5.4,3.5-8.8,3.5c-1.7,0-3.3-0.3-4.8-0.9l-21.3,31.8l-1.9-1.3l-0.3,0.5l4.4,3
		l21.3-31.8c1.5,0.6,3.1,0.9,4.8,0.9c3.4,0,6.5-1.3,8.8-3.5l46.6,42.3c0,0,0-0.1,0.1-0.1L213.3,45.3z"/>
	<path fill="#005CB9" d="M206.7,29.6c1.7,0,3.2,0.5,4.5,1.4c-1.5-2.2-3.9-3.6-6.7-3.6c-4.5,0-8.1,3.6-8.1,8.1c0,2.8,1.4,5.3,3.6,6.8
		c-0.9-1.3-1.4-2.9-1.4-4.5C198.6,33.2,202.2,29.6,206.7,29.6z"/>
	<path fill="#009ECA" d="M85.8,87.8l0.1-0.1L55.8,60.3c0,0,0,0.1-0.1,0.1L85.8,87.8z"/>
	<path fill="#009ECA" d="M52.7,43.1c-0.3-0.3-0.6-0.7-0.8-1c-0.1,0.1-0.2,0.1-0.2,0.2C52,42.6,52.3,42.8,52.7,43.1z"/>
	<path fill="#009ECA" d="M42.3,59.4c-1.7,0-3.2-0.5-4.5-1.4c1.5,2.2,3.9,3.6,6.7,3.6c4.5,0,8.1-3.6,8.1-8.1c0-2.8-1.4-5.3-3.6-6.8
		c0.9,1.3,1.4,2.9,1.4,4.5C50.4,55.8,46.8,59.4,42.3,59.4z"/>
	<path fill="#009ECA" d="M48.1,45.6c0.3,0.3,0.6,0.7,0.9,1.1c2.2,1.5,3.6,3.9,3.6,6.8c0,4.5-3.6,8.1-8.1,8.1c-2.8,0-5.3-1.4-6.7-3.6
		c-0.2-0.2-0.4-0.3-0.6-0.5c-1.1,1.3-2.2,2.6-3.2,4c2.1,2.4,5.1,3.3,8.4,3.1c2.8-0.2,5.4-0.9,7.6-2.4l32.5,29.5l3.5-3.9L55.7,60.4
		c0,0,0-0.1,0.1-0.1l-2.3-2.1c1.2-2,2-4.4,2-6.9c0-3.1-1.1-5.9-2.8-8.2c-0.3-0.3-0.7-0.5-1.1-0.8C50.4,43.4,49.3,44.5,48.1,45.6z"/>
	<path fill="#009ECA" d="M211.2,31c0.9,1.3,1.4,2.9,1.4,4.5c0,4.5-3.6,8.1-8.1,8.1c-1.7,0-3.2-0.5-4.5-1.4c1.5,2.2,3.9,3.6,6.7,3.6
		c4.5,0,8.1-3.6,8.1-8.1C214.8,34.9,213.4,32.4,211.2,31z"/>
	<path fill="#009ECA" d="M275.6,106.9c4.5,0,8.1-3.6,8.1-8.1c0-2.8-1.4-5.3-3.6-6.8c0.9,1.3,1.4,2.9,1.4,4.5c0,4.5-3.6,8.1-8.1,8.1
		c-1.7,0-3.2-0.5-4.5-1.4C270.3,105.4,272.8,106.9,275.6,106.9z"/>
	<path fill="#009ECA" d="M273.4,83.2c-2.9,0-5.5,0.9-7.6,2.5l-47-42.7c0,0,0,0.1-0.1,0.2L268,87.9c2.2-1.5,4.8-2.5,7.6-2.5
		c3.4,0,6.6,1.3,8.9,3.5l12.9-11c-0.5-0.9-1.1-1.8-1.6-2.7l-13.4,11.4C280,84.6,276.9,83.2,273.4,83.2z"/>
	<path fill="#009ECA" d="M264.4,91.9l-2.3-2.1c-1.2,2-1.9,4.3-1.9,6.7c0,4.2,2,8,5,10.4c-1.8-2.3-2.8-5.1-2.8-8.2
		C262.4,96.2,263.1,93.9,264.4,91.9z"/>
	<path fill="#009ECA" d="M193.4,37.7c0-7.3,5.9-13.3,13.2-13.3c3.1,0,5.9,1.1,8.2,2.8c-2.4-3.1-6.2-5.1-10.4-5.1
		c-7.3,0-13.2,5.9-13.2,13.3c0,3.7,1.5,7,4,9.4L174,76.7l2.5,1.7l20.9-31.2C195,44.8,193.4,41.4,193.4,37.7z"/>
	<path fill="#009ECA" d="M286.6,96.5c0-1.9-0.4-3.8-1.2-5.4L298.6,80c-0.4-0.7-0.8-1.3-1.2-2l-12.9,11c-2.4-2.2-5.5-3.5-8.9-3.5
		c-2.9,0-5.5,0.9-7.6,2.5l-49.3-44.7c0-0.1,0-0.1,0.1-0.2l-2.3-2.1c0.8-1.7,1.2-3.5,1.2-5.5c0-3.1-1.1-5.9-2.8-8.2
		c-2.3-1.8-5.1-2.8-8.2-2.8c-7.3,0-13.2,5.9-13.2,13.3c0,3.7,1.5,7,4,9.4l-20.9,31.2l1.9,1.3l21.3-31.8c1.5,0.6,3.1,0.9,4.8,0.9
		c3.4,0,6.5-1.3,8.8-3.5l48.8,44.3c0,0,0,0.1-0.1,0.1l2.3,2.1c-1.2,2-2,4.3-2,6.9c0,3.1,1.1,5.9,2.8,8.2c2.3,1.8,5.1,2.9,8.2,2.9
		C280.7,109.8,286.6,103.8,286.6,96.5z M206.7,45.9c-2.8,0-5.3-1.4-6.7-3.6c-2.2-1.5-3.6-3.9-3.6-6.8c0-4.5,3.6-8.1,8.1-8.1
		c2.8,0,5.3,1.4,6.7,3.6c2.2,1.5,3.6,3.9,3.6,6.8C214.8,42.2,211.2,45.9,206.7,45.9z M265.3,96.5c0-4.5,3.6-8.1,8.1-8.1
		c2.8,0,5.3,1.4,6.7,3.6c2.2,1.5,3.6,3.9,3.6,6.8c0,4.5-3.6,8.1-8.1,8.1c-2.8,0-5.3-1.4-6.7-3.6C266.7,101.8,265.3,99.3,265.3,96.5z
		"/>
	<path fill="#30BCAE" d="M181,225.9l50.6,77.2c0,0,0.1,0,0.1,0L181,225.9z"/>
	<polygon fill="#30BCAE" points="259.5,285.2 259.5,285.2 201.3,211.2 	"/>
	<path fill="#68CEC4" d="M259.5,285.2l-58.2-74c0.1-0.1,0.2-0.2,0.3-0.3c-11.2,4-17.6,10.8-20.6,15l50.6,77.2
		C241.6,298.1,250.9,292.1,259.5,285.2z"/>
	<path fill="#30BCAE" d="M254.6,288.5l-55-75.7c0.1-0.1-1.4-1.8-1.3-1.9c-11.2,4-14.3,10.8-17.3,15l50.6,77.2
		C241.6,298.1,246,295.4,254.6,288.5z"/>
	<path fill="#005CB9" d="M201.6,210.9c-9,1.6-16.7,7.3-20.6,15C184,221.7,190.4,214.9,201.6,210.9z"/>
	<path fill="#009ECA" d="M201.6,210.9c1.7-1.5,2-4,0.6-5.8c-0.8-1.2-2.1-1.8-3.5-1.8c0,0,0,0,0.1-0.1c-14.6,4.6-22,13.8-24.7,18.1
		c-0.3,1.2-0.1,2.5,0.7,3.6c1.4,2,4.2,2.4,6.1,1l0,0C184.9,218.3,192.6,212.6,201.6,210.9z"/>
</g>
<path fill="#FFFFFF" d="M83.5,187.2C61.2,156.4,68.2,113.4,99,91.1c30.8-22.3,73.9-15.4,96.1,15.5c22.3,30.8,15.4,73.9-15.4,96.1
	C148.9,225,105.8,218.1,83.5,187.2z"/>
<path fill="none" d="M178.7,228.9c0,0,6.3-13.6,24.9-18"/>
<path fill="none" d="M178.7,228.9c0,0,6.3-13.6,24.9-18"/>
<path fill="#005CB9" d="M177,84.6c-4-2.6-7.6-4.1-8.1-3.3l-15.9,24.3c-4.6-2.2-9.7-3.5-15.1-3.5c-7.7,0-14.7,2.5-20.5,6.6L97.9,90.8
	c-0.6-0.6-3.7,1.8-6.9,5.3c-3.2,3.5-5.3,6.8-4.7,7.3l20,18.4c-2.3,4.7-3.7,10-3.7,15.6c0,19.5,15.8,35.3,35.3,35.3
	c19.5,0,35.3-15.8,35.3-35.3c0-7.8-2.6-15-6.9-20.8l17-25.9v0C183.8,90,181,87.2,177,84.6z M137.9,159.7c-12.3,0-22.2-10-22.2-22.2
	c0-12.3,9.9-22.2,22.2-22.2c12.3,0,22.2,9.9,22.2,22.2C160.1,149.7,150.2,159.7,137.9,159.7z"/>
<path fill="#009ECA" d="M174.7,82.3c-4-2.6-7.6-4.1-8.1-3.3l-15.9,24.3c-4.6-2.2-9.7-3.5-15.2-3.5c-7.7,0-14.7,2.5-20.5,6.6
	L95.6,88.5c-0.6-0.6-3.7,1.8-6.9,5.3c-3.2,3.5-5.3,6.8-4.7,7.3l20,18.4c-2.3,4.7-3.7,10-3.7,15.6c0,19.5,15.8,35.3,35.3,35.3
	c19.5,0,35.3-15.8,35.3-35.3c0-7.8-2.6-15-6.9-20.8l17-25.9v0C181.5,87.6,178.7,84.9,174.7,82.3z M135.6,157.4
	c-12.3,0-22.2-9.9-22.2-22.2s9.9-22.2,22.2-22.2c12.3,0,22.2,9.9,22.2,22.2S147.9,157.4,135.6,157.4z"/>
<path opacity="0.39" fill="#FFFFFF" d="M82.8,187.9C60.2,156.5,67.2,112.7,98.6,90c31.4-22.7,75.2-15.6,97.9,15.7"/>
<path fill="#59C9BE" d="M198.8,203.2c26.6-28,30.3-71.9,6.9-104.3C179.2,62.2,128,54,91.3,80.5C54.6,107,46.4,158.2,72.9,194.9
	c23.5,32.5,66.3,42.6,101.3,26.1c0,0.1,0,0.2-0.1,0.3C176.9,217.1,184.3,207.8,198.8,203.2z M84.8,186.3
	c-21.7-30.1-15-72.1,15.1-93.9c30.1-21.8,72.1-15,93.9,15.1c21.8,30.1,15,72.1-15.1,93.9C148.6,223.1,106.6,216.4,84.8,186.3z"/>
</svg>
