<?xml version="1.0" encoding="utf-8"?>
<!-- Generator: Adobe Illustrator 17.1.0, SVG Export Plug-In . SVG Version: 6.00 Build 0)  -->
<!DOCTYPE svg PUBLIC "-//W3C//DTD SVG 1.1//EN" "http://www.w3.org/Graphics/SVG/1.1/DTD/svg11.dtd">
<svg version="1.1" id="Layer_1" xmlns="http://www.w3.org/2000/svg" xmlns:xlink="http://www.w3.org/1999/xlink" x="0px" y="0px"
	 viewBox="0 0 50 50" enable-background="new 0 0 50 50" xml:space="preserve">
<path fill="#FFFFFF" d="M31.2,34.8c-1.2-0.2-1.3-3.6-1.3-3.6s3.6-3.6,4.4-8.4c2.1,0,3.4-5.1,1.3-6.9C35.7,13.9,38.4,0.9,25,0.9
	s-10.7,13-10.7,14.9c-2.1,1.8-0.8,6.9,1.3,6.9c0.8,4.8,4.4,8.4,4.4,8.4s0,3.4-1.3,3.6C14.8,35.4,0,41.9,0,49.1h25h25
	C50,41.9,35.2,35.4,31.2,34.8"/>
</svg>
