<svg xmlns="http://www.w3.org/2000/svg" viewBox="0 0 50 50" enable-background="new 0 0 50 50"><path fill="#fff" d="M50 21c0-9.8-2.9-17.8-6.4-17.8h-4.1s-9.5 7.1-23.2 9.9c-.4 2.2-.7 4.8-.7 7.9 0 3 .3 5.7.7 7.9 13.7 2.8 23.2 9.9 23.2 9.9h4.1c3.5-.1 6.4-8 6.4-17.8m-7.8 15.1c-.5 0-1-.5-1.2-.8-.6-.7-1.2-1.8-1.7-3.1-1.1-3-1.8-7-1.8-11.3 0-4.3.6-8.3 1.8-11.3.5-1.3 1.1-2.4 1.7-3.1.3-.3.8-.8 1.2-.8.5 0 1 .5 1.2.8.6.7 1.2 1.8 1.7 3.1 1.1 3 1.8 7 1.8 11.3 0 4.3-.6 8.3-1.8 11.3-.5 1.3-1.1 2.4-1.7 3.1-.2.3-.7.8-1.2.8m-29.9-15.1c0-2.5.2-5 .5-7.3-2.3.3-4.3.5-6.8.5h-3.3l-2.7 4.6v4.3l2.7 4.6h3.3c2.5 0 4.5.2 6.9.5-.4-2.2-.6-4.7-.6-7.2m5.7 10.4l-6.2-1.2 4 15.7c.2.8 1 1.2 1.8.9l5.8-2.3c.8-.3 1.1-1.2.7-1.9l-6.1-11.2zm24.2-4.6c-.2 0-.4-.2-.5-.3-.2-.3-.5-.7-.7-1.2-.4-1.2-.7-2.7-.7-4.4 0-1.7.2-3.2.7-4.4.2-.5.4-.9.7-1.2.1-.1.3-.3.5-.3s.4.2.5.3c.2.3.5.7.7 1.2.4 1.2.7 2.7.7 4.4 0 1.7-.2 3.2-.7 4.4-.2.5-.4.9-.7 1.2-.1.1-.3.3-.5.3"/></svg>