<svg xmlns="http://www.w3.org/2000/svg" viewBox="0 0 100 100" enable-background="new 0 0 100 100"><g fill="#fff"><path d="M31.3 76.3c0 2.2-1.8 3.9-3.9 3.9-2.2 0-3.9-1.8-3.9-3.9v-23.1c0-2.2 1.8-3.9 3.9-3.9 2.2 0 3.9 1.8 3.9 3.9v23.1z"/><path opacity=".6" d="M12.8 47c0 1.3-1 2.3-2.3 2.3h-3.2c-1.3 0-2.3-1-2.3-2.3v-6.9c0-1.3 1-2.3 2.3-2.3h3.2c1.3 0 2.3 1 2.3 2.3v6.9z"/><path d="M41.5 30.5h-25.5c-2.8 0-5.4 2.3-5.4 5.2v16.7c0 2.8 2.7 5.2 5.5 5.2h25.4v-27.1z"/><path opacity=".6" d="M60.3 22.4c-.6 0-1 .1-1.4.3-.3.1-22.2 8.5-22.2 8.5v25.2s22.1 8.6 22.3 8.6c.4.2.8.3 1.3.3 2.5 0 4.3-2 4.3-4.6v-33.6c0-2.7-1.8-4.7-4.3-4.7z"/></g><line stroke="#fff" stroke-width="4" stroke-linecap="round" stroke-miterlimit="10" x1="75.8" y1="31.8" x2="87.8" y2="19.8" fill="none"/><line stroke="#fff" stroke-width="4" stroke-linecap="round" stroke-miterlimit="10" x1="87.8" y1="66.5" x2="75.8" y2="54.5" fill="none"/><line stroke="#fff" stroke-width="4" stroke-linecap="round" stroke-miterlimit="10" x1="75.6" y1="43.3" x2="95" y2="43.3" fill="none"/></svg>