<?xml version="1.0" encoding="utf-8"?>
<!-- Generator: Adobe Illustrator 17.1.0, SVG Export Plug-In . SVG Version: 6.00 Build 0)  -->
<!DOCTYPE svg PUBLIC "-//W3C//DTD SVG 1.1//EN" "http://www.w3.org/Graphics/SVG/1.1/DTD/svg11.dtd">
<svg version="1.1" id="Layer_1" xmlns="http://www.w3.org/2000/svg" xmlns:xlink="http://www.w3.org/1999/xlink" x="0px" y="0px"
	 viewBox="-20 0 140 100" enable-background="new -20 0 140 100" xml:space="preserve">
<g>
	<path fill="#FFFFFF" d="M20.911,90.911c0,3.422-2.8,6.067-6.067,6.067c-3.422,0-6.067-2.8-6.067-6.067V54.978
		c0-3.422,2.8-6.067,6.067-6.067c3.422,0,6.067,2.8,6.067,6.067V90.911z"/>
	<path opacity="0.6" fill="#FFFFFF" enable-background="new    " d="M-7.867,45.333c0,2.022-1.556,3.578-3.578,3.578h-4.978
		c-2.022,0-3.578-1.556-3.578-3.578V34.6c0-2.022,1.556-3.578,3.578-3.578h4.978c2.022,0,3.578,1.556,3.578,3.578V45.333z"/>
	<path fill="#FFFFFF" d="M36.778,19.667H-2.889c-4.356,0-8.4,3.578-8.4,8.089v25.978c0,4.356,4.2,8.089,8.556,8.089h39.511
		C36.778,61.822,36.778,19.667,36.778,19.667z"/>
	<path opacity="0.6" fill="#FFFFFF" enable-background="new    " d="M66.022,7.067c-0.933,0-1.556,0.156-2.178,0.467
		c-0.467,0.156-34.533,13.222-34.533,13.222v39.2c0,0,34.378,13.378,34.689,13.378c0.622,0.311,1.244,0.467,2.022,0.467
		c3.889,0,6.689-3.111,6.689-7.156V14.378C72.711,10.178,69.911,7.067,66.022,7.067z"/>
</g>
<line fill="none" stroke="#FFFFFF" stroke-width="6.2222" stroke-linecap="round" stroke-miterlimit="10" x1="90.133" y1="21.689" x2="108.8" y2="3.022"/>
<line fill="none" stroke="#FFFFFF" stroke-width="6.2222" stroke-linecap="round" stroke-miterlimit="10" x1="108.8" y1="75.667" x2="90.133" y2="57"/>
<line fill="none" stroke="#FFFFFF" stroke-width="6.2222" stroke-linecap="round" stroke-miterlimit="10" x1="89.822" y1="39.578" x2="120" y2="39.578"/>
</svg>
