<svg xmlns="http://www.w3.org/2000/svg" viewBox="200 440 320 320" enable-background="new 200 440 320 320"><circle fill="#DDDCDC" cx="360" cy="600" r="160"/><path fill="#59C9BE" stroke="#30BCAE" stroke-width=".889" stroke-miterlimit="10" d="M473.1 519h-226c-4 0-7.4 3-7.4 7v151c0 4 3.4 7.3 7.4 7.3h225.99999999999997c4 0 7.2-3.3 7.2-7.3v-151c0-4-3.2-7-7.2-7z"/><path fill="#319B9B" d="M330.6 701c-3.7 3.7-8.8 7.2-6.8 9 .5 1.1 2.8 1.7 8 1.7h58.599999999999994c5.9 0 8-1 8-2.4h-.2v-.5h-.2c-.3-1.9-4.2-4.8-7.2-7.9-4.6-4.7-5.4-14.5-5.5-16.8h-49.2c-.1 2.4-.8 12.1-5.5 16.9z"/><path fill="#fff" d="M470.2 652.8h-220.4v-124.2h220.3v124.2h.1z"/><rect x="249.8" y="528.6" width="220.3" height="124.2" fill="none"/><circle fill="#319B9B" cx="360" cy="669.6" r="5"/><g fill="#005CB9"><rect x="317.9" y="562.2" width="18.8" height="80.5"/><rect x="285.2" y="539.2" width="18.8" height="103.5"/><rect x="350.6" y="585.2" width="18.8" height="57.5"/><rect x="383.3" y="608.2" width="18.8" height="34.5"/><rect x="416" y="631.2" width="18.8" height="11.5"/></g><g fill="#009ECA"><rect x="317.9" y="562.2" width="17.2" height="80.5"/><rect x="285.2" y="539.2" width="17.2" height="103.5"/><rect x="350.6" y="585.2" width="17.2" height="57.5"/><rect x="383.3" y="608.2" width="17.2" height="34.5"/><rect x="416" y="631.2" width="17.2" height="11.5"/></g><line stroke="#30BCAE" stroke-width="1.776" stroke-linecap="round" stroke-miterlimit="10" x1="470" y1="528.6" x2="250" y2="528.6" fill="none"/><polyline opacity=".39" fill="#fff" enable-background="new" points="251.8,651.2 468.5,530.3 251.5,530.3 251.5,651.2"/></svg>