<?xml version="1.0" encoding="utf-8"?>
<!-- Generator: Adobe Illustrator 17.1.0, SVG Export Plug-In . SVG Version: 6.00 Build 0)  -->
<!DOCTYPE svg PUBLIC "-//W3C//DTD SVG 1.1//EN" "http://www.w3.org/Graphics/SVG/1.1/DTD/svg11.dtd">
<svg version="1.1" id="Layer_1" xmlns="http://www.w3.org/2000/svg" xmlns:xlink="http://www.w3.org/1999/xlink" x="0px" y="0px"
	 viewBox="-10 -10 120 120" enable-background="new -10 -10 120 120" xml:space="preserve">
<path fill="#FFFFFF" d="M38.96,50.02c0,9.84,4.08,18.72,10.32,25.2c7.2-6,11.76-15.12,11.76-25.2s-4.56-19.2-11.76-25.2
	C42.8,31.3,38.96,40.18,38.96,50.02z M74.48,14.5c-7.92,0-15.12,2.64-20.88,6.96c7.92,6.96,12.96,17.28,12.96,28.8
	s-5.04,21.6-12.96,28.8c6,4.32,13.2,6.96,20.88,6.96C94.16,85.54,110,69.7,110,50.02S94.16,14.5,74.48,14.5z M28.16,82.9
	c-18,0-32.88-14.88-32.88-32.88S9.92,17.14,28.16,17.14c7.92,0,15.36,2.88,21.12,7.68c1.2-1.2,2.64-2.4,4.08-3.6
	c-6.72-6-15.6-9.6-25.2-9.6C7.04,11.86-10,28.9-10,50.02S7.04,88.18,28.16,88.18c9.6,0,18.48-3.6,25.2-9.6
	c-1.44-0.96-2.88-2.16-4.08-3.6C43.52,80.02,36.32,82.9,28.16,82.9z"/>
</svg>
