<svg xmlns="http://www.w3.org/2000/svg" viewBox="0 0 50 50" enable-background="new 0 0 50 50"><g fill="#fff"><path d="M20.4 25c0 4.1 1.7 7.8 4.3 10.5 3-2.5 4.9-6.3 4.9-10.5s-1.9-8-4.9-10.5c-2.7 2.7-4.3 6.4-4.3 10.5zM35.2 10.2c-3.3 0-6.3 1.1-8.7 2.9 3.3 2.9 5.4 7.2 5.4 12s-2.1 9-5.4 12c2.5 1.8 5.5 2.9 8.7 2.9 8.2-.2 14.8-6.8 14.8-15s-6.6-14.8-14.8-14.8zM15.9 38.7c-7.5 0-13.7-6.2-13.7-13.7s6.1-13.7 13.7-13.7c3.3 0 6.4 1.2 8.8 3.2.5-.5 1.1-1 1.7-1.5-2.8-2.5-6.5-4-10.5-4-8.8.1-15.9 7.2-15.9 16s7.1 15.9 15.9 15.9c4 0 7.7-1.5 10.5-4-.6-.4-1.2-.9-1.7-1.5-2.4 2.1-5.4 3.3-8.8 3.3z"/></g></svg>