<?xml version="1.0" encoding="utf-8"?>
<!-- Generator: Adobe Illustrator 17.1.0, SVG Export Plug-In . SVG Version: 6.00 Build 0)  -->
<!DOCTYPE svg PUBLIC "-//W3C//DTD SVG 1.1//EN" "http://www.w3.org/Graphics/SVG/1.1/DTD/svg11.dtd">
<svg version="1.1" id="Layer_1" xmlns="http://www.w3.org/2000/svg" xmlns:xlink="http://www.w3.org/1999/xlink" x="0px" y="0px"
	 viewBox="-50 -50 200 200" enable-background="new -50 -50 200 200" xml:space="preserve">
<circle fill="#DDDCDC" cx="50" cy="50" r="100"/>
<path opacity="0.2" fill="#4C4B4C" enable-background="new    " d="M110.187,6.625c-0.063-2.375-2-4.25-4.375-4.25
	c-33.062,0-48.875-12.875-49-12.938c-1.625-1.375-4.062-1.375-5.688,0c-0.125,0.125-16,13-49.062,13
	c-2.375,0-4.313,1.875-4.375,4.25c-0.125,4-2.375,98.25,54.812,118.438c0.5,0.187,0.938,0.25,1.438,0.25s1-0.062,1.438-0.25
	C112.562,104.938,110.312,10.625,110.187,6.625z"/>
<path fill="#30BCAE" d="M106.062-0.5c-0.063-2.375-2-4.25-4.375-4.25c-33.063,0-48.875-12.875-49-12.938
	c-1.625-1.375-4.062-1.375-5.688,0c-0.125,0.125-16,13-49.062,13c-2.375,0-4.313,1.875-4.375,4.25
	c-0.125,4-2.375,98.25,54.812,118.437c0.5,0.187,0.938,0.25,1.438,0.25s1-0.062,1.438-0.25C108.5,97.75,106.188,3.5,106.062-0.5z"/>
<path fill="#59C9BE" d="M106.062-3.562c-0.063-2.375-2-4.25-4.375-4.25c-33.063,0-48.875-12.875-49-12.938
	c-1.625-1.375-4.062-1.375-5.688,0c-0.125,0.125-16,13-49.062,13c-2.375,0-4.313,1.875-4.375,4.25
	c-0.125,4-2.375,98.25,54.812,118.438c0.5,0.187,0.938,0.25,1.438,0.25s1-0.063,1.438-0.25
	C108.5,94.688,106.188,0.437,106.062-3.562z"/>
<path fill="#59C9BE" d="M106.062-3.562c-0.063-2.375-2-4.25-4.375-4.25c-33.063,0-48.875-12.875-49-12.938
	c-1.625-1.375-4.062-1.375-5.688,0c-0.125,0.125-16,13-49.062,13c-2.375,0-4.313,1.875-4.375,4.25
	c-0.125,4-2.375,98.25,54.812,118.438c0.5,0.187,0.938,0.25,1.438,0.25s1-0.063,1.438-0.25
	C108.5,94.688,106.188,0.437,106.062-3.562z"/>
<path fill="#FFFFFF" d="M94.312,6.937c-0.063-1.875-1.625-3.375-3.5-3.375c-26.125,0-38.687-10.188-38.75-10.25
	c-1.313-1.125-3.188-1.125-4.5,0C47.437-6.563,34.937,3.562,8.75,3.562c-1.875,0-3.438,1.5-3.5,3.375
	c-0.125,3.187-1.875,77.75,43.375,93.75c0.375,0.125,0.75,0.188,1.187,0.188c0.375,0,0.813-0.063,1.187-0.188
	C96.25,84.688,94.437,10.063,94.312,6.937z"/>
<polygon fill="#005CB9" points="89.188,24.062 79.562,14.437 40.5,53.438 29.563,42.437 19.938,52.062 40.5,72.688 40.5,72.625 
	40.562,72.688 "/>
<polygon fill="#009ECA" points="88.125,23.062 78.5,13.438 39.5,52.437 28.5,41.438 18.875,51.062 39.438,71.625 39.5,71.625 
	39.562,71.625 "/>
<path opacity="0.25" fill="#FFFFFF" enable-background="new    " d="M52.688-20.812c-1.625-1.375-4.062-1.375-5.688,0
	c-0.125,0.125-16,13-49.062,13c-2.375,0-4.313,1.875-4.375,4.25C-6.5-1.562-7.125,23.062-0.5,49.75l64.375-64.375
	C56.438-17.75,52.75-20.75,52.688-20.812z"/>
</svg>
