<svg xmlns="http://www.w3.org/2000/svg" viewBox="0 0 320 320" enable-background="new 0 0 320 320"><circle fill="#DDDCDC" cx="160" cy="160" r="160"/><path fill="#4C4B4C" d="M256.3 90.6c-.1-3.8-3.2-6.8-7-6.8-52.9 0-78.2-20.6-78.4-20.7-2.6-2.2-6.5-2.2-9.1 0-.2.2-25.6 20.8-78.5 20.8-3.8 0-6.9 3-7 6.8-.2 6.4-3.8 157.2 87.7 189.5.8.3 1.5.4 2.3.4.8 0 1.6-.1 2.3-.4 91.5-32.3 87.9-183.2 87.7-189.6z" opacity=".2"/><path fill="#30BCAE" d="M249.7 79.2c-.1-3.8-3.2-6.8-7-6.8-52.9 0-78.2-20.6-78.4-20.7-2.6-2.2-6.5-2.2-9.1 0-.2.2-25.6 20.8-78.5 20.8-3.8 0-6.9 3-7 6.8-.2 6.4-3.8 157.2 87.7 189.5.8.3 1.5.4 2.3.4.8 0 1.6-.1 2.3-.4 91.6-32.4 87.9-183.2 87.7-189.6z"/><path fill="#59C9BE" d="M249.7 74.3c-.1-3.8-3.2-6.8-7-6.8-52.9 0-78.2-20.6-78.4-20.7-2.6-2.2-6.5-2.2-9.1 0-.2.2-25.6 20.8-78.5 20.8-3.8 0-6.9 3-7 6.8-.2 6.4-3.8 157.2 87.7 189.5.8.3 1.5.4 2.3.4.8 0 1.6-.1 2.3-.4 91.6-32.4 87.9-183.2 87.7-189.6z"/><path fill="#59C9BE" d="M249.7 74.3c-.1-3.8-3.2-6.8-7-6.8-52.9 0-78.2-20.6-78.4-20.7-2.6-2.2-6.5-2.2-9.1 0-.2.2-25.6 20.8-78.5 20.8-3.8 0-6.9 3-7 6.8-.2 6.4-3.8 157.2 87.7 189.5.8.3 1.5.4 2.3.4.8 0 1.6-.1 2.3-.4 91.6-32.4 87.9-183.2 87.7-189.6z"/><path fill="#fff" d="M230.9 91.1c-.1-3-2.6-5.4-5.6-5.4-41.8 0-61.9-16.3-62-16.4-2.1-1.8-5.1-1.8-7.2 0-.2.2-20.2 16.4-62.1 16.4-3 0-5.5 2.4-5.6 5.4-.2 5.1-3 124.4 69.4 150 .6.2 1.2.3 1.9.3.6 0 1.3-.1 1.9-.3 72.4-25.6 69.5-145 69.3-150z"/><polygon fill="#005CB9" points="222.7,118.5 207.3,103.1 144.8,165.5 127.3,147.9 111.9,163.3 144.8,196.3 144.8,196.2 144.9,196.3"/><polygon fill="#009ECA" points="221,116.9 205.6,101.5 143.2,163.9 125.6,146.3 110.2,161.7 143.1,194.6 143.2,194.6 143.3,194.6"/><path fill="#fff" d="M164.3 46.7c-2.6-2.2-6.5-2.2-9.1 0-.2.2-25.6 20.8-78.5 20.8-3.8 0-6.9 3-7 6.8-.1 3.2-1.1 42.6 9.5 85.3l103-103c-11.9-5-17.8-9.8-17.9-9.9z" opacity=".25"/></svg>