<svg xmlns="http://www.w3.org/2000/svg" viewBox="0 0 50 50" enable-background="new 0 0 50 50"><path fill="#fff" d="M25 48c-.4 0-.8-.2-1.1-.4l-19.1-19.1c-3.1-3.2-4.8-7.2-4.8-11.4 0-4 1.6-7.8 4.5-10.7 2.9-2.8 6.7-4.4 10.7-4.4 3.6 0 7 1.2 9.8 3.5 2.7-2.2 6.2-3.5 9.8-3.5 4.1 0 7.9 1.6 10.8 4.4 2.9 2.9 4.5 6.7 4.5 10.7 0 4.2-1.7 8.2-4.9 11.4-4.3 4.3-10.2 10.2-14.3 14.4l-4.7 4.7c-.4.2-.8.4-1.2.4zm-9.8-43c-3.2 0-6.3 1.3-8.6 3.6s-3.6 5.3-3.6 8.5c0 3.4 1.4 6.7 4 9.3l18 18 3.7-3.7c4.2-4.2 10.1-10.1 14.3-14.4 2.6-2.6 4-5.9 4-9.3 0-3.2-1.3-6.2-3.6-8.5-2.3-2.2-5.4-3.5-8.6-3.5-3.3 0-6.4 1.3-8.7 3.6-.3.3-.7.4-1.1.4-.4 0-.8-.2-1.1-.4-2.3-2.3-5.4-3.6-8.7-3.6z"/></svg>