<?xml version="1.0" encoding="utf-8"?>
<!-- Generator: Adobe Illustrator 17.1.0, SVG Export Plug-In . SVG Version: 6.00 Build 0)  -->
<!DOCTYPE svg PUBLIC "-//W3C//DTD SVG 1.1//EN" "http://www.w3.org/Graphics/SVG/1.1/DTD/svg11.dtd">
<svg version="1.1" id="Layer_1" xmlns="http://www.w3.org/2000/svg" xmlns:xlink="http://www.w3.org/1999/xlink" x="0px" y="0px"
	 viewBox="-10 -10 120 120" enable-background="new -10 -10 120 120" xml:space="preserve">
<path fill="#FFFFFF" d="M49.88,105.09c-0.958,0-1.916-0.479-2.635-0.958L1.497,58.383C-5.928,50.719-10,41.138-10,31.078
	c0-9.581,3.832-18.683,10.778-25.629C7.725-1.257,16.826-5.09,26.407-5.09c8.623,0,16.766,2.874,23.473,8.383
	c6.467-5.269,14.85-8.383,23.473-8.383c9.82,0,18.922,3.832,25.868,10.539C106.168,12.395,110,21.497,110,31.078
	c0,10.06-4.072,19.641-11.737,27.305C87.964,68.683,73.832,82.814,64.012,92.874l-11.257,11.257
	C51.796,104.611,50.838,105.09,49.88,105.09z M26.407,2.096c-7.665,0-15.09,3.114-20.599,8.623s-8.623,12.695-8.623,20.359
	c0,8.144,3.353,16.048,9.581,22.275L49.88,96.467l8.862-8.862c10.06-10.06,24.192-24.192,34.251-34.491
	c6.228-6.228,9.581-14.132,9.581-22.275c0-7.665-3.114-14.85-8.623-20.359C88.443,5.21,81.018,2.096,73.353,2.096
	c-7.904,0-15.329,3.114-20.838,8.623c-0.719,0.719-1.677,0.958-2.635,0.958c-0.958,0-1.916-0.479-2.635-0.958
	C41.737,5.21,34.311,2.096,26.407,2.096z"/>
</svg>
