<svg xmlns="http://www.w3.org/2000/svg" viewBox="0 0 320 320" enable-background="new 0 0 320 320"><circle fill="#DDDCDC" cx="160" cy="160" r="160"/><path fill="#EEEEED" d="M160 320c64.1 0 119.4-37.7 144.9-92.1h-289.8c25.5 54.4 80.8 92.1 144.9 92.1z"/><path opacity=".5" fill="#A0A0A0" d="M254.7 233.2c0 11.9 6.8 22.3 16.8 27.3v4.2c-2.8.4-5.6.6-8.5.6-17.8 0-33.8-7.5-45.2-19.4-6.9 1.8-14.1 2.8-21.7 2.8-41.6 0-75.4-30-75.4-67s33.8-67 75.4-67c41.7 0 75.4 30 75.4 67 0 14.5-5.2 27.9-14 38.9-1.8 3.7-2.8 8.1-2.8 12.6"/><path opacity=".75" fill="#319B9B" d="M146.9 57.5c53.4 0 98.4 36.3 99.7 79.4-9.4-4.2-21.5-8.1-32.3-8.1-18.3 0-35.6 6.4-48.7 18-13.6 12.1-21.1 28.3-21.1 45.6 0 8.6 1.8 16.9 5.3 24.5h-3c-5.2 0-10.3-.3-15.3-1-21.1 21.1-49.3 22.7-73.8 22.2l3.3-1.9c13.1-6.4 24.5-18.2 24.5-31.6 0-1.9-.1-5.3-.4-7.1-22.1-14.5-36.3-35.2-36.3-60.2 0-44.1 43.9-79.8 98.1-79.8"/><path fill="#59C9BE" d="M143.6 54.3c53.4 0 96.8 34.6 98.1 77.7-9.4-4.2-19.9-6.4-30.6-6.4-18.3 0-35.6 6.4-48.7 18-13.6 12.1-22.7 25-22.7 42.3 0 8.6 1.8 16.9 5.3 24.5h-3c-5.2 0-10.3-.3-15.3-1-21.1 21.1-44.6 28.1-68.9 28.7v-5.1c13.1-6.4 24.5-18.2 24.5-31.6 0-1.9-.1-3.7-.4-5.5-22.2-14.6-36.4-36.9-36.4-62 0-43.9 43.9-79.6 98.1-79.6"/><path fill="#fff" d="M249.8 233.2c0 11.9 6.8 22.3 16.8 27.3v4.2c-2.8.4-5.6.6-8.5.6-17.8 0-33.8-7.5-45.2-19.4-6.9 1.8-14.1 2.8-21.7 2.8-41.6 0-75.4-30-75.4-67s33.8-67 75.4-67c41.7 0 75.4 30 75.4 67 0 14.5-5.2 27.9-14 38.9-1.8 3.7-2.8 8.1-2.8 12.6"/><path fill="#005CB9" d="M192.8 230l38.1-38.1c11.8-11.8 11.6-29.1.8-39.8-10.8-10.7-28.2-10.7-38.9.1-10.7-10.8-28.1-10.8-38.9-.1-10.8 10.7-11 28 .8 39.8 13.2 13.3 34.4 34.4 38.1 38.1"/><path fill="#009ECA" d="M189.5 226.8l38.1-38.1c11.8-11.8 11.6-29.1.8-39.8-10.8-10.7-28.2-10.7-38.9.1-10.7-10.8-28.1-10.8-38.9-.1-10.8 10.7-11 28 .8 39.8l38.1 38.1"/></svg>