<?xml version="1.0" encoding="utf-8"?>
<!-- Generator: Adobe Illustrator 17.1.0, SVG Export Plug-In . SVG Version: 6.00 Build 0)  -->
<!DOCTYPE svg PUBLIC "-//W3C//DTD SVG 1.1//EN" "http://www.w3.org/Graphics/SVG/1.1/DTD/svg11.dtd">
<svg version="1.1" id="Layer_1" xmlns="http://www.w3.org/2000/svg" xmlns:xlink="http://www.w3.org/1999/xlink" x="0px" y="0px"
	 viewBox="-50 -50 200 200" enable-background="new -50 -50 200 200" xml:space="preserve">
<circle fill="#DDDCDC" cx="50" cy="50" r="100"/>
<path opacity="0.5" fill="#A0A0A0" enable-background="new    " d="M109.188,95.75c0,7.437,4.25,13.938,10.5,17.062v2.625
	c-1.75,0.25-3.5,0.375-5.312,0.375c-11.125,0-21.125-4.688-28.25-12.125c-4.312,1.125-8.812,1.75-13.562,1.75
	c-26,0-47.125-18.75-47.125-41.875s21.125-41.875,47.125-41.875c26.062,0,47.125,18.75,47.125,41.875
	c0,9.062-3.25,17.438-8.75,24.313C109.812,90.188,109.188,92.938,109.188,95.75"/>
<path opacity="0.75" fill="#319B9B" enable-background="new    " d="M41.812-14.062c33.375,0,61.5,22.688,62.312,49.625
	C98.25,32.938,90.687,30.5,83.937,30.5c-11.438,0-22.25,4-30.438,11.25c-8.5,7.563-13.188,17.688-13.188,28.5
	c0,5.375,1.125,10.562,3.312,15.312H41.75c-3.25,0-6.438-0.188-9.562-0.625C19,98.125,1.375,99.125-13.938,98.812l2.062-1.187
	c8.188-4,15.313-11.375,15.313-19.75c0-1.187-0.062-3.312-0.25-4.438c-13.812-9.062-22.688-22-22.688-37.625
	C-19.5,8.25,7.937-14.063,41.812-14.062"/>
<path fill="#59C9BE" d="M39.75-16.062c33.375,0,60.5,21.625,61.313,48.562c-5.875-2.625-12.437-4-19.125-4
	c-11.438,0-22.25,4-30.437,11.25C43,47.313,37.313,55.375,37.313,66.188c0,5.375,1.125,10.562,3.312,15.312H38.75
	c-3.25,0-6.438-0.188-9.562-0.625C16,94.063,1.313,98.438-13.875,98.812v-3.188c8.187-4,15.312-11.375,15.312-19.75
	c0-1.188-0.062-2.312-0.25-3.438c-13.875-9.125-22.75-23.062-22.75-38.75C-21.562,6.25,5.875-16.063,39.75-16.062"/>
<path fill="#FFFFFF" d="M106.125,95.75c0,7.437,4.25,13.938,10.5,17.062v2.625c-1.75,0.25-3.5,0.375-5.312,0.375
	c-11.125,0-21.125-4.688-28.25-12.125c-4.312,1.125-8.813,1.75-13.562,1.75c-26,0-47.125-18.75-47.125-41.875
	S43.5,21.688,69.5,21.688c26.062,0,47.125,18.75,47.125,41.875c0,9.062-3.25,17.438-8.75,24.313
	C106.75,90.188,106.125,92.938,106.125,95.75"/>
<path fill="#005CB9" d="M70.5,93.75l23.812-23.812c7.375-7.375,7.25-18.188,0.5-24.875S77.188,38.375,70.5,45.125
	c-6.688-6.75-17.563-6.75-24.312-0.063c-6.75,6.688-6.875,17.5,0.5,24.875C54.937,78.25,68.188,91.437,70.5,93.75"/>
<path fill="#009ECA" d="M68.438,91.75L92.25,67.938c7.375-7.375,7.25-18.188,0.5-24.875c-6.75-6.688-17.625-6.688-24.313,0.062
	c-6.688-6.75-17.563-6.75-24.312-0.062c-6.75,6.687-6.875,17.5,0.5,24.875L68.438,91.75"/>
</svg>
