<?xml version="1.0" encoding="utf-8"?>
<!-- Generator: Adobe Illustrator 17.1.0, SVG Export Plug-In . SVG Version: 6.00 Build 0)  -->
<!DOCTYPE svg PUBLIC "-//W3C//DTD SVG 1.1//EN" "http://www.w3.org/Graphics/SVG/1.1/DTD/svg11.dtd">
<svg version="1.1" id="Layer_1" xmlns="http://www.w3.org/2000/svg" xmlns:xlink="http://www.w3.org/1999/xlink" x="0px" y="0px"
	 viewBox="0 0 320 320" enable-background="new 0 0 320 320" xml:space="preserve">
<circle fill="#DDDCDC" cx="160" cy="160" r="160"/>
<path fill="#EEEEED" d="M160,320c64.1,0,119.4-37.7,144.9-92.1H15.1C40.6,282.3,95.9,320,160,320z"/>
<path opacity="0.5" fill="#A0A0A0" d="M254.7,233.2c0,11.9,6.8,22.3,16.8,27.3v4.2c-2.8,0.4-5.6,0.6-8.5,0.6
	c-17.8,0-33.8-7.5-45.2-19.4c-6.9,1.8-14.1,2.8-21.7,2.8c-41.6,0-75.4-30-75.4-67c0-37,33.8-67,75.4-67c41.7,0,75.4,30,75.4,67
	c0,14.5-5.2,27.9-14,38.9C255.7,224.3,254.7,228.7,254.7,233.2"/>
<path opacity="0.75" fill="#319B9B" d="M146.9,57.5c53.4,0,98.4,36.3,99.7,79.4c-9.4-4.2-21.5-8.1-32.3-8.1
	c-18.3,0-35.6,6.4-48.7,18c-13.6,12.1-21.1,28.3-21.1,45.6c0,8.6,1.8,16.9,5.3,24.5c-1,0-2,0-3,0c-5.2,0-10.3-0.3-15.3-1
	c-21.1,21.1-49.3,22.7-73.8,22.2l3.3-1.9c13.1-6.4,24.5-18.2,24.5-31.6c0-1.9-0.1-5.3-0.4-7.1C63,183,48.8,162.3,48.8,137.3
	C48.8,93.2,92.7,57.5,146.9,57.5"/>
<path fill="#59C9BE" d="M143.6,54.3c53.4,0,96.8,34.6,98.1,77.7c-9.4-4.2-19.9-6.4-30.6-6.4c-18.3,0-35.6,6.4-48.7,18
	c-13.6,12.1-22.7,25-22.7,42.3c0,8.6,1.8,16.9,5.3,24.5c-1,0-2,0-3,0c-5.2,0-10.3-0.3-15.3-1c-21.1,21.1-44.6,28.1-68.9,28.7V233
	c13.1-6.4,24.5-18.2,24.5-31.6c0-1.9-0.1-3.7-0.4-5.5c-22.2-14.6-36.4-36.9-36.4-62C45.5,90,89.4,54.3,143.6,54.3"/>
<path fill="#FFFFFF" d="M249.8,233.2c0,11.9,6.8,22.3,16.8,27.3v4.2c-2.8,0.4-5.6,0.6-8.5,0.6c-17.8,0-33.8-7.5-45.2-19.4
	c-6.9,1.8-14.1,2.8-21.7,2.8c-41.6,0-75.4-30-75.4-67c0-37,33.8-67,75.4-67c41.7,0,75.4,30,75.4,67c0,14.5-5.2,27.9-14,38.9
	C250.8,224.3,249.8,228.7,249.8,233.2"/>
<g>
	<path fill="#005CB9" d="M192.8,230c3.7-3.7,24.9-24.9,38.1-38.1c11.8-11.8,11.6-29.1,0.8-39.8c-10.8-10.7-28.2-10.7-38.9,0.1
		c-10.7-10.8-28.1-10.8-38.9-0.1c-10.8,10.7-11,28,0.8,39.8C167.9,205.2,189.1,226.3,192.8,230"/>
</g>
<g>
	<path fill="#009ECA" d="M189.5,226.8c3.7-3.7,24.9-24.9,38.1-38.1c11.8-11.8,11.6-29.1,0.8-39.8c-10.8-10.7-28.2-10.7-38.9,0.1
		c-10.7-10.8-28.1-10.8-38.9-0.1c-10.8,10.7-11,28,0.8,39.8C164.6,201.9,185.8,223.1,189.5,226.8"/>
</g>
</svg>
