<?xml version="1.0" encoding="utf-8"?>
<!-- Generator: Adobe Illustrator 17.1.0, SVG Export Plug-In . SVG Version: 6.00 Build 0)  -->
<!DOCTYPE svg PUBLIC "-//W3C//DTD SVG 1.1//EN" "http://www.w3.org/Graphics/SVG/1.1/DTD/svg11.dtd">
<svg version="1.1" id="Layer_1" xmlns="http://www.w3.org/2000/svg" xmlns:xlink="http://www.w3.org/1999/xlink" x="0px" y="0px"
	 viewBox="116 386 200 200" enable-background="new 116 386 200 200" xml:space="preserve">
<circle fill="#DDDCDC" cx="216" cy="486" r="100"/>
<path opacity="0.2" fill="#4C4B4C" enable-background="new    " d="M222.363,419.762h-8.812c-0.511,0-0.926,0.415-0.926,0.926
	s0.415,0.926,0.926,0.926h3.512v6.762c0,0.511,0.415,0.926,0.926,0.926s0.926-0.415,0.926-0.926v-6.762h3.449
	c0.511,0,0.926-0.415,0.926-0.926S222.875,419.762,222.363,419.762z"/>
<g opacity="0.2">
	<path fill="#4C4B4C" d="M218.315,444.627c-26.875,0-48.625,21.75-48.625,48.625s21.75,48.625,48.625,48.625
		s48.625-21.812,48.625-48.625C266.94,466.377,245.19,444.627,218.315,444.627z"/>
	<path fill="#4C4B4C" d="M281.127,493.502c0-21.78-11.09-40.97-27.928-52.238c0.029-0.031,0.061-0.059,0.086-0.096l2.971-4.263
		l15.496,10.847c3.22-4.562,3.334-10.37,0.804-14.932c-0.759-1.667-2.142-3.231-4.242-4.693l-3.988-2.802l1.896-2.72
		c0.293-0.419,0.189-0.997-0.23-1.289c-0.419-0.293-0.996-0.189-1.289,0.23l-1.892,2.714l-2.059-1.447
		c-6.375-4.438-15.125-2.875-19.625,3.5l13.612,9.528l-2.974,4.266c-0.037,0.054-0.068,0.11-0.092,0.167
		c-9.667-6.072-21.102-9.587-33.359-9.587l0,0c-34.688,0-62.812,28.125-62.812,62.813c0,20.564,9.886,38.821,25.163,50.28
		l-3.806,9.055c-0.297,0.707,0.035,1.521,0.742,1.819c0.176,0.074,0.358,0.109,0.538,0.109c0.543,0,1.058-0.319,1.281-0.851
		l3.563-8.476c10.067,6.863,22.231,10.877,35.332,10.877c12.437,0,24.03-3.617,33.786-9.854l3.133,7.452
		c0.223,0.531,0.739,0.851,1.281,0.851c0.18,0,0.362-0.035,0.538-0.109c0.707-0.298,1.039-1.111,0.742-1.819l-3.344-7.956
		C270.584,533.513,281.127,514.738,281.127,493.502z M218.315,541.877c-26.875,0-48.625-21.75-48.625-48.625
		s21.75-48.625,48.625-48.625s48.625,21.75,48.625,48.625C266.94,520.065,245.19,541.877,218.315,541.877z"/>
	<path fill="#4C4B4C" d="M178.693,437.994l2.212,3.174c0.18,0.258,0.468,0.396,0.761,0.396c0.183,0,0.367-0.054,0.529-0.166
		c0.419-0.292,0.523-0.869,0.23-1.289l-2.214-3.177l15.168-10.618c-2.899-4.107-7.562-6.213-12.218-6.007
		c-2.301-0.135-4.769,0.67-7.407,2.507l-3.613,2.538l-2.653-3.806c-0.292-0.42-0.869-0.523-1.289-0.23
		c-0.419,0.292-0.523,0.869-0.23,1.289l2.656,3.812l-2.434,1.71c-6.375,4.437-7.938,13.25-3.438,19.625L178.693,437.994z"/>
</g>
<line fill="none" stroke="#30BCAE" stroke-width="2.7778" stroke-linecap="round" stroke-miterlimit="10" x1="180.875" y1="543.562" x2="176.75" y2="553.375"/>
<line fill="none" stroke="#30BCAE" stroke-width="2.7778" stroke-linecap="round" stroke-miterlimit="10" x1="251" y1="543.562" x2="255.125" y2="553.375"/>
<line fill="none" stroke="#009ECA" stroke-width="1.8519" stroke-linecap="round" stroke-miterlimit="10" x1="217.062" y1="428.375" x2="217.062" y2="420.688"/>
<line fill="none" stroke="#009ECA" stroke-width="1.8519" stroke-linecap="round" stroke-miterlimit="10" x1="212.625" y1="420.688" x2="221.438" y2="420.688"/>
<line fill="none" stroke="#005CB9" stroke-width="1.8519" stroke-linecap="round" stroke-miterlimit="10" x1="179.812" y1="439.25" x2="166.875" y2="420.688"/>
<line fill="none" stroke="#005CB9" stroke-width="1.8519" stroke-linecap="round" stroke-miterlimit="10" x1="252.062" y1="439.25" x2="265" y2="420.688"/>
<path opacity="0.05" fill="#DDDCDC" enable-background="new    " d="M265.062,490.875c0,27.062-21.938,49.062-49.062,49.062
	c-27.062,0-49.062-21.938-49.062-49.062c0-27.062,21.938-49.062,49.062-49.062C243.062,441.875,265.062,463.812,265.062,490.875z"/>
<path fill="#D8D1CA" d="M215.875,431.562c-32.75,0-59.312,26.562-59.312,59.312c0,32.75,26.562,59.312,59.312,59.312
	c32.75,0,59.312-26.562,59.312-59.312C275.188,458.125,248.625,431.562,215.875,431.562L215.875,431.562z M215.875,539.562
	c-26.875,0-48.625-21.75-48.625-48.625s21.75-48.625,48.625-48.625c26.875,0,48.625,21.75,48.625,48.625
	C264.5,517.75,242.75,539.562,215.875,539.562z"/>
<path opacity="0.1" fill="#9E1E22" enable-background="new    " d="M215.875,431.562c-32.75,0-59.312,26.562-59.312,59.312
	c0,32.75,26.562,59.312,59.312,59.312c32.75,0,59.312-26.562,59.312-59.312C275.188,458.125,248.625,431.562,215.875,431.562
	L215.875,431.562z M215.875,539.562c-26.875,0-48.625-21.75-48.625-48.625s21.75-48.625,48.625-48.625
	c26.875,0,48.625,21.75,48.625,48.625C264.5,517.75,242.75,539.562,215.875,539.562z"/>
<path fill="none" d="M215.875,431.562c-32.75,0-59.312,26.562-59.312,59.312c0,32.75,26.562,59.312,59.312,59.312
	c32.75,0,59.312-26.562,59.312-59.312C275.188,458.125,248.625,431.562,215.875,431.562L215.875,431.562z M215.875,539.562
	c-26.875,0-48.625-21.75-48.625-48.625s21.75-48.625,48.625-48.625c26.875,0,48.625,21.75,48.625,48.625
	C264.5,517.75,242.75,539.562,215.875,539.562z"/>
<path fill="#319B9B" d="M264.625,490.875c0,26.875-21.75,48.625-48.625,48.625s-48.625-21.75-48.625-48.625
	S189.125,442.25,216,442.25S264.625,464.062,264.625,490.875z"/>
<path fill="#30BCAE" d="M216,428.375c-34.688,0-62.812,28.125-62.812,62.812S181.312,554,216,554s62.812-28.125,62.812-62.812
	S250.688,428.375,216,428.375L216,428.375z M216,539.562c-26.875,0-48.625-21.75-48.625-48.625s21.75-48.625,48.625-48.625
	s48.625,21.75,48.625,48.625C264.625,517.75,242.875,539.562,216,539.562z"/>
<path fill="#59C9BE" d="M215,428.375c-34.125,0-61.812,27.688-61.812,61.812S180.875,552,215,552s61.813-27.688,61.813-61.812
	S249.125,428.375,215,428.375z M215,537.75c-26.438,0-47.875-21.438-47.875-47.875C167.125,463.438,188.562,442,215,442
	s47.875,21.438,47.875,47.875S241.438,537.75,215,537.75L215,537.75z"/>
<path fill="#30BCAE" d="M264.625,493.625c0,26.875-21.75,48.625-48.625,48.625s-48.625-21.75-48.625-48.625S189.125,445,216,445
	S264.625,466.812,264.625,493.625z"/>
<path fill="#FFFFFF" d="M264.625,492.125c0,26.875-21.75,48.625-48.625,48.625s-48.625-21.75-48.625-48.625
	c0-26.875,21.75-48.625,48.625-48.625S264.625,465.312,264.625,492.125z"/>
<path fill="#005CB9" d="M237.125,472.438c-0.062-0.062-0.125-0.125-0.25-0.125c-1.562,0-12.875,10.062-19.25,15.812h-0.062
	c-3-5.75-16.562-31.875-18.25-31.875h-0.125c-0.375,0.187-1,0.5,5.875,17.125c2.812,6.812,5.875,13.875,7.188,16.938
	c-0.375,0.687-0.625,1.5-0.625,2.312c0,2.625,2.125,4.75,4.75,4.75c2.625,0,4.75-2.125,4.75-4.75l-0.062-0.437
	c2.062-2.25,4.75-5.25,7.25-8.125C237.938,473.25,237.375,472.688,237.125,472.438L237.125,472.438z"/>
<path fill="#009ECA" d="M237.125,471.5c-0.062-0.062-0.125-0.125-0.25-0.125c-1.562,0-12.875,10.062-19.25,15.812h-0.062
	c-3-5.75-16.562-31.875-18.25-31.875h-0.125c-0.375,0.188-1,0.5,5.875,17.188c2.812,6.812,5.875,13.875,7.188,16.938
	c-0.375,0.687-0.625,1.5-0.625,2.312c0,2.625,2.125,4.75,4.75,4.75c2.625,0,4.75-2.125,4.75-4.75l-0.062-0.438
	c2.062-2.25,4.75-5.25,7.25-8.125C237.938,472.312,237.375,471.812,237.125,471.5L237.125,471.5z"/>
<text transform="matrix(1 0 0 1 209.2594 454.4579)" fill="#009ECA" font-family="'Effra-Bold'" font-size="12.3562">12</text>
<text transform="matrix(1 0 0 1 212.5012 535.1855)" fill="#009ECA" font-family="'Effra-Bold'" font-size="12.3562">6</text>
<text transform="matrix(1 0 0 1 252.1406 494.8243)" fill="#009ECA" font-family="'Effra-Bold'" font-size="12.3562">3</text>
<text transform="matrix(1 0 0 1 170.9511 494.8243)" fill="#009ECA" font-family="'Effra-Bold'" font-size="12.3562">9</text>
<path fill="#009ECA" d="M183.938,473.062c0.375,0.125,0.5,0.562,0.375,0.875c-0.125,0.375-0.562,0.5-0.875,0.375l-6.375-2.688
	c-0.375-0.125-0.5-0.562-0.375-0.875c0.125-0.375,0.562-0.5,0.875-0.375L183.938,473.062z M195.812,460.25
	c0.188,0.312,0.125,0.75-0.188,0.938c-0.312,0.187-0.75,0.125-0.938-0.188l-3.875-5.625c-0.187-0.312-0.125-0.75,0.188-0.937
	c0.313-0.188,0.75-0.125,0.938,0.188L195.812,460.25z"/>
<path fill="#009ECA" d="M247.937,473.062c-0.375,0.125-0.5,0.562-0.375,0.875c0.125,0.375,0.563,0.5,0.875,0.375l6.313-2.688
	c0.375-0.125,0.5-0.562,0.375-0.875c-0.125-0.375-0.562-0.5-0.875-0.375L247.937,473.062z M236.062,460.25
	c-0.25,0.312-0.125,0.75,0.188,0.938c0.312,0.187,0.75,0.125,0.938-0.188l3.875-5.625c0.188-0.312,0.125-0.75-0.187-0.937
	c-0.313-0.188-0.75-0.125-0.937,0.188L236.062,460.25z"/>
<path fill="#009ECA" d="M183.938,508.312c0.375-0.125,0.5-0.562,0.375-0.875c-0.125-0.375-0.562-0.5-0.875-0.375l-6.375,2.688
	c-0.375,0.125-0.5,0.562-0.375,0.875c0.125,0.375,0.562,0.5,0.875,0.375L183.938,508.312z M195.812,521.125
	c0.188-0.312,0.125-0.75-0.188-0.938c-0.312-0.187-0.75-0.125-0.938,0.188L190.812,526c-0.187,0.312-0.125,0.75,0.188,0.937
	c0.313,0.188,0.75,0.125,0.938-0.188L195.812,521.125z"/>
<path fill="#009ECA" d="M247.937,508.312c-0.375-0.125-0.5-0.562-0.375-0.875c0.125-0.375,0.563-0.5,0.875-0.375l6.313,2.688
	c0.375,0.125,0.5,0.562,0.375,0.875c-0.125,0.375-0.562,0.5-0.875,0.375L247.937,508.312z M236.062,521.125
	c-0.25-0.312-0.125-0.75,0.188-0.938c0.312-0.187,0.75-0.125,0.938,0.188l3.875,5.625c0.188,0.312,0.125,0.75-0.187,0.937
	c-0.313,0.188-0.75,0.125-0.937-0.188L236.062,521.125z"/>
<path fill="#009ECA" d="M173.438,420.5l-7.562,5.312c-6.375,4.438-7.938,13.25-3.438,19.625L193.062,424
	C188.562,417.625,179.812,416.062,173.438,420.5z"/>
<path fill="#009ECA" d="M258.438,420.5l7.562,5.312c6.375,4.438,7.938,13.25,3.438,19.625L238.813,424
	C243.312,417.625,252.062,416.062,258.438,420.5z"/>
<path fill="#005CB9" d="M173.438,420.5l-7.562,5.312c-6.375,4.438-7.938,13.25-3.438,19.625L193.062,424
	C188.562,417.625,179.812,416.062,173.438,420.5z"/>
<path fill="#009ECA" d="M173.438,420.5l-7.562,5.312c-6.375,4.438-7.938,13.25-3.438,19.625L189.625,424
	C185.188,417.625,179.812,416.062,173.438,420.5z"/>
<path fill="#005CB9" d="M258.438,420.5l7.562,5.312c6.375,4.438,7.938,13.25,3.438,19.625L238.813,424
	C243.312,417.625,252.062,416.062,258.438,420.5z"/>
<path fill="#009ECA" d="M258.438,420.5l7.562,5.312c6.375,4.438,6.188,9.812,1.75,16.188l-28.938-18
	C243.312,417.625,252.062,416.062,258.438,420.5z"/>
</svg>
