<svg xmlns="http://www.w3.org/2000/svg" xmlns:xlink="http://www.w3.org/1999/xlink" viewBox="0 0 320 320" enable-background="new 0 0 320 320"><pattern y="50" width="117" height="117" patternUnits="userSpaceOnUse" viewBox="1 -118 117 117" overflow="visible"><polygon points="1,-1 118,-1 118,-118 1,-118" fill="none"/><image overflow="visible" width="1248" height="1248" xlink:href="3E00B1E31C5BC4CF.jpg" transform="matrix(.094 0 0 .094 1 -117.977)"/></pattern><circle fill="#DDDCDC" cx="160" cy="160" r="160"/><path fill="#EEEEED" d="M160 320c64.1 0 119.4-37.7 144.9-92.1h-289.8c25.5 54.4 80.8 92.1 144.9 92.1z"/><line stroke="#30BCAE" stroke-width="6" stroke-linecap="round" stroke-miterlimit="10" x1="103.8" y1="252.1" x2="97.2" y2="267.8" fill="none"/><line stroke="#30BCAE" stroke-width="6" stroke-linecap="round" stroke-miterlimit="10" x1="216" y1="252.1" x2="222.6" y2="267.8" fill="none"/><line stroke="#009ECA" stroke-width="4" stroke-linecap="round" stroke-miterlimit="10" x1="161.7" y1="67.8" x2="161.7" y2="55.5" fill="none"/><line stroke="#009ECA" stroke-width="4" stroke-linecap="round" stroke-miterlimit="10" x1="154.6" y1="55.5" x2="168.7" y2="55.5" fill="none"/><line stroke="#005CB9" stroke-width="4" stroke-linecap="round" stroke-miterlimit="10" x1="102.1" y1="85.2" x2="81.4" y2="55.5" fill="none"/><line stroke="#005CB9" stroke-width="4" stroke-linecap="round" stroke-miterlimit="10" x1="217.7" y1="85.2" x2="238.4" y2="55.5" fill="none"/><path opacity=".05" fill="#DDDCDC" d="M238.5 167.8c0 43.3-35.1 78.5-78.5 78.5-43.3 0-78.5-35.1-78.5-78.5 0-43.3 35.1-78.5 78.5-78.5 43.3.1 78.5 35.2 78.5 78.5z"/><path fill="#D8D1CA" d="M159.8 72.9c-52.4 0-94.9 42.5-94.9 94.9s42.5 94.9 94.9 94.9c52.4 0 94.9-42.5 94.9-94.9s-42.5-94.9-94.9-94.9zm0 172.8c-43 0-77.8-34.8-77.8-77.8s34.8-77.8 77.8-77.8 77.8 34.8 77.8 77.8c0 42.9-34.8 77.8-77.8 77.8z"/><path fill="#9E1E22" d="M159.8 72.9c-52.4 0-94.9 42.5-94.9 94.9s42.5 94.9 94.9 94.9c52.4 0 94.9-42.5 94.9-94.9s-42.5-94.9-94.9-94.9zm0 172.8c-43 0-77.8-34.8-77.8-77.8s34.8-77.8 77.8-77.8 77.8 34.8 77.8 77.8c0 42.9-34.8 77.8-77.8 77.8z" opacity=".1"/><g opacity=".05"><path fill="url(#SVGID_1_)" d="M159.8 72.9c-52.4 0-94.9 42.5-94.9 94.9s42.5 94.9 94.9 94.9c52.4 0 94.9-42.5 94.9-94.9s-42.5-94.9-94.9-94.9zm0 172.8c-43 0-77.8-34.8-77.8-77.8s34.8-77.8 77.8-77.8 77.8 34.8 77.8 77.8c0 42.9-34.8 77.8-77.8 77.8z"/></g><path fill="#319B9B" d="M237.8 167.8c0 43-34.8 77.8-77.8 77.8s-77.8-34.8-77.8-77.8 34.8-77.8 77.8-77.8 77.8 34.9 77.8 77.8z"/><path fill="#30BCAE" d="M160 67.8c-55.5 0-100.5 45-100.5 100.5s45 100.5 100.5 100.5 100.5-45 100.5-100.5-45-100.5-100.5-100.5zm0 177.9c-43 0-77.8-34.8-77.8-77.8s34.8-77.8 77.8-77.8 77.8 34.8 77.8 77.8c0 42.9-34.8 77.8-77.8 77.8z"/><path fill="#59C9BE" d="M158.4 67.8c-54.6 0-98.9 44.3-98.9 98.9 0 54.6 44.3 98.9 98.9 98.9 54.6 0 98.9-44.3 98.9-98.9 0-54.6-44.3-98.9-98.9-98.9zm0 175c-42.3 0-76.6-34.3-76.6-76.6s34.3-76.6 76.6-76.6 76.6 34.3 76.6 76.6-34.3 76.6-76.6 76.6z"/><path fill="#30BCAE" d="M237.8 172.2c0 43-34.8 77.8-77.8 77.8s-77.8-34.8-77.8-77.8 34.8-77.8 77.8-77.8 77.8 34.9 77.8 77.8z"/><path fill="#fff" d="M237.8 169.8c0 43-34.8 77.8-77.8 77.8s-77.8-34.8-77.8-77.8 34.8-77.8 77.8-77.8 77.8 34.9 77.8 77.8z"/><path fill="#005CB9" d="M193.8 138.3c-.1-.1-.2-.2-.4-.2-2.5 0-20.6 16.1-30.8 25.3h-.1c-4.8-9.2-26.5-51-29.2-51h-.2c-.6.3-1.6.8 9.4 27.4 4.5 10.9 9.4 22.2 11.5 27.1-.6 1.1-1 2.4-1 3.7 0 4.2 3.4 7.6 7.6 7.6 4.2 0 7.6-3.4 7.6-7.6l-.1-.7c3.3-3.6 7.6-8.4 11.6-13 15.4-17.3 14.5-18.2 14.1-18.6z"/><path fill="#009ECA" d="M193.8 136.8c-.1-.1-.2-.2-.4-.2-2.5 0-20.6 16.1-30.8 25.3h-.1c-4.8-9.2-26.5-51-29.2-51h-.2c-.6.3-1.6.8 9.4 27.5 4.5 10.9 9.4 22.2 11.5 27.1-.6 1.1-1 2.4-1 3.7 0 4.2 3.4 7.6 7.6 7.6 4.2 0 7.6-3.4 7.6-7.6l-.1-.7c3.3-3.6 7.6-8.4 11.6-13 15.4-17.4 14.5-18.2 14.1-18.7z"/><text transform="translate(149.215 109.533)" fill="#009ECA" font-family="'Effra-Bold'" font-size="19.77">12</text><text transform="translate(154.402 238.697)" fill="#009ECA" font-family="'Effra-Bold'" font-size="19.77">6</text><text transform="translate(217.826 174.119)" fill="#009ECA" font-family="'Effra-Bold'" font-size="19.77">3</text><text transform="translate(87.922 174.119)" fill="#009ECA" font-family="'Effra-Bold'" font-size="19.77">9</text><g fill="#009ECA"><path d="M108.7 139.3c.6.2.8.9.6 1.4-.2.6-.9.8-1.4.6l-10.2-4.3c-.6-.2-.8-.9-.6-1.4.2-.6.9-.8 1.4-.6l10.2 4.3zM127.7 118.8c.3.5.2 1.2-.3 1.5-.5.3-1.2.2-1.5-.3l-6.2-9c-.3-.5-.2-1.2.3-1.5.5-.3 1.2-.2 1.5.3l6.2 9z"/></g><g fill="#009ECA"><path d="M211.1 139.3c-.6.2-.8.9-.6 1.4.2.6.9.8 1.4.6l10.1-4.3c.6-.2.8-.9.6-1.4-.2-.6-.9-.8-1.4-.6l-10.1 4.3zM192.1 118.8c-.4.5-.2 1.2.3 1.5.5.3 1.2.2 1.5-.3l6.2-9c.3-.5.2-1.2-.3-1.5-.5-.3-1.2-.2-1.5.3l-6.2 9z"/></g><g fill="#009ECA"><path d="M108.7 195.7c.6-.2.8-.9.6-1.4-.2-.6-.9-.8-1.4-.6l-10.2 4.3c-.6.2-.8.9-.6 1.4.2.6.9.8 1.4.6l10.2-4.3zM127.7 216.2c.3-.5.2-1.2-.3-1.5-.5-.3-1.2-.2-1.5.3l-6.2 9c-.3.5-.2 1.2.3 1.5.5.3 1.2.2 1.5-.3l6.2-9z"/></g><g fill="#009ECA"><path d="M211.1 195.7c-.6-.2-.8-.9-.6-1.4.2-.6.9-.8 1.4-.6l10.1 4.3c.6.2.8.9.6 1.4-.2.6-.9.8-1.4.6l-10.1-4.3zM192.1 216.2c-.4-.5-.2-1.2.3-1.5.5-.3 1.2-.2 1.5.3l6.2 9c.3.5.2 1.2-.3 1.5-.5.3-1.2.2-1.5-.3l-6.2-9z"/></g><path fill="#009ECA" d="M91.9 55.2l-12.1 8.5c-10.2 7.1-12.7 21.2-5.5 31.4l49-34.3c-7.2-10.2-21.2-12.7-31.4-5.6z"/><path fill="#009ECA" d="M227.9 55.2l12.1 8.5c10.2 7.1 12.7 21.2 5.5 31.4l-49-34.3c7.2-10.2 21.2-12.7 31.4-5.6z"/><path fill="#005CB9" d="M91.9 55.2l-12.1 8.5c-10.2 7.1-12.7 21.2-5.5 31.4l49-34.3c-7.2-10.2-21.2-12.7-31.4-5.6z"/><path fill="#009ECA" d="M91.9 55.2l-12.1 8.5c-10.2 7.1-12.7 21.2-5.5 31.4l43.5-34.3c-7.1-10.2-15.7-12.7-25.9-5.6z"/><path fill="#005CB9" d="M227.9 55.2l12.1 8.5c10.2 7.1 12.7 21.2 5.5 31.4l-49-34.3c7.2-10.2 21.2-12.7 31.4-5.6z"/><path fill="#009ECA" d="M227.9 55.2l12.1 8.5c10.2 7.1 9.9 15.7 2.8 25.9l-46.3-28.8c7.2-10.2 21.2-12.7 31.4-5.6z"/></svg>