<?xml version="1.0" encoding="utf-8"?>
<!-- Generator: Adobe Illustrator 17.1.0, SVG Export Plug-In . SVG Version: 6.00 Build 0)  -->
<!DOCTYPE svg PUBLIC "-//W3C//DTD SVG 1.1//EN" "http://www.w3.org/Graphics/SVG/1.1/DTD/svg11.dtd">
<svg version="1.1" id="Layer_1" xmlns="http://www.w3.org/2000/svg" xmlns:xlink="http://www.w3.org/1999/xlink" x="0px" y="0px"
	 viewBox="-50 -50 200 200" enable-background="new -50 -50 200 200" xml:space="preserve">
<circle fill="#DDDCDC" cx="50" cy="50" r="100"/>
<path opacity="0.2" fill="#4C4B4C" enable-background="new    " d="M104.312,51.812v23.875c0,6.062-20.938,23.375-40.063,28.375
	l0.75,0.312l0.312,0.125c3.062,1.375,5.5,3.938,6.625,7.062c1.062,3,0.938,6.188-0.5,9c-2.812,5.625-8.438,7.75-14.688,5.875
	c-0.688-0.187-1.438-0.5-2.188-0.812l-70.125-30.188c-0.312-0.125-0.563-0.375-0.687-0.688c-0.125-0.312-0.125-0.688,0.062-1
	c0.312-0.625,1-0.875,1.625-0.625c3.375,1.5,6.438,1.687,9,0.688l-8.938-3.875c-4.125-1.812-6-6.688-4.188-10.875
	c1.062-2.438,3.063-4.312,5.5-5.25C-10.688,72.875-8,72.938-5.563,74l3.688,1.625V51.813l53.062,26.562
	C51.187,78.375,104.312,51.813,104.312,51.812z"/>
<path fill="#30BCAE" d="M104.312,51.812v23.875C93.937,82.562,68.875,97.625,51.25,97.625c-17.688,0-44.5-17.125-53.062-21.938
	V51.812L51.25,78.375C51.25,78.375,104.312,51.812,104.312,51.812z"/>
<path fill="#59C9BE" d="M104.312,51.812V74.5C93.937,81.375,68.875,94,51.25,94C33.562,94,6.75,79.312-1.813,74.5V51.812
	L51.25,78.375L104.312,51.812z"/>
<path fill="#005CB9" d="M130.188,41.187c2.062,0,3.687,1.687,3.687,3.687c0,2.062-1.625,3.687-3.687,3.687
	c-2.062,0-3.688-1.687-3.688-3.687C126.437,42.875,128.125,41.187,130.188,41.187z"/>
<path fill="#009ECA" d="M129.875,49.5h0.562c1.438,0,2.563,1.187,2.563,2.562v31.75h-5.75v-31.75
	C127.312,50.688,128.437,49.5,129.875,49.5z"/>
<polygon fill="#30BCAE" points="-29.812,38.438 132.25,38.438 51.187,83.875 "/>
<polygon fill="#83D7CF" points="-29.812,38.438 51.187,12.75 132.25,38.438 51.187,78.938 "/>
<path fill="#F8F8F8" d="M46.562,96.562L47,96.75L46.562,96.562z"/>
<path fill="#E4E4E4" d="M4.938,98.438l46.438,20v-0.062c1.625,0.688,3.375,0.688,5,0.062c1.688-0.625,3.062-1.938,3.813-3.563
	c0.25-0.625,0-1.375-0.625-1.625l-10.25-4.812c1.688-3.688,6.062-5.375,9.812-3.688c2.437,1.062,4.375,3.125,5.25,5.687
	c0.875,2.375,0.75,4.813-0.375,7c-2.563,5.062-7.625,6.562-13.625,3.875l-32.938-14.187L-11.5,94.688
	c1.375-0.312,2.625-0.812,3.75-1.625C-7.75,93.063,4.938,98.438,4.938,98.438z"/>
<path fill="#E4E4E4" d="M55.5,116.125c-1.062,0.438-2.25,0.375-3.312-0.063c-1.375-0.625-2.437-1.75-3-3.188
	c-0.25-0.625-0.375-1.25-0.375-1.938l8.438,3.937C56.75,115.437,56.187,115.875,55.5,116.125z"/>
<path fill="#FFFFFF" d="M-19.625,87.875l8.937,3.875c-2.562,1.062-5.625,0.812-9-0.688c-0.625-0.312-1.375,0-1.625,0.625
	c-0.125,0.312-0.187,0.688-0.062,1s0.375,0.562,0.687,0.688l70.062,30.188c0.75,0.312,1.438,0.625,2.188,0.812
	c6.313,1.938,11.938-0.25,14.688-5.875c1.375-2.812,1.562-6,0.5-8.938c-1.125-3.125-3.562-5.75-6.625-7.062l-0.312-0.125
	l-12.875-5.5l1,0.438l-1-0.438L46.5,96.688l-11.313-4.875l-45.812-19.688c-2.438-1.125-5.188-1.188-7.625-0.188
	c-2.5,0.938-4.438,2.812-5.5,5.25C-25.625,81.187-23.75,86.062-19.625,87.875z"/>
<path fill="#FFFFFF" d="M16.188,106.5L18,107.25L16.188,106.5z"/>
<path fill="#FFFFFF" d="M-7.75,93l12.687,5.438l0.437,0.188l-0.437-0.188l46.438,20v-0.062c1.625,0.688,3.375,0.688,5,0.062
	c1.687-0.625,3.062-1.938,3.812-3.563c0.25-0.625,0-1.375-0.625-1.625l-10.25-4.812c1.687-3.688,6.062-5.375,9.812-3.688
	c2.437,1.062,4.375,3.125,5.25,5.687c0.875,2.375,0.75,4.813-0.375,7c-2.563,5.062-7.625,6.562-13.625,3.875l-32.937-14.187
	L-11.5,94.688C-10.125,94.313-8.875,93.75-7.75,93z"/>
<path fill="#FFFFFF" d="M57.25,114.875c-0.437,0.562-1.062,0.938-1.75,1.25c-1.062,0.438-2.25,0.375-3.312-0.063
	c-1.375-0.625-2.437-1.75-3-3.188c-0.25-0.625-0.375-1.25-0.375-1.938C48.812,110.937,57.25,114.875,57.25,114.875z"/>
<path fill="#30BCAE" d="M104.312,51.812v23.875C93.937,82.562,68.875,97.625,51.25,97.625c-17.688,0-44.5-17.125-53.062-21.938
	V51.812L51.25,78.375C51.25,78.375,104.312,51.812,104.312,51.812z"/>
<path fill="#59C9BE" d="M104.312,51.812V74.5C93.937,81.375,68.875,94,51.25,94C33.562,94,6.75,79.312-1.813,74.5V51.812
	L51.25,78.375L104.312,51.812z"/>
<path fill="#005CB9" d="M130.188,41.187c2.062,0,3.687,1.687,3.687,3.687c0,2.062-1.625,3.687-3.687,3.687
	c-2.062,0-3.688-1.687-3.688-3.687C126.437,42.875,128.125,41.187,130.188,41.187z"/>
<path fill="#009ECA" d="M129.875,49.5h0.562c1.438,0,2.563,1.187,2.563,2.562v31.75h-5.75v-31.75
	C127.312,50.688,128.437,49.5,129.875,49.5z"/>
<polygon fill="#30BCAE" points="-29.812,38.438 132.25,38.438 51.187,83.875 "/>
<polygon fill="#83D7CF" points="-29.812,38.438 51.187,12.75 132.25,38.438 51.187,78.938 "/>
<path fill="#F8F8F8" d="M46.562,96.562L47,96.75L46.562,96.562z"/>
<path opacity="0.15" fill="#787878" enable-background="new    " d="M4.938,98.438l46.438,20v-0.062
	c1.625,0.688,3.375,0.688,5,0.062c1.688-0.625,3.062-1.938,3.813-3.563c0.25-0.625,0-1.375-0.625-1.625l-10.25-4.812
	c1.688-3.688,6.062-5.375,9.812-3.688c2.437,1.062,4.375,3.125,5.25,5.687c0.875,2.375,0.75,4.813-0.375,7
	c-2.563,5.062-7.625,6.562-13.625,3.875l-32.938-14.187L-11.5,94.688c1.375-0.312,2.625-0.812,3.75-1.625
	C-7.75,93.063,4.938,98.438,4.938,98.438z"/>
<path opacity="0.15" fill="#787878" enable-background="new    " d="M55.5,116.125c-1.062,0.438-2.25,0.375-3.312-0.063
	c-1.375-0.625-2.437-1.75-3-3.188c-0.25-0.625-0.375-1.25-0.375-1.938l8.438,3.937C56.75,115.437,56.187,115.875,55.5,116.125z"/>
<path fill="#FFFFFF" d="M-19.625,87.875l8.937,3.875c-2.562,1.062-5.625,0.812-9-0.688c-0.625-0.312-1.375,0-1.625,0.625
	c-0.125,0.312-0.187,0.688-0.062,1s0.375,0.562,0.687,0.688l70.062,30.188c0.75,0.312,1.438,0.625,2.188,0.812
	c6.313,1.938,11.938-0.25,14.688-5.875c1.375-2.812,1.562-6,0.5-8.938c-1.125-3.125-3.562-5.75-6.625-7.062l-0.312-0.125
	l-12.875-5.5l1,0.438l-1-0.438L46.5,96.688l-11.313-4.875l-45.812-19.688c-2.438-1.125-5.188-1.188-7.625-0.188
	c-2.5,0.938-4.438,2.812-5.5,5.25C-25.625,81.187-23.75,86.062-19.625,87.875z"/>
<path fill="#FFFFFF" d="M16.188,106.5L18,107.25L16.188,106.5z"/>
<path opacity="0.25" fill="#4C4B4C" enable-background="new    " d="M-7.75,93l12.687,5.438l0.437,0.188l-0.437-0.188l46.438,20
	v-0.062c1.625,0.688,3.375,0.688,5,0.062c1.687-0.625,3.062-1.938,3.812-3.563c0.25-0.625,0-1.375-0.625-1.625l-10.25-4.812
	c1.687-3.688,6.062-5.375,9.812-3.688c2.437,1.062,4.375,3.125,5.25,5.687c0.875,2.375,0.75,4.813-0.375,7
	c-2.563,5.062-7.625,6.562-13.625,3.875l-32.937-14.187L-11.5,94.688C-10.125,94.313-8.875,93.75-7.75,93z"/>
<path opacity="0.25" fill="#4C4B4C" enable-background="new    " d="M57.25,114.875c-0.437,0.562-1.062,0.938-1.75,1.25
	c-1.062,0.438-2.25,0.375-3.312-0.063c-1.375-0.625-2.437-1.75-3-3.188c-0.25-0.625-0.375-1.25-0.375-1.938
	C48.812,110.937,57.25,114.875,57.25,114.875z"/>
</svg>
