<svg xmlns="http://www.w3.org/2000/svg" viewBox="0 0 320 320" enable-background="new 0 0 320 320"><circle fill="#DDDCDC" cx="160" cy="160" r="160"/><path fill="#EEEEED" d="M160 320c64.1 0 119.4-37.7 144.9-92.1h-289.8c25.5 54.4 80.8 92.1 144.9 92.1z"/><path opacity=".2" fill="#4C4B4C" d="M246.9 162.9v38.2c0 9.7-33.5 37.4-64.1 45.4l1.2.5.5.2c4.9 2.2 8.8 6.3 10.6 11.3 1.7 4.8 1.5 9.9-.8 14.4-4.5 9-13.5 12.4-23.5 9.4-1.1-.3-2.3-.8-3.5-1.3l-112.2-48.3c-.5-.2-.9-.6-1.1-1.1s-.2-1.1.1-1.6c.5-1 1.6-1.4 2.6-1 5.4 2.4 10.3 2.7 14.4 1.1l-14.3-6.2c-6.6-2.9-9.6-10.7-6.7-17.4 1.7-3.9 4.9-6.9 8.8-8.4 4-1.5 8.3-1.4 12.2.3l5.9 2.6v-38.1l84.9 42.5 85-42.5z"/><path fill="#30BCAE" d="M246.9 162.9v38.2c-16.6 11-56.7 35.1-84.9 35.1-28.3 0-71.2-27.4-84.9-35.1v-38.2l84.9 42.5 84.9-42.5z"/><path fill="#59C9BE" d="M246.9 162.9v36.3c-16.6 11-56.7 31.2-84.9 31.2-28.3 0-71.2-23.5-84.9-31.2v-36.3l84.9 42.5 84.9-42.5z"/><path fill="#005CB9" d="M288.3 145.9c3.3 0 5.9 2.7 5.9 5.9 0 3.3-2.6 5.9-5.9 5.9-3.3 0-5.9-2.7-5.9-5.9-.1-3.2 2.6-5.9 5.9-5.9z"/><path fill="#009ECA" d="M287.8 159.2h.9c2.3 0 4.1 1.9 4.1 4.1v50.8h-9.2v-50.8c.1-2.2 1.9-4.1 4.2-4.1z"/><polygon fill="#30BCAE" points="32.3,141.5 291.6,141.5 161.9,214.2"/><polygon fill="#83D7CF" points="32.3,141.5 161.9,100.4 291.6,141.5 161.9,206.3"/><polygon fill="#F8F8F8" points="154.5,234.5 155.2,234.8 154.5,234.5"/><path fill="#E4E4E4" d="M87.9 237.5l74.3 32v-.1c2.6 1.1 5.4 1.1 8 .1 2.7-1 4.9-3.1 6.1-5.7.4-1 0-2.2-1-2.6l-16.4-7.7c2.7-5.9 9.7-8.6 15.7-5.9 3.9 1.7 7 5 8.4 9.1 1.4 3.8 1.2 7.7-.6 11.2-4.1 8.1-12.2 10.5-21.8 6.2l-52.7-22.7-46.3-19.9c2.2-.5 4.2-1.3 6-2.6l20.3 8.6z"/><path fill="#E4E4E4" d="M168.8 265.8c-1.7.7-3.6.6-5.3-.1-2.2-1-3.9-2.8-4.8-5.1-.4-1-.6-2-.6-3.1l13.5 6.3c-.8.9-1.7 1.6-2.8 2z"/><path fill="#fff" d="M48.6 220.6l14.3 6.2c-4.1 1.7-9 1.3-14.4-1.1-1-.5-2.2 0-2.6 1-.2.5-.3 1.1-.1 1.6.2.5.6.9 1.1 1.1l112.1 48.3c1.2.5 2.3 1 3.5 1.3 10.1 3.1 19.1-.4 23.5-9.4 2.2-4.5 2.5-9.6.8-14.3-1.8-5-5.7-9.2-10.6-11.3l-.5-.2-20.6-8.8 1.6.7-1.6-.7-.7-.3-18.1-7.8-73.3-31.5c-3.9-1.8-8.3-1.9-12.2-.3-4 1.5-7.1 4.5-8.8 8.4-3 6.4 0 14.2 6.6 17.1z"/><path fill="#fff" d="M105.9 250.4l2.9 1.2-2.9-1.2z"/><path fill="#fff" d="M67.6 228.8l20.3 8.7.7.3-.7-.3 74.3 32v-.1c2.6 1.1 5.4 1.1 8 .1 2.7-1 4.9-3.1 6.1-5.7.4-1 0-2.2-1-2.6l-16.4-7.7c2.7-5.9 9.7-8.6 15.7-5.9 3.9 1.7 7 5 8.4 9.1 1.4 3.8 1.2 7.7-.6 11.2-4.1 8.1-12.2 10.5-21.8 6.2l-52.7-22.7-46.3-19.9c2.2-.6 4.2-1.5 6-2.7z"/><path fill="#fff" d="M171.6 263.8c-.7.9-1.7 1.5-2.8 2-1.7.7-3.6.6-5.3-.1-2.2-1-3.9-2.8-4.8-5.1-.4-1-.6-2-.6-3.1l13.5 6.3z"/><path fill="#30BCAE" d="M246.9 162.9v38.2c-16.6 11-56.7 35.1-84.9 35.1-28.3 0-71.2-27.4-84.9-35.1v-38.2l84.9 42.5 84.9-42.5z"/><path fill="#59C9BE" d="M246.9 162.9v36.3c-16.6 11-56.7 31.2-84.9 31.2-28.3 0-71.2-23.5-84.9-31.2v-36.3l84.9 42.5 84.9-42.5z"/><path fill="#005CB9" d="M288.3 145.9c3.3 0 5.9 2.7 5.9 5.9 0 3.3-2.6 5.9-5.9 5.9-3.3 0-5.9-2.7-5.9-5.9-.1-3.2 2.6-5.9 5.9-5.9z"/><path fill="#009ECA" d="M287.8 159.2h.9c2.3 0 4.1 1.9 4.1 4.1v50.8h-9.2v-50.8c.1-2.2 1.9-4.1 4.2-4.1z"/><polygon fill="#30BCAE" points="32.3,141.5 291.6,141.5 161.9,214.2"/><polygon fill="#83D7CF" points="32.3,141.5 161.9,100.4 291.6,141.5 161.9,206.3"/><polygon fill="#F8F8F8" points="154.5,234.5 155.2,234.8 154.5,234.5"/><path opacity=".15" fill="#787878" d="M87.9 237.5l74.3 32v-.1c2.6 1.1 5.4 1.1 8 .1 2.7-1 4.9-3.1 6.1-5.7.4-1 0-2.2-1-2.6l-16.4-7.7c2.7-5.9 9.7-8.6 15.7-5.9 3.9 1.7 7 5 8.4 9.1 1.4 3.8 1.2 7.7-.6 11.2-4.1 8.1-12.2 10.5-21.8 6.2l-52.7-22.7-46.3-19.9c2.2-.5 4.2-1.3 6-2.6l20.3 8.6z"/><path opacity=".15" fill="#787878" d="M168.8 265.8c-1.7.7-3.6.6-5.3-.1-2.2-1-3.9-2.8-4.8-5.1-.4-1-.6-2-.6-3.1l13.5 6.3c-.8.9-1.7 1.6-2.8 2z"/><path fill="#fff" d="M48.6 220.6l14.3 6.2c-4.1 1.7-9 1.3-14.4-1.1-1-.5-2.2 0-2.6 1-.2.5-.3 1.1-.1 1.6.2.5.6.9 1.1 1.1l112.1 48.3c1.2.5 2.3 1 3.5 1.3 10.1 3.1 19.1-.4 23.5-9.4 2.2-4.5 2.5-9.6.8-14.3-1.8-5-5.7-9.2-10.6-11.3l-.5-.2-20.6-8.8 1.6.7-1.6-.7-.7-.3-18.1-7.8-73.3-31.5c-3.9-1.8-8.3-1.9-12.2-.3-4 1.5-7.1 4.5-8.8 8.4-3 6.4 0 14.2 6.6 17.1z"/><path fill="#fff" d="M105.9 250.4l2.9 1.2-2.9-1.2z"/><path opacity=".25" fill="#4C4B4C" d="M67.6 228.8l20.3 8.7.7.3-.7-.3 74.3 32v-.1c2.6 1.1 5.4 1.1 8 .1 2.7-1 4.9-3.1 6.1-5.7.4-1 0-2.2-1-2.6l-16.4-7.7c2.7-5.9 9.7-8.6 15.7-5.9 3.9 1.7 7 5 8.4 9.1 1.4 3.8 1.2 7.7-.6 11.2-4.1 8.1-12.2 10.5-21.8 6.2l-52.7-22.7-46.3-19.9c2.2-.6 4.2-1.5 6-2.7z"/><path opacity=".25" fill="#4C4B4C" d="M171.6 263.8c-.7.9-1.7 1.5-2.8 2-1.7.7-3.6.6-5.3-.1-2.2-1-3.9-2.8-4.8-5.1-.4-1-.6-2-.6-3.1l13.5 6.3z"/></svg>