<?xml version="1.0" encoding="utf-8"?>
<!-- Generator: Adobe Illustrator 17.1.0, SVG Export Plug-In . SVG Version: 6.00 Build 0)  -->
<!DOCTYPE svg PUBLIC "-//W3C//DTD SVG 1.1//EN" "http://www.w3.org/Graphics/SVG/1.1/DTD/svg11.dtd">
<svg version="1.1" id="Layer_1" xmlns="http://www.w3.org/2000/svg" xmlns:xlink="http://www.w3.org/1999/xlink" x="0px" y="0px"
	 viewBox="0 0 320 320" enable-background="new 0 0 320 320" xml:space="preserve">
<circle fill="#DDDCDC" cx="160" cy="160" r="160"/>
<path fill="#EEEEED" d="M160,320c64.1,0,119.4-37.7,144.9-92.1H15.1C40.6,282.3,95.9,320,160,320z"/>
<path opacity="0.2" fill="#4C4B4C" d="M246.9,162.9v38.2c0,9.7-33.5,37.4-64.1,45.4l1.2,0.5l0,0c0.2,0.1,0.3,0.1,0.5,0.2
	c4.9,2.2,8.8,6.3,10.6,11.3c1.7,4.8,1.5,9.9-0.8,14.4c-4.5,9-13.5,12.4-23.5,9.4c-1.1-0.3-2.3-0.8-3.5-1.3L55.1,232.7
	c-0.5-0.2-0.9-0.6-1.1-1.1s-0.2-1.1,0.1-1.6c0.5-1,1.6-1.4,2.6-1c5.4,2.4,10.3,2.7,14.4,1.1l-14.3-6.2l0,0
	c-6.6-2.9-9.6-10.7-6.7-17.4c1.7-3.9,4.9-6.9,8.8-8.4c4-1.5,8.3-1.4,12.2,0.3L77,201v-38.1l84.9,42.5L246.9,162.9z"/>
<path fill="#30BCAE" d="M246.9,162.9v38.2c-16.6,11-56.7,35.1-84.9,35.1c-28.3,0-71.2-27.4-84.9-35.1v-38.2l84.9,42.5L246.9,162.9z"
	/>
<path fill="#59C9BE" d="M246.9,162.9v36.3c-16.6,11-56.7,31.2-84.9,31.2c-28.3,0-71.2-23.5-84.9-31.2v-36.3l84.9,42.5L246.9,162.9z"
	/>
<path fill="#005CB9" d="M288.3,145.9c3.3,0,5.9,2.7,5.9,5.9c0,3.3-2.6,5.9-5.9,5.9c-3.3,0-5.9-2.7-5.9-5.9
	C282.3,148.6,285,145.9,288.3,145.9z"/>
<path fill="#009ECA" d="M287.8,159.2h0.9c2.3,0,4.1,1.9,4.1,4.1v50.8h-9.2v-50.8C283.7,161.1,285.5,159.2,287.8,159.2z"/>
<polygon fill="#30BCAE" points="32.3,141.5 291.6,141.5 161.9,214.2 "/>
<polygon fill="#83D7CF" points="32.3,141.5 161.9,100.4 291.6,141.5 161.9,206.3 "/>
<polygon fill="#F8F8F8" points="154.5,234.5 155.2,234.8 154.5,234.5 "/>
<path fill="#E4E4E4" d="M87.9,237.5L87.9,237.5l74.3,32l0-0.1c2.6,1.1,5.4,1.1,8,0.1c2.7-1,4.9-3.1,6.1-5.7c0.4-1,0-2.2-1-2.6
	l-16.4-7.7c2.7-5.9,9.7-8.6,15.7-5.9c3.9,1.7,7,5,8.4,9.1c1.4,3.8,1.2,7.7-0.6,11.2c-4.1,8.1-12.2,10.5-21.8,6.2l-52.7-22.7
	l-46.3-19.9c2.2-0.5,4.2-1.3,6-2.6L87.9,237.5z"/>
<path fill="#E4E4E4" d="M168.8,265.8c-1.7,0.7-3.6,0.6-5.3-0.1c-2.2-1-3.9-2.8-4.8-5.1c-0.4-1-0.6-2-0.6-3.1l13.5,6.3
	C170.8,264.7,169.9,265.4,168.8,265.8z"/>
<path fill="#FFFFFF" d="M48.6,220.6l14.3,6.2c-4.1,1.7-9,1.3-14.4-1.1c-1-0.5-2.2,0-2.6,1c-0.2,0.5-0.3,1.1-0.1,1.6
	c0.2,0.5,0.6,0.9,1.1,1.1L159,277.7c1.2,0.5,2.3,1,3.5,1.3c10.1,3.1,19.1-0.4,23.5-9.4c2.2-4.5,2.5-9.6,0.8-14.3
	c-1.8-5-5.7-9.2-10.6-11.3c-0.2-0.1-0.3-0.1-0.5-0.2l0,0l-20.6-8.8l1.6,0.7l-1.6-0.7l-0.7-0.3l0,0l-18.1-7.8l-73.3-31.5
	c-3.9-1.8-8.3-1.9-12.2-0.3c-4,1.5-7.1,4.5-8.8,8.4C39,209.9,42,217.7,48.6,220.6L48.6,220.6z"/>
<path fill="#FFFFFF" d="M105.9,250.4l2.9,1.2L105.9,250.4z"/>
<path fill="#FFFFFF" d="M67.6,228.8l20.3,8.7l0,0l0.7,0.3l-0.7-0.3l74.3,32l0-0.1c2.6,1.1,5.4,1.1,8,0.1c2.7-1,4.9-3.1,6.1-5.7
	c0.4-1,0-2.2-1-2.6l-16.4-7.7c2.7-5.9,9.7-8.6,15.7-5.9c3.9,1.7,7,5,8.4,9.1c1.4,3.8,1.2,7.7-0.6,11.2c-4.1,8.1-12.2,10.5-21.8,6.2
	l-52.7-22.7l-46.3-19.9C63.8,230.9,65.8,230,67.6,228.8z"/>
<path fill="#FFFFFF" d="M171.6,263.8c-0.7,0.9-1.7,1.5-2.8,2c-1.7,0.7-3.6,0.6-5.3-0.1c-2.2-1-3.9-2.8-4.8-5.1c-0.4-1-0.6-2-0.6-3.1
	L171.6,263.8z"/>
<path fill="#30BCAE" d="M246.9,162.9v38.2c-16.6,11-56.7,35.1-84.9,35.1c-28.3,0-71.2-27.4-84.9-35.1v-38.2l84.9,42.5L246.9,162.9z"
	/>
<path fill="#59C9BE" d="M246.9,162.9v36.3c-16.6,11-56.7,31.2-84.9,31.2c-28.3,0-71.2-23.5-84.9-31.2v-36.3l84.9,42.5L246.9,162.9z"
	/>
<path fill="#005CB9" d="M288.3,145.9c3.3,0,5.9,2.7,5.9,5.9c0,3.3-2.6,5.9-5.9,5.9c-3.3,0-5.9-2.7-5.9-5.9
	C282.3,148.6,285,145.9,288.3,145.9z"/>
<path fill="#009ECA" d="M287.8,159.2h0.9c2.3,0,4.1,1.9,4.1,4.1v50.8h-9.2v-50.8C283.7,161.1,285.5,159.2,287.8,159.2z"/>
<polygon fill="#30BCAE" points="32.3,141.5 291.6,141.5 161.9,214.2 "/>
<polygon fill="#83D7CF" points="32.3,141.5 161.9,100.4 291.6,141.5 161.9,206.3 "/>
<polygon fill="#F8F8F8" points="154.5,234.5 155.2,234.8 154.5,234.5 "/>
<path opacity="0.15" fill="#787878" d="M87.9,237.5L87.9,237.5l74.3,32l0-0.1c2.6,1.1,5.4,1.1,8,0.1c2.7-1,4.9-3.1,6.1-5.7
	c0.4-1,0-2.2-1-2.6l-16.4-7.7c2.7-5.9,9.7-8.6,15.7-5.9c3.9,1.7,7,5,8.4,9.1c1.4,3.8,1.2,7.7-0.6,11.2c-4.1,8.1-12.2,10.5-21.8,6.2
	l-52.7-22.7l-46.3-19.9c2.2-0.5,4.2-1.3,6-2.6L87.9,237.5z"/>
<path opacity="0.15" fill="#787878" d="M168.8,265.8c-1.7,0.7-3.6,0.6-5.3-0.1c-2.2-1-3.9-2.8-4.8-5.1c-0.4-1-0.6-2-0.6-3.1
	l13.5,6.3C170.8,264.7,169.9,265.4,168.8,265.8z"/>
<path fill="#FFFFFF" d="M48.6,220.6l14.3,6.2c-4.1,1.7-9,1.3-14.4-1.1c-1-0.5-2.2,0-2.6,1c-0.2,0.5-0.3,1.1-0.1,1.6
	c0.2,0.5,0.6,0.9,1.1,1.1L159,277.7c1.2,0.5,2.3,1,3.5,1.3c10.1,3.1,19.1-0.4,23.5-9.4c2.2-4.5,2.5-9.6,0.8-14.3
	c-1.8-5-5.7-9.2-10.6-11.3c-0.2-0.1-0.3-0.1-0.5-0.2l0,0l-20.6-8.8l1.6,0.7l-1.6-0.7l-0.7-0.3l0,0l-18.1-7.8l-73.3-31.5
	c-3.9-1.8-8.3-1.9-12.2-0.3c-4,1.5-7.1,4.5-8.8,8.4C39,209.9,42,217.7,48.6,220.6L48.6,220.6z"/>
<path fill="#FFFFFF" d="M105.9,250.4l2.9,1.2L105.9,250.4z"/>
<path opacity="0.25" fill="#4C4B4C" d="M67.6,228.8l20.3,8.7l0,0l0.7,0.3l-0.7-0.3l74.3,32l0-0.1c2.6,1.1,5.4,1.1,8,0.1
	c2.7-1,4.9-3.1,6.1-5.7c0.4-1,0-2.2-1-2.6l-16.4-7.7c2.7-5.9,9.7-8.6,15.7-5.9c3.9,1.7,7,5,8.4,9.1c1.4,3.8,1.2,7.7-0.6,11.2
	c-4.1,8.1-12.2,10.5-21.8,6.2l-52.7-22.7l-46.3-19.9C63.8,230.9,65.8,230,67.6,228.8z"/>
<path opacity="0.25" fill="#4C4B4C" d="M171.6,263.8c-0.7,0.9-1.7,1.5-2.8,2c-1.7,0.7-3.6,0.6-5.3-0.1c-2.2-1-3.9-2.8-4.8-5.1
	c-0.4-1-0.6-2-0.6-3.1L171.6,263.8z"/>
</svg>
