<?xml version="1.0" encoding="utf-8"?>
<!-- Generator: Adobe Illustrator 18.0.0, SVG Export Plug-In . SVG Version: 6.00 Build 0)  -->
<!DOCTYPE svg PUBLIC "-//W3C//DTD SVG 1.1//EN" "http://www.w3.org/Graphics/SVG/1.1/DTD/svg11.dtd">
<svg version="1.1" id="Layer_1" xmlns="http://www.w3.org/2000/svg" xmlns:xlink="http://www.w3.org/1999/xlink" x="0px" y="0px"
	 viewBox="0 0 600 600" enable-background="new 0 0 600 600" xml:space="preserve">
<circle fill="#DDDCDC" cx="300" cy="300" r="300"/>
<path opacity="0.2" fill="#4C4B4C" enable-background="new    " d="M462.938,305.438v71.625c0,18.188-62.812,70.125-120.188,85.125
	l2.25,0.938l0.938,0.375c9.188,4.125,16.5,11.812,19.875,21.188c3.188,9,2.812,18.562-1.5,27
	c-8.438,16.875-25.312,23.25-44.062,17.625c-2.062-0.562-4.312-1.5-6.562-2.438l-210.375-90.562
	c-0.938-0.375-1.688-1.125-2.062-2.063s-0.375-2.062,0.188-3c0.938-1.875,3-2.625,4.875-1.875c10.125,4.5,19.313,5.062,27,2.062
	L106.5,419.812c-12.375-5.438-18-20.062-12.562-32.625c3.188-7.312,9.188-12.938,16.5-15.75c7.5-2.812,15.562-2.625,22.875,0.563
	l11.062,4.875v-71.437l159.188,79.688L462.938,305.438L462.938,305.438z"/>
<path fill="#30BCAE" d="M462.938,305.438v71.625c-31.125,20.625-106.312,65.812-159.188,65.812
	c-53.062,0-133.5-51.375-159.188-65.813v-71.625l159.188,79.688L462.938,305.438L462.938,305.438z"/>
<path fill="#59C9BE" d="M462.938,305.438V373.5C431.812,394.125,356.625,432,303.75,432c-53.062,0-133.5-44.062-159.188-58.5
	v-68.062l159.188,79.688L462.938,305.438z"/>
<path fill="#009ECA" d="M540.42,293.5L540.42,293.5c2.062,0,4.08,3.562,4.08,7.688v115.25h-18.25l10-115.25
	C536.34,297.062,538.357,293.5,540.42,293.5z"/>
<path fill="#005CB9" d="M540.562,275.625c5.033,0,8.998,4.119,8.998,9c0,5.034-3.965,9-8.998,9s-8.998-4.119-8.998-9
	C531.412,279.744,535.529,275.625,540.562,275.625z"/>
<polygon fill="#30BCAE" points="60.562,265.312 546.75,265.312 303.562,401.625 "/>
<path fill="#F8F8F8" d="M289.688,439.688L291,440.25L289.688,439.688z"/>
<path fill="#E4E4E4" d="M164.812,445.312l139.313,60v-0.188c4.875,2.062,10.125,2.062,15,0.188
	c5.062-1.875,9.187-5.812,11.438-10.688c0.75-1.875,0-4.125-1.875-4.875l-30.75-14.438c5.062-11.062,18.187-16.125,29.437-11.062
	c7.312,3.188,13.125,9.375,15.75,17.062c2.625,7.125,2.25,14.438-1.125,21c-7.688,15.188-22.875,19.688-40.875,11.625
	l-98.812-42.562L115.5,434.063c4.125-0.938,7.875-2.438,11.25-4.875L164.812,445.312L164.812,445.312z"/>
<path fill="#E4E4E4" d="M316.5,498.375c-3.188,1.313-6.75,1.125-9.938-0.188c-4.125-1.875-7.312-5.25-9-9.563
	c-0.75-1.875-1.125-3.75-1.125-5.812l25.312,11.812C320.25,496.312,318.562,497.625,316.5,498.375L316.5,498.375z"/>
<path fill="#FFFFFF" d="M91.125,413.625l26.812,11.625c-7.687,3.188-16.875,2.438-27-2.062c-1.875-0.938-4.125,0-4.875,1.875
	c-0.375,0.938-0.562,2.062-0.187,3s1.125,1.688,2.062,2.063l210.188,90.562c2.25,0.938,4.312,1.875,6.562,2.438
	c18.938,5.812,35.812-0.75,44.062-17.625c4.125-8.438,4.688-18,1.5-26.812c-3.375-9.375-10.688-17.25-19.875-21.188l-0.938-0.375
	l-38.625-16.5l3,1.312l-3-1.312l-1.312-0.562l-33.938-14.625l-137.438-59.062c-7.312-3.375-15.562-3.562-22.875-0.563
	c-7.5,2.812-13.312,8.438-16.5,15.75C73.125,393.562,78.75,408.187,91.125,413.625L91.125,413.625z"/>
<path fill="#FFFFFF" d="M198.562,469.5l5.438,2.25L198.562,469.5z"/>
<path fill="#FFFFFF" d="M126.75,429l38.062,16.312l1.312,0.562l-1.312-0.562l139.313,60v-0.188c4.875,2.062,10.125,2.062,15,0.188
	c5.062-1.875,9.187-5.812,11.438-10.688c0.75-1.875,0-4.125-1.875-4.875l-30.75-14.438c5.062-11.062,18.187-16.125,29.437-11.062
	c7.312,3.188,13.125,9.375,15.75,17.062c2.625,7.125,2.25,14.438-1.125,21c-7.688,15.188-22.875,19.688-40.875,11.625
	l-98.812-42.562L115.5,434.063C119.625,432.938,123.375,431.25,126.75,429L126.75,429z"/>
<path fill="#FFFFFF" d="M321.75,494.625c-1.312,1.688-3.187,2.812-5.25,3.75c-3.188,1.313-6.75,1.125-9.938-0.188
	c-4.125-1.875-7.312-5.25-9-9.563c-0.75-1.875-1.125-3.75-1.125-5.812L321.75,494.625L321.75,494.625z"/>
<path fill="#30BCAE" d="M462.938,305.438v71.625c-31.125,20.625-106.312,65.812-159.188,65.812
	c-53.062,0-133.5-51.375-159.188-65.813v-71.625l159.188,79.688L462.938,305.438L462.938,305.438z"/>
<path fill="#59C9BE" d="M462.938,305.438V373.5C431.812,394.125,356.625,432,303.75,432c-53.062,0-133.5-44.062-159.188-58.5
	v-68.062l159.188,79.688L462.938,305.438z"/>
<polygon fill="#30BCAE" points="60.562,265.312 546.75,265.312 303.562,401.625 "/>
<polygon fill="#83D7CF" points="60.562,265.312 303.562,188.25 546.75,265.312 303.562,386.812 "/>
<path fill="#F8F8F8" d="M289.688,439.688L291,440.25L289.688,439.688z"/>
<path opacity="0.15" fill="#787878" enable-background="new    " d="M164.812,445.312l139.313,60v-0.188
	c4.875,2.062,10.125,2.062,15,0.188c5.062-1.875,9.187-5.812,11.438-10.688c0.75-1.875,0-4.125-1.875-4.875l-30.75-14.438
	c5.062-11.062,18.187-16.125,29.437-11.062c7.312,3.188,13.125,9.375,15.75,17.062c2.625,7.125,2.25,14.438-1.125,21
	c-7.688,15.188-22.875,19.688-40.875,11.625l-98.812-42.562L115.5,434.063c4.125-0.938,7.875-2.438,11.25-4.875L164.812,445.312
	L164.812,445.312z"/>
<path opacity="0.15" fill="#787878" enable-background="new    " d="M316.5,498.375c-3.188,1.313-6.75,1.125-9.938-0.188
	c-4.125-1.875-7.312-5.25-9-9.563c-0.75-1.875-1.125-3.75-1.125-5.812l25.312,11.812C320.25,496.312,318.562,497.625,316.5,498.375
	L316.5,498.375z"/>
<path fill="#FFFFFF" d="M91.125,413.625l26.812,11.625c-7.687,3.188-16.875,2.438-27-2.062c-1.875-0.938-4.125,0-4.875,1.875
	c-0.375,0.938-0.562,2.062-0.187,3s1.125,1.688,2.062,2.063l210.188,90.562c2.25,0.938,4.312,1.875,6.562,2.438
	c18.938,5.812,35.812-0.75,44.062-17.625c4.125-8.438,4.688-18,1.5-26.812c-3.375-9.375-10.688-17.25-19.875-21.188l-0.938-0.375
	l-38.625-16.5l3,1.312l-3-1.312l-1.312-0.562l-33.938-14.625l-137.438-59.062c-7.312-3.375-15.562-3.562-22.875-0.563
	c-7.5,2.812-13.312,8.438-16.5,15.75C73.125,393.562,78.75,408.187,91.125,413.625L91.125,413.625z"/>
<path fill="#FFFFFF" d="M198.562,469.5l5.438,2.25L198.562,469.5z"/>
<path opacity="0.25" fill="#4C4B4C" enable-background="new    " d="M126.75,429l38.062,16.312l1.312,0.562l-1.312-0.562l139.313,60
	v-0.188c4.875,2.062,10.125,2.062,15,0.188c5.062-1.875,9.187-5.812,11.438-10.688c0.75-1.875,0-4.125-1.875-4.875l-30.75-14.438
	c5.062-11.062,18.187-16.125,29.437-11.062c7.312,3.188,13.125,9.375,15.75,17.062c2.625,7.125,2.25,14.438-1.125,21
	c-7.688,15.188-22.875,19.688-40.875,11.625l-98.812-42.562L115.5,434.063C119.625,432.938,123.375,431.25,126.75,429L126.75,429z"
	/>
<path opacity="0.25" fill="#4C4B4C" enable-background="new    " d="M321.75,494.625c-1.312,1.688-3.187,2.812-5.25,3.75
	c-3.188,1.313-6.75,1.125-9.938-0.188c-4.125-1.875-7.312-5.25-9-9.563c-0.75-1.875-1.125-3.75-1.125-5.812L321.75,494.625
	L321.75,494.625z"/>
</svg>
