<?xml version="1.0" encoding="utf-8"?>
<!-- Generator: Adobe Illustrator 17.1.0, SVG Export Plug-In . SVG Version: 6.00 Build 0)  -->
<!DOCTYPE svg PUBLIC "-//W3C//DTD SVG 1.1//EN" "http://www.w3.org/Graphics/SVG/1.1/DTD/svg11.dtd">
<svg version="1.1" id="Layer_1" xmlns="http://www.w3.org/2000/svg" xmlns:xlink="http://www.w3.org/1999/xlink" x="0px" y="0px"
	 viewBox="0 0 50 50" enable-background="new 0 0 50 50" xml:space="preserve">
<g>
	<path fill="#FFFFFF" d="M0,9.7L2.1,21l47.2-8.6L47.2,1.1L0,9.7z M24.2,8.3l5.2-1L25,13.7l-5.2,1L24.2,8.3z M14.2,15.7l-5.3,1
		l4.4-6.4l5.2-1L14.2,15.7z M35,6.3l5.2-1l-4.4,6.4l-5.2,1L35,6.3z M7.8,11.3l-3.5,5.1l-0.8-4.3L7.8,11.3z M41.4,10.7l3.5-5.1
		l0.8,4.3L41.4,10.7z"/>
	<path fill="#FFFFFF" d="M2.1,21v28H50V21H2.1z M47,45.6H5.1V24H47V45.6z"/>
</g>
</svg>
