<?xml version="1.0" encoding="utf-8"?>
<!-- Generator: Adobe Illustrator 17.1.0, SVG Export Plug-In . SVG Version: 6.00 Build 0)  -->
<!DOCTYPE svg PUBLIC "-//W3C//DTD SVG 1.1//EN" "http://www.w3.org/Graphics/SVG/1.1/DTD/svg11.dtd">
<svg version="1.1" id="Layer_1" xmlns="http://www.w3.org/2000/svg" xmlns:xlink="http://www.w3.org/1999/xlink" x="0px" y="0px"
	 viewBox="-20 -20 140 140" enable-background="new -20 -20 140 140" xml:space="preserve">
<path fill="#FFFFFF" d="M23.867,98.689l-16.8,16.8c-0.778,0.778-1.711,1.089-2.644,1.089s-1.867-0.311-2.644-1.089
	c-1.556-1.556-1.4-3.889,0-5.289l11.511-11.356L23.867,98.689z"/>
<path fill="#FFFFFF" d="M93.244,115.8c-0.778,0.778-1.711,1.089-2.644,1.089c-0.933,0-2.022-0.311-2.644-1.089L71.156,99h10.733
	l11.356,11.511C94.8,111.911,94.8,114.244,93.244,115.8z"/>
<path fill="none" d="M39.422,33.2c0.467-2.022,0.778-4.2,0.778-6.378c0-5.756-1.556-11.356-4.667-16.022l12.289-2.489
	c-0.933,3.267-1.556,6.533-1.556,10.111c0,5.133,1.089,9.956,3.111,14.467C49.378,32.889,39.422,33.2,39.422,33.2z"/>
<path fill="none" d="M75.822,92.778h-5.6v-0.156C71.778,91.222,74.267,91.222,75.822,92.778z"/>
<path opacity="0.6" fill="#FFFFFF" enable-background="new    " d="M35.533,10.8l12.289-2.489C48.756,5.2,50.156,2.4,51.711-0.244
	L29.933,4.267l1.556,1.4C33.044,7.067,34.444,8.933,35.533,10.8z"/>
<path opacity="0.6" fill="#FFFFFF" enable-background="new    " d="M102.733,49.067v41.689c0,0.778-0.156,1.4-0.311,2.178
	c-0.933,3.578-4.2,6.222-8.089,6.222H71.467L24.178,99H-1.8c-2.178,0-4.356-0.933-5.911-2.489c-0.933-0.933-1.556-2.178-2.022-3.422
	c-0.311-0.778-0.467-1.711-0.467-2.489l0.156-41.378c5.444,5.133,12.6,7.933,20.222,7.933h0.156c14.311,0,26.444-10.111,29.4-23.644
	l9.956-0.311c1.711,3.889,4.044,7.467,7.156,10.578C63.533,50.467,72.4,54.2,81.733,54.2h0.156c7.778,0,14.933-2.489,20.844-6.844
	C102.578,47.667,102.733,48.289,102.733,49.067z"/>
<polygon fill="#FFFFFF" points="112.222,59.178 112.222,83.756 102.578,83.6 102.578,59.022 "/>
<path fill="#1A98C2" d="M120,55.133L120,55.133z"/>
<path opacity="0.6" fill="#FFFFFF" enable-background="new    " d="M118.444,53.733h-4.667c-0.778,0-1.556,0.622-1.556,1.556v31.578
	c0,0.778,0.622,1.556,1.556,1.556h4.667c0.778,0,1.556-0.622,1.556-1.556V55.133C119.844,54.356,119.222,53.733,118.444,53.733z"/>
<path fill="none" d="M0.533,34.133c-0.933-1.244-1.711-2.8-2.178-4.356h-10.578c0.622,4.356,2.489,8.4,5.289,11.822L0.533,34.133z"
	/>
<path fill="none" d="M20.133,19.978c1.089,1.711,1.867,3.733,2.022,5.911h10.422c-0.156-4.978-1.867-9.489-4.978-13.378
	L20.133,19.978z"/>
<path fill="none" d="M0.067,20.133L-7.4,12.667c-2.956,3.578-4.667,8.244-4.978,13.222h10.422
	C-1.8,23.711-1.022,21.844,0.067,20.133z"/>
<path fill="none" d="M6.133,15.311l1.711-0.467V4.267c-4.822,0.467-9.178,2.489-12.756,5.6L2.4,17.333
	C3.644,16.4,4.889,15.778,6.133,15.311z"/>
<path fill="none" d="M0.067,20.133L-7.4,12.667c-2.956,3.578-4.667,8.244-4.978,13.222h10.422
	C-1.8,23.711-1.022,21.844,0.067,20.133z"/>
<path fill="none" d="M0.533,34.133c-0.933-1.244-1.711-2.8-2.178-4.356h-10.578c0.622,4.356,2.489,8.4,5.289,11.822L0.533,34.133z"
	/>
<path fill="none" d="M22.156,25.889h10.422c-0.156-4.978-1.867-9.489-4.978-13.378l-7.467,7.467
	C21.222,21.689,22,23.711,22.156,25.889z"/>
<path fill="none" d="M13.756,15.311c1.4,0.467,2.644,1.089,3.733,1.867l3.422-3.422l4.044-4.044c-1.711-1.4-3.422-2.644-5.444-3.422
	c-2.489-1.089-4.978-1.867-7.778-2.022v10.578C12.511,14.844,13.133,15.156,13.756,15.311z"/>
<path fill="none" d="M21.689,29.778c-0.311,1.556-1.089,2.956-2.022,4.2l-0.156,0.311l7.467,7.467
	c2.022-2.333,3.578-5.133,4.667-8.089l0.933-3.733H21.689V29.778z"/>
<path fill="none" d="M16.867,26.822c0-2.178-1.089-4.2-2.8-5.444c-1.089-0.778-2.333-1.089-3.733-1.244
	c-1.4,0-2.8,0.467-3.889,1.244C4.733,22.622,3.8,24.489,3.8,26.667c0,2.333,1.244,4.356,2.956,5.6
	c1.089,0.622,2.178,1.089,3.578,1.089c1.556,0,2.956-0.467,4.044-1.4C15.778,30.711,16.711,28.844,16.867,26.822z"/>
<path fill="none" d="M11.733,38.644v10.422c4.667-0.311,8.867-2.022,12.444-4.822l-7.467-7.467
	C15.156,37.711,13.6,38.333,11.733,38.644z"/>
<path fill="none" d="M3.333,36.778l-3.578,3.578l-3.889,3.889c3.422,2.8,7.622,4.511,11.978,4.978V38.644
	c-0.311,0-0.778-0.156-1.089-0.311C5.511,37.867,4.422,37.4,3.333,36.778z"/>
<path fill="#FFFFFF" d="M35.533,10.8c-1.244-1.867-2.489-3.578-4.2-5.133c-0.467-0.467-0.933-0.933-1.556-1.4
	C24.333-0.556,17.333-3.2,9.867-3.2C-6.467-3.356-20,10.022-20,26.667c0,8.089,3.111,15.556,8.711,21.311l1.089,0.933
	c5.444,5.133,12.6,7.933,20.222,7.933h0.156c14.311,0,26.444-10.111,29.4-23.644c0.467-2.022,0.778-4.2,0.778-6.378
	C40.2,21.067,38.489,15.467,35.533,10.8z M11.733,4.267c2.8,0.156,5.289,0.933,7.778,2.022c1.867,0.933,3.733,2.022,5.444,3.422
	l-4.044,4.044l-3.422,3.422c-1.089-0.778-2.333-1.556-3.733-1.867l-2.022-0.467V4.267z M7.844,4.422V15l-1.711,0.467
	c-1.244,0.311-2.489,0.933-3.578,1.867l-7.467-7.467C-1.333,6.911,3.022,4.889,7.844,4.422z M-7.4,12.667l7.467,7.467
	c-1.089,1.711-1.711,3.578-1.867,5.756h-10.578C-12.222,20.911-10.356,16.4-7.4,12.667z M-12.222,29.778h10.578
	c0.467,1.556,1.089,3.111,2.178,4.356L-6.933,41.6C-9.733,38.178-11.6,34.133-12.222,29.778z M7.844,49.067
	C3.489,48.6-0.711,46.889-4.133,44.089l3.889-3.889l3.578-3.578c1.089,0.622,2.178,1.244,3.422,1.556
	c0.311,0.156,0.778,0.311,1.089,0.311V49.067z M6.6,32.267c-1.867-1.244-2.956-3.267-2.956-5.6c0-2.178,1.089-4.044,2.8-5.289
	c1.089-0.778,2.489-1.244,3.889-1.244s2.644,0.467,3.733,1.244c1.711,1.244,2.8,3.111,2.8,5.444c0,2.022-1.089,3.889-2.489,5.133
	c-1.089,0.933-2.489,1.4-4.044,1.4C8.933,33.356,7.689,32.889,6.6,32.267z M11.733,49.222V38.644
	c1.711-0.311,3.422-0.933,4.978-1.867l7.467,7.467C20.6,47.044,16.4,48.756,11.733,49.222z M31.489,33.511
	C30.556,36.622,29,39.422,26.822,41.6l-7.467-7.467l0.156-0.311c0.933-1.244,1.711-2.644,2.022-4.2h10.578
	C32.111,31.022,31.8,32.267,31.489,33.511z M22.156,25.889c-0.156-2.178-0.933-4.2-2.022-5.911l7.467-7.467
	c3.111,3.733,4.822,8.4,4.978,13.378H22.156z"/>
<circle fill="none" cx="81.578" cy="18.422" r="6.533"/>
<path fill="none" d="M95.733,22c-0.467,1.556-1.4,3.889-2.8,5.444l9.333,9.333c3.578-4.044,6.067-9.178,6.689-14.778H95.733z"/>
<path fill="none" d="M96.2,17.489h13.067c-0.156-6.222-2.489-11.978-6.222-16.489l-9.333,9.333
	C95.111,12.356,96.044,14.378,96.2,17.489z"/>
<path fill="none" d="M83.133-9.267V3.956c3.111,0.311,5.289,1.4,7.156,2.956l9.333-9.489C95.111-6.467,89.511-8.8,83.133-9.267z"/>
<polygon fill="#27B4A6" points="64.467,4.733 63.689,4.889 64.622,5.822 "/>
<circle fill="none" cx="81.578" cy="18.422" r="6.533"/>
<path fill="none" d="M66.644,17.489h0.311c0.156-3.111,0.933-4.978,2.333-7l-4.667-4.667l-0.156-1.089l-0.778,0.156l-3.733-3.733
	c-1.244,1.556-2.333,3.422-3.267,5.289c-1.711,3.422-2.644,7.156-2.8,11.044C53.889,17.489,66.644,17.489,66.644,17.489z"/>
<path fill="none" d="M99.622-2.578c-4.511-3.889-10.267-6.378-16.489-6.689V3.956c3.111,0.311,5.289,1.4,7.156,2.956L99.622-2.578z"
	/>
<path fill="none" d="M96.2,17.489h13.067c-0.156-6.222-2.489-11.978-6.222-16.489l-9.333,9.333
	C95.111,12.356,96.044,14.378,96.2,17.489z"/>
<path fill="none" d="M72.244,7.067c0.156-0.156,0.311-0.156,0.311-0.311c1.867-1.4,4.511-2.333,5.911-2.644V-9.111
	c-5.444,0.622-10.578,2.8-14.622,6.222l-0.933,0.778C62.911-2.111,72.244,7.067,72.244,7.067z"/>
<path fill="none" d="M93.089,27.6l9.333,9.333c3.578-4.044,6.067-9.178,6.689-14.778H95.733
	C95.267,23.556,94.333,25.889,93.089,27.6z"/>
<path fill="none" d="M69.133,32.111l-0.622-3.267l1.4-1.4c-1.244-1.556-2.022-3.578-2.489-5.133v-0.156H54.044
	c0.467,3.733,1.711,7.311,3.578,10.422c0.933,1.4,1.867,2.8,2.956,4.2l4.511-4.511C65.089,32.267,69.133,32.111,69.133,32.111z"/>
<path fill="none" d="M89.356,30.711c-1.711,1.089-3.889,1.867-6.222,2.178v13.222c5.289-0.311,10.111-2.022,14.156-4.978
	c0.467-0.311,0.933-0.622,1.4-1.089L89.356,30.711z"/>
<path fill="none" d="M76.911,32.422c-1.244-0.467-2.644-1.089-3.733-1.711l-9.333,9.178c4.2,3.422,9.178,5.6,14.622,6.222V32.889
	C78,32.733,77.533,32.578,76.911,32.422z"/>
<path fill="none" d="M66.956,17.489c0.156-3.111,0.933-4.978,2.333-7l-4.667-4.667l-0.156-1.089l-0.778,0.156l-3.733-3.733
	c-1.244,1.556-2.333,3.422-3.267,5.289c-1.711,3.422-2.644,7.156-2.8,11.044H66.956z"/>
<path fill="none" d="M68.511,28.844l1.4-1.4c-1.244-1.556-2.022-3.578-2.489-5.133v-0.156H54.044
	c0.467,3.733,1.711,7.311,3.578,10.422c0.933,1.4,1.867,2.8,2.956,4.2l4.511-4.511C65.089,32.267,68.511,28.844,68.511,28.844z"/>
<path fill="none" d="M72.556,6.756c1.867-1.4,4.511-2.333,5.911-2.644V-9.111c-5.444,0.622-10.578,2.8-14.622,6.222l-0.933,0.778
	l9.022,9.178C72.244,6.911,72.4,6.911,72.556,6.756z"/>
<path fill="none" d="M96.2,17.489h13.067c-0.156-6.222-2.489-11.978-6.222-16.489l-9.333,9.333
	C95.111,12.356,96.044,14.378,96.2,17.489z"/>
<path fill="none" d="M99.622-2.578c-4.511-3.889-10.267-6.378-16.489-6.689V3.956c3.111,0.311,5.289,1.4,7.156,2.956L99.622-2.578z"
	/>
<path fill="none" d="M73.178,30.556l-9.333,9.178c4.2,3.422,9.178,5.6,14.622,6.222V32.733l-1.556-0.467
	C75.667,31.956,74.422,31.333,73.178,30.556z"/>
<path fill="none" d="M93.089,27.6l9.333,9.333c3.578-4.044,6.067-9.178,6.689-14.778H95.733
	C95.267,23.556,94.333,25.889,93.089,27.6z"/>
<circle fill="none" cx="81.578" cy="18.422" r="6.533"/>
<path fill="none" d="M83.133,32.889v13.222c5.289-0.311,10.111-2.022,14.156-4.978c0.467-0.311,0.933-0.622,1.4-1.089l-9.333-9.489
	C87.644,31.956,85.467,32.578,83.133,32.889z"/>
<path fill="none" d="M72.556,6.756c1.867-1.4,4.511-2.333,5.911-2.644V-9.111c-5.444,0.622-10.578,2.8-14.622,6.222l-0.933,0.778
	l9.022,9.178C72.244,6.911,72.4,6.911,72.556,6.756z"/>
<path fill="none" d="M66.956,17.489c0.156-3.111,0.933-4.978,2.333-7l-4.667-4.667l-0.156-1.089l-0.778,0.156l-3.733-3.733
	c-1.244,1.556-2.333,3.422-3.267,5.289c-1.711,3.422-2.644,7.156-2.8,11.044H66.956z"/>
<path fill="none" d="M99.622-2.578c-4.511-3.889-10.267-6.378-16.489-6.689V3.956c3.111,0.311,5.289,1.4,7.156,2.956L99.622-2.578z"
	/>
<path fill="none" d="M68.511,28.844l1.4-1.4c-1.244-1.556-2.022-3.578-2.489-5.133v-0.156H54.044
	c0.467,3.733,1.711,7.311,3.578,10.422c0.933,1.4,1.867,2.8,2.956,4.2l4.511-4.511C65.089,32.267,68.511,28.844,68.511,28.844z"/>
<path fill="none" d="M96.2,17.489h13.067c-0.156-6.222-2.489-11.978-6.222-16.489l-9.333,9.333
	C95.111,12.356,96.044,14.378,96.2,17.489z"/>
<path fill="none" d="M83.133,32.889v13.222c5.289-0.311,10.111-2.022,14.156-4.978c0.467-0.311,0.933-0.622,1.4-1.089l-9.333-9.489
	C87.644,31.956,85.467,32.578,83.133,32.889z"/>
<path fill="none" d="M73.178,30.556l-9.333,9.178c4.2,3.422,9.178,5.6,14.622,6.222V32.733l-1.556-0.467
	C75.667,31.956,74.422,31.333,73.178,30.556z"/>
<path fill="none" d="M93.089,27.6l9.333,9.333c3.578-4.044,6.067-9.178,6.689-14.778H95.733
	C95.267,23.556,94.333,25.889,93.089,27.6z"/>
<circle fill="none" cx="81.578" cy="18.422" r="6.533"/>
<path fill="#FFFFFF" d="M81.578-16.889c-12.6,0-23.489,6.689-29.867,16.489C50,2.244,48.6,5.044,47.822,8.156
	c-0.933,3.267-1.556,6.533-1.556,10.111c0,5.133,1.089,9.956,3.111,14.467c1.711,3.889,4.044,7.467,7.156,10.578
	C63.222,50,72.089,53.733,81.422,53.733h0.156c7.778,0,14.933-2.489,20.844-6.844c8.711-6.378,14.467-16.8,14.467-28.311
	C117.044-0.867,101.178-16.889,81.578-16.889z M109.267,17.489H96.2c-0.156-3.111-1.089-4.978-2.489-7.156L103.044,1
	C106.778,5.511,109.111,11.267,109.267,17.489z M83.133-9.267c6.222,0.311,11.978,2.8,16.489,6.689l-9.333,9.489
	c-2.022-1.556-4.044-2.644-7.156-2.956C83.133,3.956,83.133-9.267,83.133-9.267z M64-2.889c4.044-3.422,9.022-5.6,14.622-6.222
	V4.111c-1.4,0.311-4.2,1.4-5.911,2.644C72.556,6.911,72.4,6.911,72.4,7.067l-9.022-9.178C63.378-2.422,63.689-2.578,64-2.889z
	 M56.689,6.444c0.933-1.867,2.022-3.578,3.267-5.289l3.733,3.733l0.933,0.933l4.667,4.667c-1.244,2.022-2.178,3.889-2.333,7H53.889
	C54.044,13.444,54.978,9.711,56.689,6.444z M57.778,32.578c-1.867-3.267-3.111-6.689-3.578-10.422h13.378v0.156
	c0.467,1.556,1.4,3.578,2.489,5.133l-4.822,4.822l-4.356,4.511C59.644,35.378,58.556,33.978,57.778,32.578z M78.467,46.111
	c-4.978,0.156-9.333-0.933-14.622-6.222l9.333-9.178c1.089,0.778,2.489,1.4,3.733,1.711l1.556,0.467
	C78.467,32.889,78.467,46.111,78.467,46.111z M81.578,24.956c-3.578,0-6.533-2.956-6.533-6.533s2.956-6.533,6.533-6.533
	c3.578,0,6.533,2.956,6.533,6.533C88.111,22.156,85.156,25.111,81.578,24.956z M97.444,41.289c-4.044,2.8-9.022,4.667-14.156,4.978
	V32.889c2.333-0.311,4.511-1.089,6.222-2.178l9.333,9.489C98.222,40.511,97.911,40.978,97.444,41.289z M102.267,36.778l-9.333-9.333
	c1.244-1.556,2.178-4.044,2.8-5.444h13.378C108.333,27.756,106,32.733,102.267,36.778z"/>
</svg>
