<svg xmlns="http://www.w3.org/2000/svg" viewBox="0 0 100 100" enable-background="new 0 0 100 100"><path fill="#fff" d="M33.2 81.3l-10.8 10.8c-.5.5-1.1.7-1.7.7-.6 0-1.2-.2-1.7-.7-1-1-.9-2.5 0-3.4l7.4-7.3 6.8-.1z"/><path fill="#fff" d="M77.8 92.3c-.5.5-1.1.7-1.7.7-.6 0-1.3-.2-1.7-.7l-10.8-10.8h6.9l7.3 7.4c1 .9 1 2.4 0 3.4z"/><path d="M43.2 39.2c.3-1.3.5-2.7.5-4.1 0-3.7-1-7.3-3-10.3l7.9-1.6c-.6 2.1-1 4.2-1 6.5 0 3.3.7 6.4 2 9.3l-6.4.2z" fill="none"/><path d="M66.6 77.5h-3.6v-.1c1-.9 2.6-.9 3.6.1z" fill="none"/><path opacity=".6" fill="#fff" d="M40.7 24.8l7.9-1.6c.6-2 1.5-3.8 2.5-5.5l-14 2.9 1 .9c1 .9 1.9 2.1 2.6 3.3z"/><path opacity=".6" fill="#fff" d="M83.9 49.4v26.8c0 .5-.1.9-.2 1.4-.6 2.3-2.7 4-5.2 4h-14.7l-30.4-.1h-16.700000000000003c-1.4 0-2.8-.6-3.8-1.6-.6-.6-1-1.4-1.3-2.2-.2-.5-.3-1.1-.3-1.6l.1-26.6c3.5 3.3 8.1 5.1 13 5.1h.1c9.2 0 17-6.5 18.9-15.2l6.4-.2c1.1 2.5 2.6 4.8 4.6 6.8 4.3 4.3 10 6.7 16 6.7h.1c5 0 9.6-1.6 13.4-4.4-.1.2 0 .6 0 1.1z"/><polygon fill="#fff" points="90,55.9 90,71.7 83.8,71.6 83.8,55.8"/><path fill="#1A98C2" d="M95 53.3v.273559366969494e-16z"/><path opacity=".6" fill="#fff" d="M94 52.4h-3c-.5 0-1 .4-1 1v20.3c0 .5.4 1 1 1h3c.5 0 1-.4 1-1v-20.4c-.1-.5-.5-.9-1-.9z"/><path d="M18.2 39.8c-.6-.8-1.1-1.8-1.4-2.8h-6.8c.4 2.8 1.6 5.4 3.4 7.6l4.8-4.8z" fill="none"/><path d="M30.8 30.7c.7 1.1 1.2 2.4 1.3 3.8h6.7c-.1-3.2-1.2-6.1-3.2-8.6l-4.8 4.8z" fill="none"/><path d="M17.9 30.8l-4.8-4.8c-1.9 2.3-3 5.3-3.2 8.5h6.7c.1-1.4.6-2.6 1.3-3.7z" fill="none"/><path d="M21.8 27.7l1.1-.3v-6.8c-3.1.3-5.9 1.6-8.2 3.6l4.7 4.8c.8-.6 1.6-1 2.4-1.3z" fill="none"/><path d="M17.9 30.8l-4.8-4.8c-1.9 2.3-3 5.3-3.2 8.5h6.7c.1-1.4.6-2.6 1.3-3.7z" fill="none"/><path d="M18.2 39.8c-.6-.8-1.1-1.8-1.4-2.8h-6.8c.4 2.8 1.6 5.4 3.4 7.6l4.8-4.8z" fill="none"/><path d="M32.1 34.5h6.7c-.1-3.2-1.2-6.1-3.2-8.6l-4.8 4.8c.7 1.1 1.2 2.4 1.3 3.8z" fill="none"/><path d="M26.7 27.7c.9.3 1.7.7 2.4 1.2l2.2-2.2 2.6-2.6c-1.1-.9-2.2-1.7-3.5-2.2-1.6-.7-3.2-1.2-5-1.3v6.800000000000001c.5 0 .9.2 1.3.3z" fill="none"/><path d="M31.8 37c-.2 1-.7 1.9-1.3 2.7l-.1.2 4.8 4.8c1.3-1.5 2.3-3.3 3-5.2l.6-2.4h-7z" fill="none"/><path d="M28.7 35.1c0-1.4-.7-2.7-1.8-3.5-.7-.5-1.5-.7-2.4-.8-.9 0-1.8.3-2.5.8-1.1.8-1.7 2-1.7 3.4 0 1.5.8 2.8 1.9 3.6.7.4 1.4.7 2.3.7 1 0 1.9-.3 2.6-.9.9-.8 1.5-2 1.6-3.3z" fill="none"/><path d="M25.4 42.7v6.7c3-.2 5.7-1.3 8-3.1l-4.8-4.8c-1 .6-2 1-3.2 1.2z" fill="none"/><path d="M20 41.5l-2.3 2.3-2.5 2.5c2.2 1.8 4.9 2.9 7.7 3.2v-6.8c-.2 0-.5-.1-.7-.2-.8-.3-1.5-.6-2.2-1z" fill="none"/><path fill="#fff" d="M40.7 24.8c-.8-1.2-1.6-2.3-2.7-3.3-.3-.3-.6-.6-1-.9-3.5-3.1-8-4.8-12.8-4.8-10.5-.1-19.2 8.5-19.2 19.2 0 5.2 2 10 5.6 13.7l.7.6c3.5 3.3 8.1 5.1 13 5.1h.1c9.2 0 17-6.5 18.9-15.2.3-1.3.5-2.7.5-4.1-.1-3.7-1.2-7.3-3.1-10.3zm-15.3-4.2c1.8.1 3.4.6 5 1.3 1.2.6 2.4 1.3 3.5 2.2l-2.6 2.6-2.2 2.2c-.7-.5-1.5-1-2.4-1.2l-1.3-.3v-6.8zm-2.5.1v6.8l-1.1.3c-.8.2-1.6.6-2.3 1.2l-4.8-4.8c2.3-1.9 5.1-3.2 8.2-3.5zm-9.8 5.3l4.8 4.8c-.7 1.1-1.1 2.3-1.2 3.7h-6.8c.1-3.2 1.3-6.1 3.2-8.5zm-3.1 11h6.8c.3 1 .7 2 1.4 2.8l-4.8 4.8c-1.8-2.2-3-4.8-3.4-7.6zm12.9 12.4c-2.8-.3-5.5-1.4-7.7-3.2l2.5-2.5 2.3-2.3c.7.4 1.4.8 2.2 1 .2.1.5.2.7.2v6.8zm-.8-10.8c-1.2-.8-1.9-2.1-1.9-3.6 0-1.4.7-2.6 1.8-3.4.7-.5 1.6-.8 2.5-.8.9 0 1.7.3 2.4.8 1.1.8 1.8 2 1.8 3.5 0 1.3-.7 2.5-1.6 3.3-.7.6-1.6.9-2.6.9-.9 0-1.7-.3-2.4-.7zm3.3 10.9v-6.8c1.1-.2 2.2-.6 3.2-1.2l4.8 4.8c-2.3 1.8-5 2.9-8 3.2zm12.7-10.1c-.6 2-1.6 3.8-3 5.2l-4.8-4.8.1-.2c.6-.8 1.1-1.7 1.3-2.7h6.8c0 .9-.2 1.7-.4 2.5zm-6-4.9c-.1-1.4-.6-2.7-1.3-3.8l4.8-4.8c2 2.4 3.1 5.4 3.2 8.6h-6.7z"/><circle cx="70.3" cy="29.7" r="4.2" fill="none"/><path d="M79.4 32c-.3 1-.9 2.5-1.8 3.5l6 6c2.3-2.6 3.9-5.9 4.3-9.5h-8.5z" fill="none"/><path d="M79.7 29.1h8.4c-.1-4-1.6-7.7-4-10.6l-6 6c.9 1.3 1.5 2.6 1.6 4.6z" fill="none"/><path d="M71.3 11.9v8.5c2 .2 3.4.9 4.6 1.9l6-6.1c-2.9-2.5-6.5-4-10.6-4.3z" fill="none"/><polygon fill="#27B4A6" points="59.3,20.9 58.8,21 59.4,21.6"/><circle cx="70.3" cy="29.7" r="4.2" fill="none"/><path d="M60.7 29.1h.2c.1-2 .6-3.2 1.5-4.5l-3-3-.1-.7-.5.1-2.4-2.4c-.8 1-1.5 2.2-2.1 3.4-1.1 2.2-1.7 4.6-1.8 7.1h8.2z" fill="none"/><path d="M81.9 16.2c-2.9-2.5-6.6-4.1-10.6-4.3v8.5c2 .2 3.4.9 4.6 1.9l6-6.1z" fill="none"/><path d="M79.7 29.1h8.4c-.1-4-1.6-7.7-4-10.6l-6 6c.9 1.3 1.5 2.6 1.6 4.6z" fill="none"/><path d="M64.3 22.4c.1-.1.2-.1.2-.2 1.2-.9 2.9-1.5 3.8-1.7v-8.5c-3.5.4-6.8 1.8-9.4 4l-.6.5 6 5.9z" fill="none"/><path d="M77.7 35.6l6 6c2.3-2.6 3.9-5.9 4.3-9.5h-8.6c-.3.9-.9 2.4-1.7 3.5z" fill="none"/><path d="M62.3 38.5l-.4-2.1.9-.9c-.8-1-1.3-2.3-1.6-3.3v-.1h-8.6c.3 2.4 1.1 4.7 2.3 6.7.6.9 1.2 1.8 1.9 2.7l2.9-2.9 2.6-.1z" fill="none"/><path d="M75.3 37.6c-1.1.7-2.5 1.2-4 1.4v8.5c3.4-.2 6.5-1.3 9.1-3.2.3-.2.6-.4.9-.7l-6-6z" fill="none"/><path d="M67.3 38.7c-.8-.3-1.7-.7-2.4-1.1l-6 5.9c2.7 2.2 5.9 3.6 9.4 4v-8.5c-.3-.1-.6-.2-1-.3z" fill="none"/><path d="M60.9 29.1c.1-2 .6-3.2 1.5-4.5l-3-3-.1-.7-.5.1-2.4-2.4c-.8 1-1.5 2.2-2.1 3.4-1.1 2.2-1.7 4.6-1.8 7.1h8.399999999999999z" fill="none"/><path d="M61.9 36.4l.9-.9c-.8-1-1.3-2.3-1.6-3.3v-.1h-8.6c.3 2.4 1.1 4.7 2.3 6.7.6.9 1.2 1.8 1.9 2.7l2.9-2.9 2.2-2.2z" fill="none"/><path d="M64.5 22.2c1.2-.9 2.9-1.5 3.8-1.7v-8.5c-3.5.4-6.8 1.8-9.4 4l-.6.5 5.8 5.9c.2-.1.3-.1.4-.2z" fill="none"/><path d="M79.7 29.1h8.4c-.1-4-1.6-7.7-4-10.6l-6 6c.9 1.3 1.5 2.6 1.6 4.6z" fill="none"/><path d="M81.9 16.2c-2.9-2.5-6.6-4.1-10.6-4.3v8.5c2 .2 3.4.9 4.6 1.9l6-6.1z" fill="none"/><path d="M64.9 37.5l-6 5.9c2.7 2.2 5.9 3.6 9.4 4v-8.5l-1-.3c-.8-.2-1.6-.6-2.4-1.1z" fill="none"/><path d="M77.7 35.6l6 6c2.3-2.6 3.9-5.9 4.3-9.5h-8.6c-.3.9-.9 2.4-1.7 3.5z" fill="none"/><circle cx="70.3" cy="29.7" r="4.2" fill="none"/><path d="M71.3 39v8.5c3.4-.2 6.5-1.3 9.1-3.2.3-.2.6-.4.9-.7l-6-6.1c-1.1.9-2.5 1.3-4 1.5z" fill="none"/><path d="M64.5 22.2c1.2-.9 2.9-1.5 3.8-1.7v-8.5c-3.5.4-6.8 1.8-9.4 4l-.6.5 5.8 5.9c.2-.1.3-.1.4-.2z" fill="none"/><path d="M60.9 29.1c.1-2 .6-3.2 1.5-4.5l-3-3-.1-.7-.5.1-2.4-2.4c-.8 1-1.5 2.2-2.1 3.4-1.1 2.2-1.7 4.6-1.8 7.1h8.399999999999999z" fill="none"/><path d="M81.9 16.2c-2.9-2.5-6.6-4.1-10.6-4.3v8.5c2 .2 3.4.9 4.6 1.9l6-6.1z" fill="none"/><path d="M61.9 36.4l.9-.9c-.8-1-1.3-2.3-1.6-3.3v-.1h-8.6c.3 2.4 1.1 4.7 2.3 6.7.6.9 1.2 1.8 1.9 2.7l2.9-2.9 2.2-2.2z" fill="none"/><path d="M79.7 29.1h8.4c-.1-4-1.6-7.7-4-10.6l-6 6c.9 1.3 1.5 2.6 1.6 4.6z" fill="none"/><path d="M71.3 39v8.5c3.4-.2 6.5-1.3 9.1-3.2.3-.2.6-.4.9-.7l-6-6.1c-1.1.9-2.5 1.3-4 1.5z" fill="none"/><path d="M64.9 37.5l-6 5.9c2.7 2.2 5.9 3.6 9.4 4v-8.5l-1-.3c-.8-.2-1.6-.6-2.4-1.1z" fill="none"/><path d="M77.7 35.6l6 6c2.3-2.6 3.9-5.9 4.3-9.5h-8.6c-.3.9-.9 2.4-1.7 3.5z" fill="none"/><circle cx="70.3" cy="29.7" r="4.2" fill="none"/><path fill="#fff" d="M70.3 7c-8.1 0-15.1 4.3-19.2 10.6-1.1 1.7-2 3.5-2.5 5.5-.6 2.1-1 4.2-1 6.5 0 3.3.7 6.4 2 9.3 1.1 2.5 2.6 4.8 4.6 6.8 4.3 4.3 10 6.7 16 6.7h.1c5 0 9.6-1.6 13.4-4.4 5.6-4.1 9.3-10.8 9.3-18.2.1-12.5-10.1-22.8-22.7-22.8zm17.8 22.1h-8.4c-.1-2-.7-3.2-1.6-4.6l6-6c2.4 2.9 3.9 6.6 4 10.6zm-16.8-17.2c4 .2 7.7 1.8 10.6 4.3l-6 6.1c-1.3-1-2.6-1.7-4.6-1.9v-8.5zm-12.3 4.1c2.6-2.2 5.8-3.6 9.4-4v8.5c-.9.2-2.7.9-3.8 1.7-.1.1-.2.1-.2.2l-5.8-5.9c0-.2.2-.3.4-.5zm-4.7 6c.6-1.2 1.3-2.3 2.1-3.4l2.4 2.4.6.6 3 3c-.8 1.3-1.4 2.5-1.5 4.5h-8.4c.1-2.6.7-5 1.8-7.1zm.7 16.8c-1.2-2.1-2-4.3-2.3-6.7h8.6v.1c.3 1 .9 2.3 1.6 3.3l-3.1 3.1-2.8 2.9c-.8-.9-1.5-1.8-2-2.7zm13.3 8.7c-3.2.1-6-.6-9.4-4l6-5.9c.7.5 1.6.9 2.4 1.1l1 .3v8.5zm2-13.6c-2.3 0-4.2-1.9-4.2-4.2 0-2.3 1.9-4.2 4.2-4.2 2.3 0 4.2 1.9 4.2 4.2 0 2.4-1.9 4.3-4.2 4.2zm10.2 10.5c-2.6 1.8-5.8 3-9.1 3.2v-8.6c1.5-.2 2.9-.7 4-1.4l6 6.1c-.4.2-.6.5-.9.7zm3.1-2.9l-6-6c.8-1 1.4-2.6 1.8-3.5h8.6c-.5 3.7-2 6.9-4.4 9.5z"/></svg>