<?xml version="1.0" encoding="utf-8"?>
<!-- Generator: Adobe Illustrator 17.1.0, SVG Export Plug-In . SVG Version: 6.00 Build 0)  -->
<!DOCTYPE svg PUBLIC "-//W3C//DTD SVG 1.1//EN" "http://www.w3.org/Graphics/SVG/1.1/DTD/svg11.dtd">
<svg version="1.1" id="Layer_1" xmlns="http://www.w3.org/2000/svg" xmlns:xlink="http://www.w3.org/1999/xlink" x="0px" y="0px"
	 viewBox="-50 -50 200 200" enable-background="new -50 -50 200 200" xml:space="preserve">
<circle fill="#DDDCDC" cx="50" cy="50" r="100"/>
<path fill="none" d="M82.875-27.812c0-1.062-0.312-2-0.875-2.812c-0.812-0.562-1.812-0.875-2.812-0.875
	c-2.812,0-5.063,2.312-5.063,5.062c0,1.062,0.312,2,0.875,2.812c0.812,0.563,1.812,0.875,2.812,0.875
	C80.625-22.688,82.875-25,82.875-27.812z"/>
<path fill="none" d="M-26.688-14.188l0.25,0.5c0.812,0.563,1.813,0.875,2.812,0.875c2.812,0,5.063-2.25,5.063-5.062
	c0-1.062-0.312-2-0.875-2.812C-19.688-20.875-20-21-20.25-21.125C-22.437-19-24.625-16.625-26.688-14.188z"/>
<path fill="none" d="M57.938,6.875c-2.375-1.562-4.5-2.438-4.812-2l-9.5,14.5c-2.75-1.312-5.812-2.063-9-2.063
	c-4.563,0-8.812,1.5-12.25,3.938L10.813,10.563c-0.375-0.312-2.188,1.062-4.125,3.125s-3.187,4-2.812,4.375l11.875,11
	c-1.375,2.812-2.188,5.938-2.188,9.312c0,11.625,9.438,21,21.062,21s21-9.438,21-21c0-4.625-1.5-8.938-4.062-12.438L61.688,10.5
	C61.937,10,60.312,8.375,57.938,6.875z"/>
<path fill="none" d="M125.938,10.312c0-1.062-0.312-2-0.875-2.812c-0.812-0.563-1.812-0.875-2.812-0.875
	c-2.812,0-5.062,2.25-5.062,5.062c0,1.062,0.312,2.063,0.875,2.875c0.812,0.563,1.812,0.875,2.812,0.875
	C123.688,15.437,125.938,13.125,125.938,10.312z"/>
<path fill="#005CB9" d="M-26.688-14.188L-26.812-14c0.125,0.125,0.25,0.25,0.375,0.312C-26.5-13.875-26.563-14.062-26.688-14.188z"
	/>
<path fill="#005CB9" d="M-19.375-20.812c-0.188-0.25-0.375-0.5-0.562-0.687l-0.25,0.25C-19.875-21.125-19.625-20.937-19.375-20.812z
	"/>
<path fill="#005CB9" d="M-16.562-13.625l1.438,1.312c0.75-1.25,1.188-2.688,1.188-4.25c0-2.625-1.25-5-3.125-6.5
	c1.125,1.437,1.75,3.187,1.75,5.125C-15.312-16.375-15.75-14.875-16.562-13.625z"/>
<path fill="#005CB9" d="M-22.188-8.25c1.75,0,3.375-0.563,4.75-1.5L2.875,8.688l2.25-2.5L3.687,4.875L1.5,7.313l-20.312-18.5
	c-1.312,0.938-3,1.5-4.75,1.5c-2,0-3.812-0.75-5.25-1.937c-1.188,1.312-2.75,3.5-4.562,6.375l5.875-5
	C-26.063-9-24.188-8.25-22.188-8.25z"/>
<path fill="#005CB9" d="M128.438,6.937c0.438,1,0.75,2.188,0.75,3.375c0,4.563-3.687,8.313-8.25,8.313
	c-1.938,0-3.688-0.687-5.125-1.813c1.5,1.938,3.875,3.188,6.5,3.188c4.562,0,8.25-3.688,8.25-8.313c0-1.188-0.25-2.375-0.75-3.375
	l7.75-6.625c-0.312-0.563-0.625-1.125-1-1.75C136.562-0.063,128.437,6.937,128.438,6.937z"/>
<path fill="#005CB9" d="M122.25,6.625c1.063,0,2,0.312,2.812,0.875c-0.938-1.375-2.437-2.25-4.188-2.25
	c-2.812,0-5.063,2.25-5.063,5.062c0,1.75,0.875,3.313,2.25,4.25c-0.562-0.813-0.875-1.813-0.875-2.875
	C117.188,8.875,119.438,6.625,122.25,6.625z"/>
<path fill="#005CB9" d="M85.312-24.375l1.438,1.312c0.438-1,0.688-2.125,0.688-3.312c0-2.625-1.25-5-3.188-6.5
	C85.375-31.438,86-29.688,86-27.75C86.063-26.562,85.812-25.438,85.312-24.375z"/>
<path fill="#005CB9" d="M83.312-21.688c-1.438,1.312-3.375,2.188-5.5,2.188c-1.062,0-2.062-0.188-3-0.563L61.5-0.188L60.312-1
	l-0.188,0.312l2.75,1.875l13.313-19.875c0.938,0.375,1.938,0.563,3,0.563c2.125,0,4.062-0.812,5.5-2.188l29.125,26.438
	c0,0,0-0.062,0.063-0.062C113.875,6.062,83.313-21.688,83.312-21.688z"/>
<path fill="#005CB9" d="M79.188-31.5c1.062,0,2,0.312,2.812,0.875c-0.938-1.375-2.438-2.25-4.188-2.25
	c-2.812,0-5.062,2.25-5.062,5.062c0,1.75,0.875,3.312,2.25,4.25c-0.562-0.812-0.875-1.813-0.875-2.812
	C74.125-29.25,76.375-31.5,79.188-31.5z"/>
<path fill="#009ECA" d="M3.625,4.875l0.062-0.062l-18.812-17.125c0,0,0,0.062-0.062,0.062L3.625,4.875z"/>
<path fill="#009ECA" d="M-17.062-23.062c-0.188-0.188-0.375-0.438-0.5-0.625c-0.062,0.062-0.125,0.062-0.125,0.125
	C-17.5-23.375-17.312-23.25-17.062-23.062z"/>
<path fill="#009ECA" d="M3.625,4.875L1.438,7.313l-20.25-18.5c-2,1.687-3.187,1.625-4.75,1.5c-2.062-0.125-3.938-0.375-5.25-1.937
	l2-2.5c0.125,0.125,0.25,0.25,0.375,0.312c0.812,0.563,1.75,0.875,2.812,0.875c2.812,0,5.063-2.313,5.063-5.125
	c0-1.062-0.312-2-0.875-2.812c-0.187-0.25-0.375-0.5-0.562-0.687l2.188-2.062c0.25,0.125,0.438,0.312,0.688,0.5
	C-16-21.687-15.312-19.937-15.312-18c0,1.625-0.5,3.063-1.25,4.313l1.438,1.312l-0.062,0.125C-15.188-12.25,3.625,4.875,3.625,4.875
	z"/>
<path fill="#009ECA" d="M136.625,0c-0.25-0.437-0.5-0.813-0.688-1.25c-0.312-0.563-0.688-1.125-1.062-1.687L126.5,4.188
	C125,2.813,123.062,2,120.938,2c-1.812,0-3.438,0.563-4.75,1.562L86.812-23.125l-1.438-1.25c0.5-1.062,0.75-2.188,0.75-3.438
	c0-1.937-0.688-3.688-1.812-5.125c-1.5-1.938-3.875-3.188-6.5-3.188c-4.562,0-8.25,3.688-8.25,8.313c0,2.313,0.938,4.375,2.5,5.875
	L58.75-2.063L60.312-1L61.5-0.188l13.313-19.875c0.938,0.375,1.938,0.563,3,0.563c2.125,0,4.062-0.812,5.5-2.188L113.812,6
	l-0.062,0.062c-0.75,1.25-1.188,2.688-1.188,4.187c0,2.625,1.25,5,3.125,6.5c1.438,1.125,3.188,1.75,5.125,1.75
	c4.562,0,8.25-3.688,8.25-8.313c0-1.188-0.25-2.312-0.75-3.375C128.313,6.812,136.625,0,136.625,0z M77.812-22.688
	c-1.062,0-2-0.312-2.812-0.875c-1.375-0.938-2.25-2.438-2.25-4.25c0-2.812,2.25-5.062,5.062-5.062c1.75,0,3.312,0.875,4.188,2.25
	c0.562,0.812,0.875,1.812,0.875,2.812C82.875-25,80.625-22.688,77.812-22.688z M120.875,15.437c-1.063,0-2-0.312-2.812-0.875
	c-1.375-0.938-2.25-2.438-2.25-4.25c0-2.812,2.25-5.062,5.063-5.062c1.75,0,3.312,0.875,4.188,2.25
	c0.562,0.813,0.875,1.813,0.875,2.812C125.938,13.125,123.688,15.437,120.875,15.437z"/>
<path fill="#30BCAE" d="M63.125,91.188l31.625,48.25h0.063C94.813,139.437,63.125,91.187,63.125,91.188z"/>
<polygon fill="#30BCAE" points="112.188,128.25 112.188,128.25 75.812,82 "/>
<path fill="#59C9BE" d="M112.188,128.25L75.812,82L76,81.813c-7,2.5-11,6.75-12.875,9.375l31.625,48.25
	C101,136.312,106.813,132.562,112.188,128.25z"/>
<path fill="#30BCAE" d="M109.125,130.312L74.75,83l-0.812-1.187c-7,2.5-8.938,6.75-10.812,9.375l31.625,48.25
	C101,136.312,103.75,134.625,109.125,130.312z"/>
<path fill="#319B9B" d="M74.25,78.25c16.625-17.5,18.938-44.938,4.312-65.188C62-9.875,30-15,7.062,1.562S-21,50.125-4.438,73.062
	C10.25,93.375,37,99.688,58.875,89.375c0,0.062,0,0.125-0.063,0.188C60.562,86.938,65.187,81.125,74.25,78.25z M3,67.688
	C-10.562,48.875-6.375,22.625,12.438,9S57.5-0.375,71.125,18.438S80.5,63.5,61.688,77.125C42.875,90.687,16.625,86.5,3,67.688z"/>
<path fill="#005CB9" d="M76,81.812c-5.625,1-10.437,4.562-12.875,9.375C65,88.562,69,84.312,76,81.812z"/>
<path fill="#009ECA" d="M76,81.812c1.062-0.938,1.25-2.5,0.375-3.625c-0.5-0.75-1.313-1.125-2.188-1.125L74.25,77
	c-9.125,2.875-13.75,8.625-15.438,11.313c-0.188,0.75-0.063,1.562,0.437,2.25c0.875,1.25,2.625,1.5,3.813,0.625
	C65.563,86.437,70.375,82.875,76,81.812z"/>
<path fill="#FFFFFF" d="M2.188,67C-11.75,47.75-7.375,20.875,11.875,6.937s46.187-9.625,60.062,9.688
	c13.938,19.25,9.625,46.188-9.625,60.062C43.063,90.625,16.125,86.312,2.188,67z"/>
<path fill="#005CB9" d="M60.625,2.875c-2.5-1.625-4.75-2.562-5.063-2.063L45.625,16c-2.875-1.375-6.062-2.188-9.438-2.188
	c-4.812,0-9.187,1.562-12.812,4.125L11.187,6.75c-0.375-0.375-2.312,1.125-4.313,3.313s-3.313,4.25-2.937,4.563l12.5,11.5
	c-1.438,2.938-2.312,6.25-2.312,9.75c0,12.188,9.875,22.063,22.062,22.063S58.25,48.062,58.25,35.875c0-4.875-1.625-9.375-4.312-13
	L64.562,6.687C64.875,6.25,63.125,4.5,60.625,2.875z M36.187,49.812c-7.688,0-13.875-6.25-13.875-13.875
	c0-7.688,6.188-13.875,13.875-13.875s13.875,6.188,13.875,13.875C50.062,43.562,43.875,49.812,36.187,49.812z"/>
<path fill="#009ECA" d="M59.188,1.438c-2.5-1.625-4.75-2.562-5.063-2.063l-9.937,15.188c-2.875-1.375-6.062-2.188-9.5-2.188
	c-4.812,0-9.187,1.562-12.812,4.125L9.75,5.312C9.375,4.938,7.438,6.438,5.437,8.625s-3.313,4.25-2.937,4.563l12.5,11.5
	c-1.438,2.938-2.312,6.25-2.312,9.75c0,12.188,9.875,22.063,22.063,22.063s22.063-9.875,22.063-22.063c0-4.875-1.625-9.375-4.312-13
	L63.125,5.25C63.438,4.75,61.688,3.063,59.188,1.438z M34.75,48.375c-7.688,0-13.875-6.187-13.875-13.875
	s6.188-13.875,13.875-13.875S48.625,26.812,48.625,34.5S42.438,48.375,34.75,48.375z"/>
<path opacity="0.39" fill="#FFFFFF" enable-background="new    " d="M72.812,16.062C58.625-3.5,31.187-7.938,11.625,6.25
	C-8,20.437-12.375,47.812,1.813,67.438L72.812,16.062z"/>
<path fill="#59C9BE" d="M74.25,77c16.625-17.5,18.938-44.938,4.312-65.188C62-11.125,30-16.25,7.062,0.312S-21,48.875-4.438,71.812
	C10.25,92.125,37,98.438,58.875,88.125c0,0.062,0,0.125-0.063,0.188C60.562,85.688,65.187,79.875,74.25,77z M3,66.438
	C-10.562,47.625-6.375,21.375,12.438,7.75S57.5-1.625,71.125,17.188S80.5,62.25,61.688,75.875C42.875,89.437,16.625,85.25,3,66.438z
	"/>
</svg>
