<svg xmlns="http://www.w3.org/2000/svg" viewBox="0 0 320 320" enable-background="new 0 0 320 320"><circle fill="#DDDCDC" cx="160" cy="160" r="160"/><path fill="#EEEEED" d="M160 320c64.1 0 119.4-37.7 144.9-92.1h-289.8c25.5 54.4 80.8 92.1 144.9 92.1z"/><path d="M212.6 35.5c0-1.7-.5-3.2-1.4-4.5-1.3-.9-2.9-1.4-4.5-1.4-4.5 0-8.1 3.7-8.1 8.1 0 1.7.5 3.2 1.4 4.5 1.3.9 2.9 1.4 4.5 1.4 4.5.1 8.1-3.6 8.1-8.1z" fill="none"/><path d="M37.3 57.3l.4.8c1.3.9 2.9 1.4 4.5 1.4 4.5 0 8.1-3.6 8.1-8.1 0-1.7-.5-3.2-1.4-4.5-.4-.3-.9-.5-1.3-.7-3.5 3.4-7 7.2-10.3 11.1z" fill="none"/><path d="M172.7 91c-3.8-2.5-7.2-3.9-7.7-3.2l-15.2 23.2c-4.4-2.1-9.3-3.3-14.4-3.3-7.3 0-14.1 2.4-19.6 6.3l-18.5-17.1c-.6-.5-3.5 1.7-6.6 5-3.1 3.3-5.1 6.4-4.5 7l19 17.6c-2.2 4.5-3.5 9.5-3.5 14.9 0 18.6 15.1 33.6 33.7 33.6s33.6-15.1 33.6-33.6c0-7.4-2.4-14.3-6.5-19.9l16.2-24.7c.4-.8-2.2-3.4-6-5.8z" fill="none"/><path d="M281.5 96.5c0-1.7-.5-3.2-1.4-4.5-1.3-.9-2.9-1.4-4.5-1.4-4.5 0-8.1 3.6-8.1 8.1 0 1.7.5 3.3 1.4 4.6 1.3.9 2.9 1.4 4.5 1.4 4.5 0 8.1-3.7 8.1-8.2z" fill="none"/><path fill="#005CB9" d="M37.3 57.3l-.2.3c.2.2.4.4.6.5-.1-.3-.2-.6-.4-.8z"/><path fill="#005CB9" d="M49 46.7c-.3-.4-.6-.8-.9-1.1l-.4.4c.5.2.9.5 1.3.7z"/><path fill="#005CB9" d="M53.5 58.2l2.3 2.1c1.2-2 1.9-4.3 1.9-6.8 0-4.2-2-8-5-10.4 1.8 2.3 2.8 5.1 2.8 8.2 0 2.5-.7 4.9-2 6.9z"/><path fill="#005CB9" d="M44.5 66.8c2.8 0 5.4-.9 7.6-2.4l32.5 29.5 3.6-4-2.3-2.1-3.5 3.9-32.5-29.6c-2.1 1.5-4.8 2.4-7.6 2.4-3.2 0-6.1-1.2-8.4-3.1-1.9 2.1-4.4 5.6-7.3 10.2l9.4-8c2.3 2 5.3 3.2 8.5 3.2z"/><path fill="#005CB9" d="M285.5 91.1c.7 1.6 1.2 3.5 1.2 5.4 0 7.3-5.9 13.3-13.2 13.3-3.1 0-5.9-1.1-8.2-2.9 2.4 3.1 6.2 5.1 10.4 5.1 7.3 0 13.2-5.9 13.2-13.3 0-1.9-.4-3.8-1.2-5.4l12.4-10.6c-.5-.9-1-1.8-1.6-2.8l-13 11.2z"/><path fill="#005CB9" d="M275.6 90.6c1.7 0 3.2.5 4.5 1.4-1.5-2.2-3.9-3.6-6.7-3.6-4.5 0-8.1 3.6-8.1 8.1 0 2.8 1.4 5.3 3.6 6.8-.9-1.3-1.4-2.9-1.4-4.6 0-4.5 3.6-8.1 8.1-8.1z"/><path fill="#005CB9" d="M216.5 41l2.3 2.1c.7-1.6 1.1-3.4 1.1-5.3 0-4.2-2-8-5.1-10.4 1.8 2.3 2.8 5.1 2.8 8.2.1 1.9-.3 3.7-1.1 5.4z"/><path fill="#005CB9" d="M213.3 45.3c-2.3 2.1-5.4 3.5-8.8 3.5-1.7 0-3.3-.3-4.8-.9l-21.3 31.8-1.9-1.3-.3.5 4.4 3 21.3-31.8c1.5.6 3.1.9 4.8.9 3.4 0 6.5-1.3 8.8-3.5l46.6 42.3s0-.1.1-.1l-48.9-44.4z"/><path fill="#005CB9" d="M206.7 29.6c1.7 0 3.2.5 4.5 1.4-1.5-2.2-3.9-3.6-6.7-3.6-4.5 0-8.1 3.6-8.1 8.1 0 2.8 1.4 5.3 3.6 6.8-.9-1.3-1.4-2.9-1.4-4.5 0-4.6 3.6-8.2 8.1-8.2z"/><path fill="#009ECA" d="M85.8 87.8l.1-.1-30.1-27.4s0 .1-.1.1l30.1 27.4z"/><path fill="#009ECA" d="M52.7 43.1c-.3-.3-.6-.7-.8-1-.1.1-.2.1-.2.2.3.3.6.5 1 .8z"/><path fill="#009ECA" d="M85.8 87.8l-3.5 3.9-32.4-29.6c-3.2 2.7-5.1 2.6-7.6 2.4-3.3-.2-6.3-.6-8.4-3.1l3.2-4c.2.2.4.4.6.5 1.3.9 2.8 1.4 4.5 1.4 4.5 0 8.1-3.7 8.1-8.2 0-1.7-.5-3.2-1.4-4.5-.3-.4-.6-.8-.9-1.1l3.5-3.3c.4.2.7.5 1.1.8 1.8 2.3 2.9 5.1 2.9 8.2 0 2.6-.8 4.9-2 6.9l2.3 2.1-.1.2 30.1 27.4z"/><path fill="#009ECA" d="M298.6 80c-.4-.7-.8-1.3-1.1-2-.5-.9-1.1-1.8-1.7-2.7l-13.4 11.4c-2.4-2.2-5.5-3.5-8.9-3.5-2.9 0-5.5.9-7.6 2.5l-47-42.7-2.3-2c.8-1.7 1.2-3.5 1.2-5.5 0-3.1-1.1-5.9-2.9-8.2-2.4-3.1-6.2-5.1-10.4-5.1-7.3 0-13.2 5.9-13.2 13.3 0 3.7 1.5 7 4 9.4l-21.3 31.8 2.5 1.7 1.9 1.3 21.3-31.8c1.5.6 3.1.9 4.8.9 3.4 0 6.5-1.3 8.8-3.5l48.8 44.3-.1.1c-1.2 2-1.9 4.3-1.9 6.7 0 4.2 2 8 5 10.4 2.3 1.8 5.1 2.8 8.2 2.8 7.3 0 13.2-5.9 13.2-13.3 0-1.9-.4-3.7-1.2-5.4l13.3-10.9zm-94.1-36.3c-1.7 0-3.2-.5-4.5-1.4-2.2-1.5-3.6-3.9-3.6-6.8 0-4.5 3.6-8.1 8.1-8.1 2.8 0 5.3 1.4 6.7 3.6.9 1.3 1.4 2.9 1.4 4.5 0 4.5-3.6 8.2-8.1 8.2zm68.9 61c-1.7 0-3.2-.5-4.5-1.4-2.2-1.5-3.6-3.9-3.6-6.8 0-4.5 3.6-8.1 8.1-8.1 2.8 0 5.3 1.4 6.7 3.6.9 1.3 1.4 2.9 1.4 4.5 0 4.5-3.6 8.2-8.1 8.2z"/><path fill="#30BCAE" d="M181 225.9l50.6 77.2h.1l-50.7-77.2z"/><polygon fill="#30BCAE" points="259.5,285.2 259.5,285.2 201.3,211.2"/><path fill="#59C9BE" d="M259.5 285.2l-58.2-74 .3-.3c-11.2 4-17.6 10.8-20.6 15l50.6 77.2c10-5 19.3-11 27.9-17.9z"/><path fill="#30BCAE" d="M254.6 288.5l-55-75.7-1.3-1.9c-11.2 4-14.3 10.8-17.3 15l50.6 77.2c10-5 14.4-7.7 23-14.6z"/><path fill="#005CB9" d="M201.6 210.9c-9 1.6-16.7 7.3-20.6 15 3-4.2 9.4-11 20.6-15z"/><path fill="#009ECA" d="M201.6 210.9c1.7-1.5 2-4 .6-5.8-.8-1.2-2.1-1.8-3.5-1.8l.1-.1c-14.6 4.6-22 13.8-24.7 18.1-.3 1.2-.1 2.5.7 3.6 1.4 2 4.2 2.4 6.1 1 4-7.6 11.7-13.3 20.7-15z"/><path fill="#fff" d="M83.5 187.2c-22.3-30.8-15.3-73.8 15.5-96.1 30.8-22.3 73.9-15.4 96.1 15.5 22.3 30.8 15.4 73.9-15.4 96.1-30.8 22.3-73.9 15.4-96.2-15.5z"/><path fill="#005CB9" d="M177 84.6c-4-2.6-7.6-4.1-8.1-3.3l-15.9 24.3c-4.6-2.2-9.7-3.5-15.1-3.5-7.7 0-14.7 2.5-20.5 6.6l-19.5-17.9c-.6-.6-3.7 1.8-6.9 5.3s-5.3 6.8-4.7 7.3l20 18.4c-2.3 4.7-3.7 10-3.7 15.6 0 19.5 15.8 35.3 35.3 35.3 19.5 0 35.3-15.8 35.3-35.3 0-7.8-2.6-15-6.9-20.8l17-25.9c.5-.7-2.3-3.5-6.3-6.1zm-39.1 75.1c-12.3 0-22.2-10-22.2-22.2 0-12.3 9.9-22.2 22.2-22.2 12.3 0 22.2 9.9 22.2 22.2 0 12.2-9.9 22.2-22.2 22.2z"/><path fill="#009ECA" d="M174.7 82.3c-4-2.6-7.6-4.1-8.1-3.3l-15.9 24.3c-4.6-2.2-9.7-3.5-15.2-3.5-7.7 0-14.7 2.5-20.5 6.6l-19.4-17.9c-.6-.6-3.7 1.8-6.9 5.3s-5.3 6.8-4.7 7.3l20 18.4c-2.3 4.7-3.7 10-3.7 15.6 0 19.5 15.8 35.3 35.3 35.3 19.5 0 35.3-15.8 35.3-35.3 0-7.8-2.6-15-6.9-20.8l17-25.9c.5-.8-2.3-3.5-6.3-6.1zm-39.1 75.1c-12.3 0-22.2-9.9-22.2-22.2s9.9-22.2 22.2-22.2c12.3 0 22.2 9.9 22.2 22.2s-9.9 22.2-22.2 22.2z"/><path opacity=".39" fill="#fff" d="M196.5 105.7c-22.7-31.3-66.6-38.4-97.9-15.7-31.4 22.7-38.4 66.5-15.7 97.9l113.6-82.2z"/><path fill="#59C9BE" d="M198.8 203.2c26.6-28 30.3-71.9 6.9-104.3-26.5-36.7-77.7-44.9-114.4-18.4s-44.9 77.7-18.4 114.4c23.5 32.5 66.3 42.6 101.3 26.1 0 .1 0 .2-.1.3 2.8-4.2 10.2-13.5 24.7-18.1zm-114-16.9c-21.7-30.1-15-72.1 15.1-93.9 30.1-21.8 72.1-15 93.9 15.1 21.8 30.1 15 72.1-15.1 93.9-30.1 21.7-72.1 15-93.9-15.1z"/></svg>