<svg xmlns="http://www.w3.org/2000/svg" viewBox="200 440 320 320" enable-background="new 200 440 320 320"><circle fill="#DDDCDC" cx="360" cy="600" r="160"/><rect x="270.2" y="491.3" fill="#fff" width="177.2" height="178.6"/><line stroke="#ACE4DF" stroke-width=".889" stroke-linecap="round" stroke-miterlimit="10" x1="447.4" y1="498.1" x2="271.7" y2="498.1" fill="none"/><line stroke="#ACE4DF" stroke-width=".889" stroke-linecap="round" stroke-miterlimit="10" x1="447.4" y1="493.6" x2="271.7" y2="493.6" fill="none"/><line stroke="#ACE4DF" stroke-width=".889" stroke-linecap="round" stroke-miterlimit="10" x1="447.4" y1="502.6" x2="271.7" y2="502.6" fill="none"/><line stroke="#ACE4DF" stroke-width=".889" stroke-linecap="round" stroke-miterlimit="10" x1="447.4" y1="507.1" x2="271.7" y2="507.1" fill="none"/><line stroke="#ACE4DF" stroke-width=".889" stroke-linecap="round" stroke-miterlimit="10" x1="447.4" y1="511.6" x2="271.7" y2="511.6" fill="none"/><line stroke="#ACE4DF" stroke-width=".889" stroke-linecap="round" stroke-miterlimit="10" x1="447.4" y1="516.1" x2="271.7" y2="516.1" fill="none"/><line stroke="#ACE4DF" stroke-width=".889" stroke-linecap="round" stroke-miterlimit="10" x1="447.4" y1="520.6" x2="271.7" y2="520.6" fill="none"/><line stroke="#ACE4DF" stroke-width=".889" stroke-linecap="round" stroke-miterlimit="10" x1="447.4" y1="525.1" x2="271.7" y2="525.1" fill="none"/><line stroke="#ACE4DF" stroke-width=".889" stroke-linecap="round" stroke-miterlimit="10" x1="447.4" y1="529.6" x2="271.7" y2="529.6" fill="none"/><line stroke="#ACE4DF" stroke-width=".889" stroke-linecap="round" stroke-miterlimit="10" x1="447.4" y1="534.1" x2="271.7" y2="534.1" fill="none"/><line stroke="#ACE4DF" stroke-width=".889" stroke-linecap="round" stroke-miterlimit="10" x1="447.4" y1="538.6" x2="271.7" y2="538.6" fill="none"/><line stroke="#ACE4DF" stroke-width=".889" stroke-linecap="round" stroke-miterlimit="10" x1="447.4" y1="543.1" x2="271.7" y2="543.1" fill="none"/><line stroke="#ACE4DF" stroke-width=".889" stroke-linecap="round" stroke-miterlimit="10" x1="447.4" y1="547.6" x2="271.7" y2="547.6" fill="none"/><line stroke="#ACE4DF" stroke-width=".889" stroke-linecap="round" stroke-miterlimit="10" x1="447.4" y1="552.1" x2="271.7" y2="552.1" fill="none"/><line stroke="#ACE4DF" stroke-width=".889" stroke-linecap="round" stroke-miterlimit="10" x1="447.4" y1="556.6" x2="271.7" y2="556.6" fill="none"/><line stroke="#ACE4DF" stroke-width=".889" stroke-linecap="round" stroke-miterlimit="10" x1="447.4" y1="561.1" x2="271.7" y2="561.1" fill="none"/><line stroke="#ACE4DF" stroke-width=".889" stroke-linecap="round" stroke-miterlimit="10" x1="447.4" y1="565.5" x2="271.7" y2="565.5" fill="none"/><line stroke="#ACE4DF" stroke-width=".889" stroke-linecap="round" stroke-miterlimit="10" x1="447.4" y1="570" x2="271.7" y2="570" fill="none"/><line stroke="#ACE4DF" stroke-width=".889" stroke-linecap="round" stroke-miterlimit="10" x1="447.4" y1="574.5" x2="271.7" y2="574.5" fill="none"/><line stroke="#ACE4DF" stroke-width=".889" stroke-linecap="round" stroke-miterlimit="10" x1="447.4" y1="579" x2="271.7" y2="579" fill="none"/><line stroke="#ACE4DF" stroke-width=".889" stroke-linecap="round" stroke-miterlimit="10" x1="447.4" y1="583.5" x2="271.7" y2="583.5" fill="none"/><line stroke="#ACE4DF" stroke-width=".889" stroke-linecap="round" stroke-miterlimit="10" x1="447.4" y1="587.3" x2="271.7" y2="587.3" fill="none"/><line stroke="#ACE4DF" stroke-width=".889" stroke-linecap="round" stroke-miterlimit="10" x1="447.4" y1="591.8" x2="271.7" y2="591.8" fill="none"/><line stroke="#ACE4DF" stroke-width=".889" stroke-linecap="round" stroke-miterlimit="10" x1="447.4" y1="596.3" x2="271.7" y2="596.3" fill="none"/><line stroke="#ACE4DF" stroke-width=".889" stroke-linecap="round" stroke-miterlimit="10" x1="447.4" y1="600.8" x2="271.7" y2="600.8" fill="none"/><line stroke="#ACE4DF" stroke-width=".889" stroke-linecap="round" stroke-miterlimit="10" x1="447.4" y1="605.2" x2="271.7" y2="605.2" fill="none"/><line stroke="#ACE4DF" stroke-width="1.778" stroke-linecap="round" stroke-miterlimit="10" x1="417" y1="604.2" x2="417" y2="491.3" fill="none"/><line stroke="#ACE4DF" stroke-width=".889" stroke-linecap="round" stroke-miterlimit="10" x1="428.2" y1="560.7" x2="428.2" y2="491.3" fill="none"/><line stroke="#ACE4DF" stroke-width="1.778" stroke-linecap="round" stroke-miterlimit="10" x1="303.8" y1="604.2" x2="303.8" y2="491.3" fill="none"/><ellipse fill="#fff" stroke="#ACE4DF" stroke-width=".889" stroke-miterlimit="10" cx="428.2" cy="560.7" rx="2.8" ry="2.7"/><rect x="265.2" y="685.5" fill="#30BCAE" stroke="#30BCAE" stroke-width=".889" stroke-miterlimit="10" width="189.5" height="16.9"/><polygon fill="#30BCAE" points="454,697.7 266.8,689.8 266.8,689.2 454,689.2"/><rect x="272.5" y="493.7" stroke="#009ECA" stroke-width="5.333" stroke-linecap="round" stroke-miterlimit="10" width="175" height="179.2" fill="none"/><line stroke="#009ECA" stroke-width="2.667" stroke-linecap="round" stroke-miterlimit="10" x1="360.4" y1="494.1" x2="360.4" y2="672.9" fill="none"/><line stroke="#009ECA" stroke-width="2.667" stroke-linecap="round" stroke-miterlimit="10" x1="449.1" y1="590.9" x2="271.7" y2="590.9" fill="none"/><rect x="253.4" y="667.1" fill="#59C9BE" width="213.1" height="20.1"/><polygon opacity=".39" fill="#fff" enable-background="new" points="275.2,615.2 275.2,496.5 441.3,496.5"/></svg>