<svg xmlns="http://www.w3.org/2000/svg" viewBox="0 0 320 320" enable-background="new 0 0 320 320"><circle fill="#DDDCDC" cx="160" cy="160" r="160"/><path fill="#EEEEED" d="M160 320c64.1 0 119.4-37.7 144.9-92.1h-289.8c25.5 54.4 80.8 92.1 144.9 92.1z"/><rect x="70.2" y="51.3" fill="#fff" width="177.2" height="178.6"/><g stroke="#ACE4DF" stroke-miterlimit="10"><line stroke-width="2" stroke-linecap="round" x1="251" y1="58.1" x2="69.8" y2="58.1" fill="none"/><line stroke-width="2" stroke-linecap="round" x1="251" y1="53.6" x2="69.8" y2="53.6" fill="none"/><line stroke-width="2" stroke-linecap="round" x1="251" y1="62.6" x2="69.8" y2="62.6" fill="none"/><line stroke-width="2" stroke-linecap="round" x1="251" y1="67.1" x2="69.8" y2="67.1" fill="none"/><line stroke-width="2" stroke-linecap="round" x1="251" y1="71.6" x2="69.8" y2="71.6" fill="none"/><line stroke-width="2" stroke-linecap="round" x1="251" y1="76.1" x2="69.8" y2="76.1" fill="none"/><line stroke-width="2" stroke-linecap="round" x1="251" y1="80.6" x2="69.8" y2="80.6" fill="none"/><line stroke-width="2" stroke-linecap="round" x1="251" y1="85.1" x2="69.8" y2="85.1" fill="none"/><line stroke-width="2" stroke-linecap="round" x1="251" y1="89.6" x2="69.8" y2="89.6" fill="none"/><line stroke-width="2" stroke-linecap="round" x1="251" y1="94.1" x2="69.8" y2="94.1" fill="none"/><line stroke-width="2" stroke-linecap="round" x1="251" y1="98.6" x2="69.8" y2="98.6" fill="none"/><line stroke-width="2" stroke-linecap="round" x1="251" y1="103.1" x2="69.8" y2="103.1" fill="none"/><line stroke-width="2" stroke-linecap="round" x1="251" y1="107.6" x2="69.8" y2="107.6" fill="none"/><line stroke-width="2" stroke-linecap="round" x1="251" y1="112.1" x2="69.8" y2="112.1" fill="none"/><line stroke-width="2" stroke-linecap="round" x1="251" y1="116.6" x2="69.8" y2="116.6" fill="none"/><line stroke-width="2" stroke-linecap="round" x1="251" y1="121.1" x2="69.8" y2="121.1" fill="none"/><line stroke-width="2" stroke-linecap="round" x1="251" y1="125.5" x2="69.8" y2="125.5" fill="none"/><line stroke-width="2" stroke-linecap="round" x1="251" y1="130" x2="69.8" y2="130" fill="none"/><line stroke-width="2" stroke-linecap="round" x1="251" y1="134.5" x2="69.8" y2="134.5" fill="none"/><line stroke-width="2" stroke-linecap="round" x1="251" y1="139" x2="69.8" y2="139" fill="none"/><line stroke-width="2" stroke-linecap="round" x1="251" y1="143.5" x2="69.8" y2="143.5" fill="none"/><line stroke-width="2" stroke-linecap="round" x1="251" y1="147.3" x2="69.8" y2="147.3" fill="none"/><line stroke-width="2" stroke-linecap="round" x1="251" y1="151.8" x2="69.8" y2="151.8" fill="none"/><line stroke-width="2" stroke-linecap="round" x1="251" y1="156.3" x2="69.8" y2="156.3" fill="none"/><line stroke-width="2" stroke-linecap="round" x1="251" y1="160.8" x2="69.8" y2="160.8" fill="none"/><line stroke-width="2" stroke-linecap="round" x1="251" y1="165.2" x2="69.8" y2="165.2" fill="none"/><line stroke-width="4" stroke-linecap="round" x1="217" y1="164.2" x2="217" y2="51.3" fill="none"/><line stroke-width="2" stroke-linecap="round" x1="231.2" y1="120.7" x2="231.2" y2="51.3" fill="none"/><line stroke-width="4" stroke-linecap="round" x1="103.8" y1="164.2" x2="103.8" y2="51.3" fill="none"/><ellipse fill="#fff" stroke-width="2" cx="231.2" cy="120.7" rx="2.9" ry="2.7"/></g><rect x="65.2" y="245.5" fill="#30BCAE" stroke="#30BCAE" stroke-width="2" stroke-miterlimit="10" width="189.5" height="16.9"/><polygon fill="#30BCAE" points="254,257.7 66.8,249.8 66.8,249.2 254,249.2"/><rect x="73.4" y="54.1" stroke="#009ECA" stroke-width="12" stroke-linecap="round" stroke-miterlimit="10" width="174.1" height="178.8" fill="none"/><line stroke="#009ECA" stroke-width="6" stroke-linecap="round" stroke-miterlimit="10" x1="160.4" y1="54.1" x2="160.4" y2="232.9" fill="none"/><line stroke="#009ECA" stroke-width="6" stroke-linecap="round" stroke-miterlimit="10" x1="249.1" y1="150.9" x2="71.7" y2="150.9" fill="none"/><rect x="53.4" y="227.1" fill="#59C9BE" width="213.1" height="20.1"/><polygon opacity=".39" fill="#fff" points="78.3,175.2 78.3,58.7 241.3,58.7"/></svg>