<?xml version="1.0" encoding="utf-8"?>
<!-- Generator: Adobe Illustrator 17.1.0, SVG Export Plug-In . SVG Version: 6.00 Build 0)  -->
<!DOCTYPE svg PUBLIC "-//W3C//DTD SVG 1.1//EN" "http://www.w3.org/Graphics/SVG/1.1/DTD/svg11.dtd">
<svg version="1.1" id="Layer_1" xmlns="http://www.w3.org/2000/svg" xmlns:xlink="http://www.w3.org/1999/xlink" x="0px" y="0px"
	 viewBox="116 386 200 200" enable-background="new 116 386 200 200" xml:space="preserve">
<circle fill="#DDDCDC" cx="216" cy="486" r="100"/>
<rect x="164.09" y="419.562" opacity="0.2" fill="#4C4B4C" enable-background="new    " width="109.375" height="112"/>
<polygon opacity="0.2" fill="#4C4B4C" enable-background="new    " points="283.951,531.178 158.171,531.178 158.171,543.741 
	158.139,543.741 158.139,554.167 276.576,554.167 276.576,543.741 283.951,543.741 "/>
<rect x="159.875" y="418.062" fill="#FFFFFF" width="110.75" height="111.625"/>
<line fill="none" stroke="#ACE4DF" stroke-width="0.4116" stroke-linecap="round" stroke-miterlimit="10" x1="270.625" y1="422.312" x2="160.812" y2="422.312"/>
<line fill="none" stroke="#ACE4DF" stroke-width="0.4116" stroke-linecap="round" stroke-miterlimit="10" x1="270.625" y1="419.5" x2="160.812" y2="419.5"/>
<line fill="none" stroke="#ACE4DF" stroke-width="0.4116" stroke-linecap="round" stroke-miterlimit="10" x1="270.625" y1="425.125" x2="160.812" y2="425.125"/>
<line fill="none" stroke="#ACE4DF" stroke-width="0.4116" stroke-linecap="round" stroke-miterlimit="10" x1="270.625" y1="427.938" x2="160.812" y2="427.938"/>
<line fill="none" stroke="#ACE4DF" stroke-width="0.4116" stroke-linecap="round" stroke-miterlimit="10" x1="270.625" y1="430.75" x2="160.812" y2="430.75"/>
<line fill="none" stroke="#ACE4DF" stroke-width="0.4116" stroke-linecap="round" stroke-miterlimit="10" x1="270.625" y1="433.562" x2="160.812" y2="433.562"/>
<line fill="none" stroke="#ACE4DF" stroke-width="0.4116" stroke-linecap="round" stroke-miterlimit="10" x1="270.625" y1="436.375" x2="160.812" y2="436.375"/>
<line fill="none" stroke="#ACE4DF" stroke-width="0.4116" stroke-linecap="round" stroke-miterlimit="10" x1="270.625" y1="439.188" x2="160.812" y2="439.188"/>
<line fill="none" stroke="#ACE4DF" stroke-width="0.4116" stroke-linecap="round" stroke-miterlimit="10" x1="270.625" y1="442" x2="160.812" y2="442"/>
<line fill="none" stroke="#ACE4DF" stroke-width="0.4116" stroke-linecap="round" stroke-miterlimit="10" x1="270.625" y1="444.812" x2="160.812" y2="444.812"/>
<line fill="none" stroke="#ACE4DF" stroke-width="0.4116" stroke-linecap="round" stroke-miterlimit="10" x1="270.625" y1="447.625" x2="160.812" y2="447.625"/>
<line fill="none" stroke="#ACE4DF" stroke-width="0.4116" stroke-linecap="round" stroke-miterlimit="10" x1="270.625" y1="450.438" x2="160.812" y2="450.438"/>
<line fill="none" stroke="#ACE4DF" stroke-width="0.4116" stroke-linecap="round" stroke-miterlimit="10" x1="270.625" y1="453.25" x2="160.812" y2="453.25"/>
<line fill="none" stroke="#ACE4DF" stroke-width="0.4116" stroke-linecap="round" stroke-miterlimit="10" x1="270.625" y1="456.062" x2="160.812" y2="456.062"/>
<line fill="none" stroke="#ACE4DF" stroke-width="0.4116" stroke-linecap="round" stroke-miterlimit="10" x1="270.625" y1="458.875" x2="160.812" y2="458.875"/>
<line fill="none" stroke="#ACE4DF" stroke-width="0.4116" stroke-linecap="round" stroke-miterlimit="10" x1="270.625" y1="461.688" x2="160.812" y2="461.688"/>
<line fill="none" stroke="#ACE4DF" stroke-width="0.4116" stroke-linecap="round" stroke-miterlimit="10" x1="270.625" y1="464.438" x2="160.812" y2="464.438"/>
<line fill="none" stroke="#ACE4DF" stroke-width="0.4116" stroke-linecap="round" stroke-miterlimit="10" x1="270.625" y1="467.25" x2="160.812" y2="467.25"/>
<line fill="none" stroke="#ACE4DF" stroke-width="0.4116" stroke-linecap="round" stroke-miterlimit="10" x1="270.625" y1="470.062" x2="160.812" y2="470.062"/>
<line fill="none" stroke="#ACE4DF" stroke-width="0.4116" stroke-linecap="round" stroke-miterlimit="10" x1="270.625" y1="472.875" x2="160.812" y2="472.875"/>
<line fill="none" stroke="#ACE4DF" stroke-width="0.4116" stroke-linecap="round" stroke-miterlimit="10" x1="270.625" y1="475.688" x2="160.812" y2="475.688"/>
<line fill="none" stroke="#ACE4DF" stroke-width="0.4116" stroke-linecap="round" stroke-miterlimit="10" x1="270.625" y1="478.062" x2="160.812" y2="478.062"/>
<line fill="none" stroke="#ACE4DF" stroke-width="0.4116" stroke-linecap="round" stroke-miterlimit="10" x1="270.625" y1="480.875" x2="160.812" y2="480.875"/>
<line fill="none" stroke="#ACE4DF" stroke-width="0.4116" stroke-linecap="round" stroke-miterlimit="10" x1="270.625" y1="483.688" x2="160.812" y2="483.688"/>
<line fill="none" stroke="#ACE4DF" stroke-width="0.4116" stroke-linecap="round" stroke-miterlimit="10" x1="270.625" y1="486.5" x2="160.812" y2="486.5"/>
<line fill="none" stroke="#ACE4DF" stroke-width="0.4116" stroke-linecap="round" stroke-miterlimit="10" x1="270.625" y1="489.25" x2="160.812" y2="489.25"/>
<line fill="none" stroke="#ACE4DF" stroke-width="0.8231" stroke-linecap="round" stroke-miterlimit="10" x1="251.625" y1="488.625" x2="251.625" y2="418.062"/>
<line fill="none" stroke="#ACE4DF" stroke-width="0.4116" stroke-linecap="round" stroke-miterlimit="10" x1="258.625" y1="461.438" x2="258.625" y2="418.062"/>
<line fill="none" stroke="#ACE4DF" stroke-width="0.8231" stroke-linecap="round" stroke-miterlimit="10" x1="180.875" y1="488.625" x2="180.875" y2="418.062"/>
<ellipse fill="#FFFFFF" stroke="#ACE4DF" stroke-width="0.4116" stroke-miterlimit="10" cx="258.625" cy="461.438" rx="1.75" ry="1.687"/>
<rect x="156.75" y="539.438" fill="#30BCAE" width="118.438" height="10.563"/>
<rect x="161.312" y="419.562" fill="none" stroke="#009ECA" stroke-width="2.469" stroke-linecap="round" stroke-miterlimit="10" width="109.375" height="112"/>
<line fill="none" stroke="#009ECA" stroke-width="1.2347" stroke-linecap="round" stroke-miterlimit="10" x1="216.25" y1="419.812" x2="216.25" y2="531.562"/>
<line fill="none" stroke="#009ECA" stroke-width="1.2347" stroke-linecap="round" stroke-miterlimit="10" x1="271.688" y1="480.312" x2="160.812" y2="480.312"/>
<rect x="149.375" y="527.938" fill="#59C9BE" width="133.188" height="12.563"/>
<polygon opacity="0.39" fill="#FFFFFF" enable-background="new    " points="163,495.5 163,421.312 266.812,421.312 "/>
</svg>
