<?xml version="1.0" encoding="utf-8"?>
<!-- Generator: Adobe Illustrator 17.1.0, SVG Export Plug-In . SVG Version: 6.00 Build 0)  -->
<!DOCTYPE svg PUBLIC "-//W3C//DTD SVG 1.1//EN" "http://www.w3.org/Graphics/SVG/1.1/DTD/svg11.dtd">
<svg version="1.1" id="Layer_1" xmlns="http://www.w3.org/2000/svg" xmlns:xlink="http://www.w3.org/1999/xlink" x="0px" y="0px"
	 viewBox="30 30 40 40" enable-background="new 30 30 40 40" xml:space="preserve">
<path fill="#FFFFFF" d="M70,37.633C68.533,38.3,66.933,38.7,65.267,38.9c1.667-1,3-2.6,3.6-4.533c-1.6,0.933-3.333,1.6-5.2,2
	c-1.467-1.6-3.6-2.6-6-2.6c-4.533,0-8.2,3.667-8.2,8.2c0,0.667,0.067,1.267,0.2,1.867c-6.8-0.333-12.867-3.6-16.933-8.6
	c-0.733,1.2-1.133,2.6-1.133,4.133c0,2.867,1.467,5.333,3.667,6.8c-1.333-0.067-2.6-0.4-3.733-1V45.3c0,4,2.8,7.267,6.6,8.067
	c-0.667,0.2-1.4,0.267-2.133,0.267c-0.533,0-1.067-0.067-1.533-0.133c1.067,3.267,4.067,5.6,7.667,5.667
	c-2.8,2.2-6.333,3.533-10.2,3.533c-0.667,0-1.333-0.067-1.933-0.133c3.6,2.333,7.933,3.667,12.6,3.667
	c15.067,0,23.333-12.533,23.333-23.333v-1.067C67.533,40.7,68.867,39.3,70,37.633L70,37.633z"/>
</svg>
