<?xml version="1.0" encoding="utf-8"?>
<!-- Generator: Adobe Illustrator 17.1.0, SVG Export Plug-In . SVG Version: 6.00 Build 0)  -->
<!DOCTYPE svg PUBLIC "-//W3C//DTD SVG 1.1//EN" "http://www.w3.org/Graphics/SVG/1.1/DTD/svg11.dtd">
<svg version="1.1" id="Layer_1" xmlns="http://www.w3.org/2000/svg" xmlns:xlink="http://www.w3.org/1999/xlink" x="0px" y="0px"
	 viewBox="226 226 60 60" enable-background="new 226 226 60 60" xml:space="preserve">
<path fill="#FFFFFF" d="M286,237.4c-2.2,1-4.6,1.6-7.1,1.9c2.5-1.5,4.5-3.9,5.4-6.8c-2.4,1.4-5,2.4-7.8,3c-2.2-2.4-5.4-3.9-9-3.9
	c-6.8,0-12.3,5.5-12.3,12.3c0,1,0.1,1.9,0.3,2.8c-10.2-0.5-19.3-5.4-25.4-12.9c-1.1,1.8-1.7,3.9-1.7,6.2c0,4.3,2.2,8,5.5,10.2
	c-2-0.1-3.9-0.6-5.6-1.5c0,0.1,0,0.1,0,0.2c0,6,4.2,10.9,9.9,12.1c-1,0.3-2.1,0.4-3.2,0.4c-0.8,0-1.6-0.1-2.3-0.2
	c1.6,4.9,6.1,8.4,11.5,8.5c-4.2,3.3-9.5,5.3-15.3,5.3c-1,0-2-0.1-2.9-0.2c5.4,3.5,11.9,5.5,18.9,5.5c22.6,0,35-18.8,35-35
	c0-0.5,0-1.1,0-1.6C282.3,242,284.3,239.9,286,237.4z"/>
</svg>
