<?xml version="1.0" encoding="utf-8"?>
<!-- Generator: Adobe Illustrator 18.0.0, SVG Export Plug-In . SVG Version: 6.00 Build 0)  -->
<!DOCTYPE svg PUBLIC "-//W3C//DTD SVG 1.1//EN" "http://www.w3.org/Graphics/SVG/1.1/DTD/svg11.dtd">
<svg version="1.1" id="Layer_1" xmlns="http://www.w3.org/2000/svg" xmlns:xlink="http://www.w3.org/1999/xlink" x="0px" y="0px"
	 viewBox="0 0 600 600" enable-background="new 0 0 600 600" xml:space="preserve">
<circle fill="#DDDCDC" cx="300" cy="300" r="300"/>
<path opacity="0.2" fill="#4C4B4C" enable-background="new    " d="M365.325,422.15v13.05c12.81-3.07,26.85-5.57,36.65-0.18
	c0.28,0.15,0.56,0.31,0.83,0.48c-0.54-0.11-13.67,2.21-20.12,9.14c-2.92,3.14-4.79,6.15-5.72,9.11c-0.61,2.93-0.54,5.93,0.52,8.62
	c1.08,2.7,4.1,7.34,12.38,7.93l44.8,3.34c1.86,0.15,3.98,0.19,6.1-0.86c1.91-0.97,4.25-3.09,4.59-7.79l1.65-22.37
	c6.84,0.96,20.91,4.8,28.73,19.98c0.81,2.58,3.31,6.49,8.71,6.89c0.18,0.04,0.36,0.03,0.4,0.03c0.06,0.26,0.17,0.83,0.09,2.03
	l-0.02,0.31c0.04,0.33,0.08,0.86,0.02,1.69l-0.35,4.52l-31.48,11.09l-94.42,0.36c-6.36,8.49-16.69,13.83-28.36,13.83h-40
	c-1.79,0-3.51-0.13-5.16-0.37c-0.02-0.01-0.04-0.01-0.07-0.01c-16.65-1.57-29.77-18.21-29.77-35.21v-89.42
	c-36.59-29.83-78.27-63.76-95.67-77.68c-34.04-27.24-39.6-69.5-39.6-69.5s0.25,0.18,0.73,0.53c-0.17-0.72-0.25-1.11-0.25-1.11
	s55.9,40.7,88.12,67.1c0.67,0.55,1.32,1.12,1.95,1.71c0.04,0.04,0.07,0.07,0.11,0.1c0.14,0.1,0.27,0.21,0.4,0.32
	c5.79,4.75,9.9,11.43,15.63,19.41c0.03,0.02,0.05,0.05,0.06,0.08c5.43,6.79,12.35,14.51,22.7,22.92c1.95,1.59,3.89,3.14,5.82,4.67
	V145.64c0-11.76,9.53-21.29,21.29-21.29h53.71c3.53,0,6.94,0.52,10.16,1.5c0.08,0.03,0.17,0.05,0.25,0.07
	c1.82,0.51,3.54,1.17,5.13,2.07c11.53,5.71,19.46,17.61,19.46,31.36v179.69c25.78-31.65,50.32-61.88,62.11-76.67
	c30.75-38.56,84.31-40.18,84.31-40.18s0,0.01-0.01,0.03c-0.5,1.23-16.62,40.85-46.95,77.74
	C446.835,321.8,400.705,378.57,365.325,422.15z"/>
<path fill="#319B9B" d="M320,110h-40c-19.33,0-31,15.67-31,35v310c0,19.33,11.67,34,31,34h40c19.33,0,35-14.67,35-34V145
	C355,125.67,339.33,110,320,110z"/>
<path fill="#005CB9" d="M474.605,459.197l-0.346,4.52l-31.483,11.09l-110.056,0.427c1.879-3.743,3.352-7.69,4.508-11.845
	c0,0,3.359-19.44,3.098-25.834l-0.455-11.156l0.704-0.073c0.176-0.007,0.351-0.059,0.483-0.064c2.494-0.588,5.204-1.272,8.047-1.963
	c14.56-3.642,32.048-10.066,43.373-3.151c-0.535-0.111-13.669,2.214-20.116,9.137c-6.447,6.923-7.765,13.215-5.202,19.736
	c1.082,2.694,4.098,7.342,12.382,7.931l44.793,3.34c1.861,0.145,3.983,0.191,6.104-0.868c1.904-0.961,4.247-3.088,4.585-7.784
	l1.649-22.373c6.841,0.957,20.912,4.8,28.731,19.985c0.812,2.573,3.313,6.49,8.718,6.888c0.178,0.037,0.355,0.03,0.399,0.028
	C474.578,457.432,474.689,458.002,474.605,459.197z"/>
<path fill="#009ECA" d="M474.605,457.197l-0.346,4.52l-31.483,10.09l-110.056,0.427c1.879-3.743,3.352-6.69,4.508-10.845
	c0,0,3.359-19.44,3.098-25.834l-0.455-11.156l0.704-0.073c0.176-0.007,0.351-0.059,0.483-0.064c2.494-0.588,5.204-1.272,8.047-1.963
	c14.56-3.642,32.048-8.066,43.373-1.151c-0.535-0.111-1.11-0.131-1.686-0.196c-6.506-0.309-14.069,2.694-18.429,7.333
	c-4.528,4.867-7.765,13.215-5.202,19.736c1.082,2.694,4.098,7.342,12.382,7.931l44.793,3.34c1.861,0.145,3.983,0.191,6.104-0.868
	c1.904-0.961,4.247-3.088,4.585-7.784l1.649-22.373c6.841,0.957,20.912,4.8,28.731,19.985c0.812,2.573,3.313,6.49,8.718,6.888
	c0.178,0.037,0.355,0.03,0.399,0.028C474.578,455.432,474.689,456.002,474.605,457.197z"/>
<path fill="#005CB9" d="M309.8,463.497l-40.932-33.31c0,0,117.493-143.597,148.244-182.164s84.305-40.185,84.305-40.185
	s-16.151,40.292-46.958,77.776S309.8,463.497,309.8,463.497z"/>
<path fill="#009ECA" d="M306.085,458.548l-37.217-28.361c0,0,117.493-143.597,148.244-182.164s84.305-40.185,84.305-40.185
	s-19.866,35.343-50.673,72.827S306.085,458.548,306.085,458.548z"/>
<path fill="#005CB9" d="M330.629,390.302l-20.295,27.031c0,0-126.967-103.783-161.003-131.024
	c-34.037-27.241-39.6-69.494-39.6-69.494s57.908,41.448,91.062,68.647c11.63,9.541,16.468,26.79,41.192,46.895
	C287.739,369.566,330.629,390.302,330.629,390.302z"/>
<path fill="#009ECA" d="M103.24,428.73c0,0,0.16,0.62,0.45,1.63l-7.93,11.53c-0.3-1.59-1.51-3.93-1.51-3.93s-8.17,8.66-6.46-5.22
	C87.79,432.74,95.45,414.81,103.24,428.73z"/>
<path fill="#009ECA" d="M145,433.03v0.01l-11.7,17.02l-0.03,0.03c-3.16,3.81-9.26,9.63-17.51,10.34c-4.14,0.35-7.71-1.38-10.65-3.91
	l6.71-9.75c3.28,2.86,7.26,1.99,11.47-8.58C123.29,438.19,134.03,406.27,145,433.03z"/>
<path fill="#009ECA" d="M181.02,427.94l-6.96,18c-0.13-0.24-0.19-0.37-0.19-0.37s-7.74,13.62-21.75,14.9
	c-3.28,0.3-5.93-0.29-8.05-1.38l6.24-9.06c2.19,1.96,5.52,0.21,10.55-11.31C160.86,438.72,169.4,410.51,181.02,427.94z"/>
<path fill="#009ECA" d="M218.88,430.07l-9.85,20.16c-3.55,3.81-10.62,10.03-18.26,9.14c-2.26-0.26-4.3-1-6.12-2.02l4.76-12.3
	c2.56,2.78,6.22,2.99,10.91-6.25C200.32,438.8,208.9,410.61,218.88,430.07z"/>
<path fill="#009ECA" d="M275.87,428.75l-0.47,15.52l-9.69,10.13l-1.47,1.03c0,0-27.53,2.54-42.01-0.33l4.04-8.25
	c3.53,0.61,8.9-0.8,17.04-6c0,0,3.05-3.84,2.69-8.85c-0.37-5,9.24-5.02,11.36-5.15C259.45,426.73,275.87,428.75,275.87,428.75z"/>
<path fill="#009ECA" d="M324.414,385.245l-17.011,22.936c0,0-123.373-100.788-156.41-127.286s-40.785-64.667-40.785-64.667
	s55.903,40.699,88.125,67.105c11.303,9.263,16.83,25.003,40.848,44.537C283.629,364.019,324.414,385.245,324.414,385.245z"/>
<path fill="#59C9BE" d="M310.943,110h-44.656C254.531,110,245,119.531,245,131.287v322.121c0,17.858,14.476,35.334,32.334,35.334
	h31.728c21.518,0,38.961-20.443,38.961-41.961V147.08C348.023,110,331.422,110,310.943,110z"/>
<path fill="#319B9B" d="M320.869,152.627h-49.983c-7.669,0-13.886-6.217-13.886-13.886v0c0-7.669,6.217-13.886,13.886-13.886h49.983
	c7.669,0,13.886,6.217,13.886,13.886v0C334.755,146.411,328.538,152.627,320.869,152.627z"/>
<path fill="#FFFFFF" d="M322.869,154.627h-49.983c-7.669,0-13.886-6.217-13.886-13.886v0c0-7.669,6.217-13.886,13.886-13.886h49.983
	c7.669,0,13.886,6.217,13.886,13.886v0C336.755,148.411,330.538,154.627,322.869,154.627z"/>
<circle fill="#FFFFFF" cx="296" cy="459" r="10"/>
<path fill="#005CB9" d="M111.82,446.77l-6.71,9.75c-5.86-5.07-9.17-13.31-9.31-14.38c-0.01-0.08-0.02-0.16-0.04-0.25l7.93-11.53
	C104.78,434.1,107.78,443.25,111.82,446.77z"/>
<path fill="#005CB9" d="M150.31,450.03l-6.24,9.06c-6.95-3.54-8.35-12.34-8.35-12.34s-0.84,1.4-2.42,3.31l11.7-17.02
	c0.47,1.14,0.94,2.38,1.41,3.75C146.41,436.79,147.17,447.23,150.31,450.03z"/>
<path fill="#005CB9" d="M189.41,445.05l-4.76,12.3c-6.12-3.37-9.75-9.8-10.59-11.41l6.96-18c1.33,1.99,2.69,4.57,4.09,7.85
	C185.11,435.79,186.58,441.99,189.41,445.05z"/>
<path fill="#005CB9" d="M174.06,445.94c0.84,1.61,4.47,8.04,10.59,11.41L174.06,445.94z"/>
<path fill="#005CB9" d="M226.27,446.85l-4.04,8.25c-3.57-0.71-6.35-1.75-7.72-3.24l-3.07-4.47c0,0-0.88,1.2-2.41,2.84l9.85-20.16
	c0.36,0.7,0.72,1.45,1.08,2.27C219.96,432.34,217.79,445.41,226.27,446.85z"/>
<path fill="#FFFFFF" d="M455.409,258.21L455.409,258.21c0,0-6.299,3.993-16.041,15.516c-9.743,11.524-13.187,19.359-13.187,19.359
	l0,0c0,0,7.538-4.736,17.679-16.598C454,264.625,455.409,258.21,455.409,258.21z"/>
</svg>
