<?xml version="1.0" encoding="utf-8"?>
<!-- Generator: Adobe Illustrator 17.1.0, SVG Export Plug-In . SVG Version: 6.00 Build 0)  -->
<!DOCTYPE svg PUBLIC "-//W3C//DTD SVG 1.1//EN" "http://www.w3.org/Graphics/SVG/1.1/DTD/svg11.dtd">
<svg version="1.1" id="Layer_1" xmlns="http://www.w3.org/2000/svg" xmlns:xlink="http://www.w3.org/1999/xlink" x="0px" y="0px"
	 viewBox="0 0 100 100" enable-background="new 0 0 100 100" xml:space="preserve">
<g>
	<path fill="#FFFFFF" d="M31.3,76.3c0,2.2-1.8,3.9-3.9,3.9c-2.2,0-3.9-1.8-3.9-3.9V53.2c0-2.2,1.8-3.9,3.9-3.9
		c2.2,0,3.9,1.8,3.9,3.9V76.3z"/>
	<path opacity="0.6" fill="#FFFFFF" d="M12.8,47c0,1.3-1,2.3-2.3,2.3H7.3C6,49.3,5,48.3,5,47v-6.9c0-1.3,1-2.3,2.3-2.3h3.2
		c1.3,0,2.3,1,2.3,2.3V47z"/>
	<path fill="#FFFFFF" d="M41.5,30.5c0,0-0.3,0-0.5,0l-25,0c-2.8,0-5.4,2.3-5.4,5.2v16.7c0,2.8,2.7,5.2,5.5,5.2l24.9,0
		c0.2,0,0.5,0,0.5,0V30.5z"/>
	<path opacity="0.6" fill="#FFFFFF" d="M60.3,22.4c-0.6,0-1,0.1-1.4,0.3c-0.3,0.1-22.2,8.5-22.2,8.5v25.2c0,0,22.1,8.6,22.3,8.6
		c0.4,0.2,0.8,0.3,1.3,0.3c2.5,0,4.3-2,4.3-4.6V27.1C64.6,24.4,62.8,22.4,60.3,22.4z"/>
</g>
<line fill="none" stroke="#FFFFFF" stroke-width="4" stroke-linecap="round" stroke-miterlimit="10" x1="75.8" y1="31.8" x2="87.8" y2="19.8"/>
<line fill="none" stroke="#FFFFFF" stroke-width="4" stroke-linecap="round" stroke-miterlimit="10" x1="87.8" y1="66.5" x2="75.8" y2="54.5"/>
<line fill="none" stroke="#FFFFFF" stroke-width="4" stroke-linecap="round" stroke-miterlimit="10" x1="75.6" y1="43.3" x2="95" y2="43.3"/>
</svg>
