<?xml version="1.0" encoding="utf-8"?>
<!-- Generator: Adobe Illustrator 17.1.0, SVG Export Plug-In . SVG Version: 6.00 Build 0)  -->
<!DOCTYPE svg PUBLIC "-//W3C//DTD SVG 1.1//EN" "http://www.w3.org/Graphics/SVG/1.1/DTD/svg11.dtd">
<svg version="1.1" id="Layer_1" xmlns="http://www.w3.org/2000/svg" xmlns:xlink="http://www.w3.org/1999/xlink" x="0px" y="0px"
	 viewBox="200 440 320 320" enable-background="new 200 440 320 320" xml:space="preserve">
<circle fill="#DDDCDC" cx="360" cy="600" r="160"/>
<g>
	<path fill="#59C9BE" stroke="#30BCAE" stroke-width="0.8889" stroke-miterlimit="10" d="M473.1,519H362h-3.8H247.1
		c-4,0-7.4,3-7.4,7v137v0.5v12.7v0.8c0,4,3.4,7.3,7.4,7.3h82.7h6.3h49.2h3.7h84.1c4,0,7.2-3.3,7.2-7.3v-0.8v-12.7V663V526
		C480.3,522,477.1,519,473.1,519z"/>
	<path fill="#319B9B" d="M330.6,701c-3.7,3.7-8.8,7.2-6.8,9c0.5,1.1,2.8,1.7,8,1.7c11.4,0,23.8,0,28.4,0c1.1,0,1.8,0,1.8,0
		c4.5,0,16.9,0,28.4,0c5.9,0,8-1,8-2.4h-0.2v-0.5H398c-0.3-1.9-4.2-4.8-7.2-7.9c-4.6-4.7-5.4-14.5-5.5-16.8h-49.2
		C336,686.5,335.3,696.2,330.6,701z"/>
</g>
<path fill="#FFFFFF" d="M470.2,652.8H249.8V528.6h220.3v124.2H470.2z"/>
<rect x="249.8" y="528.6" fill="none" width="220.3" height="124.2"/>
<circle fill="#319B9B" cx="360" cy="669.6" r="5"/>
<g>
	<rect x="317.9" y="562.2" fill="#005CB9" width="18.8" height="80.5"/>
	<rect x="285.2" y="539.2" fill="#005CB9" width="18.8" height="103.5"/>
	<rect x="350.6" y="585.2" fill="#005CB9" width="18.8" height="57.5"/>
	<rect x="383.3" y="608.2" fill="#005CB9" width="18.8" height="34.5"/>
	<rect x="416" y="631.2" fill="#005CB9" width="18.8" height="11.5"/>
</g>
<g>
	<rect x="317.9" y="562.2" fill="#009ECA" width="17.2" height="80.5"/>
	<rect x="285.2" y="539.2" fill="#009ECA" width="17.2" height="103.5"/>
	<rect x="350.6" y="585.2" fill="#009ECA" width="17.2" height="57.5"/>
	<rect x="383.3" y="608.2" fill="#009ECA" width="17.2" height="34.5"/>
	<rect x="416" y="631.2" fill="#009ECA" width="17.2" height="11.5"/>
</g>
<line fill="none" stroke="#30BCAE" stroke-width="1.7762" stroke-linecap="round" stroke-miterlimit="10" x1="470" y1="528.6" x2="250" y2="528.6"/>
<polyline opacity="0.39" fill="#FFFFFF" enable-background="new    " points="251.8,651.2 468.5,530.3 251.5,530.3 251.5,651.2 "/>
</svg>
