<?xml version="1.0" encoding="utf-8"?>
<!-- Generator: Adobe Illustrator 17.1.0, SVG Export Plug-In . SVG Version: 6.00 Build 0)  -->
<!DOCTYPE svg PUBLIC "-//W3C//DTD SVG 1.1//EN" "http://www.w3.org/Graphics/SVG/1.1/DTD/svg11.dtd">
<svg version="1.1" id="Layer_1" xmlns="http://www.w3.org/2000/svg" xmlns:xlink="http://www.w3.org/1999/xlink" x="0px" y="0px"
	 viewBox="0 0 320 320" enable-background="new 0 0 320 320" xml:space="preserve">
<circle fill="#DDDCDC" cx="160" cy="160" r="160"/>
<path fill="#EEEEED" d="M160,320c64.1,0,119.4-37.7,144.9-92.1H15.1C40.6,282.3,95.9,320,160,320z"/>
<g id="Your_Icon_13_" opacity="0.2">
	<g>
		<path fill="#4C4B4C" d="M256.3,90.6c-0.1-3.8-3.2-6.8-7-6.8c-52.9,0-78.2-20.6-78.4-20.7c-2.6-2.2-6.5-2.2-9.1,0
			c-0.2,0.2-25.6,20.8-78.5,20.8c-3.8,0-6.9,3-7,6.8c-0.2,6.4-3.8,157.2,87.7,189.5c0.8,0.3,1.5,0.4,2.3,0.4c0.8,0,1.6-0.1,2.3-0.4
			C260.1,247.9,256.5,97,256.3,90.6z"/>
	</g>
</g>
<g id="Your_Icon_11_">
	<g>
		<g>
			<path fill="#30BCAE" d="M249.7,79.2c-0.1-3.8-3.2-6.8-7-6.8c-52.9,0-78.2-20.6-78.4-20.7c-2.6-2.2-6.5-2.2-9.1,0
				c-0.2,0.2-25.6,20.8-78.5,20.8c-3.8,0-6.9,3-7,6.8c-0.2,6.4-3.8,157.2,87.7,189.5c0.8,0.3,1.5,0.4,2.3,0.4c0.8,0,1.6-0.1,2.3-0.4
				C253.6,236.4,249.9,85.6,249.7,79.2z"/>
		</g>
	</g>
</g>
<g id="Your_Icon_9_">
	<g>
		<g>
			<path fill="#59C9BE" d="M249.7,74.3c-0.1-3.8-3.2-6.8-7-6.8c-52.9,0-78.2-20.6-78.4-20.7c-2.6-2.2-6.5-2.2-9.1,0
				c-0.2,0.2-25.6,20.8-78.5,20.8c-3.8,0-6.9,3-7,6.8c-0.2,6.4-3.8,157.2,87.7,189.5c0.8,0.3,1.5,0.4,2.3,0.4c0.8,0,1.6-0.1,2.3-0.4
				C253.6,231.5,249.9,80.7,249.7,74.3z"/>
		</g>
	</g>
</g>
<g id="Your_Icon_7_">
	<g>
		<g>
			<path fill="#59C9BE" d="M249.7,74.3c-0.1-3.8-3.2-6.8-7-6.8c-52.9,0-78.2-20.6-78.4-20.7c-2.6-2.2-6.5-2.2-9.1,0
				c-0.2,0.2-25.6,20.8-78.5,20.8c-3.8,0-6.9,3-7,6.8c-0.2,6.4-3.8,157.2,87.7,189.5c0.8,0.3,1.5,0.4,2.3,0.4c0.8,0,1.6-0.1,2.3-0.4
				C253.6,231.5,249.9,80.7,249.7,74.3z"/>
		</g>
	</g>
</g>
<g id="Your_Icon_1_">
	<g>
		<g>
			<path fill="#FFFFFF" d="M230.9,91.1c-0.1-3-2.6-5.4-5.6-5.4c-41.8,0-61.9-16.3-62-16.4c-2.1-1.8-5.1-1.8-7.2,0
				c-0.2,0.2-20.2,16.4-62.1,16.4c-3,0-5.5,2.4-5.6,5.4c-0.2,5.1-3,124.4,69.4,150c0.6,0.2,1.2,0.3,1.9,0.3c0.6,0,1.3-0.1,1.9-0.3
				C234,215.5,231.1,96.1,230.9,91.1z"/>
		</g>
	</g>
</g>
<polygon fill="#005CB9" points="222.7,118.5 207.3,103.1 144.8,165.5 127.3,147.9 111.9,163.3 144.8,196.3 144.8,196.2 144.9,196.3 
	"/>
<polygon fill="#009ECA" points="221,116.9 205.6,101.5 143.2,163.9 125.6,146.3 110.2,161.7 143.1,194.6 143.2,194.6 143.3,194.6 
	"/>
<g opacity="0.25">
	<g>
		<path fill="#FFFFFF" d="M164.3,46.7c-2.6-2.2-6.5-2.2-9.1,0c-0.2,0.2-25.6,20.8-78.5,20.8c-3.8,0-6.9,3-7,6.8
			c-0.1,3.2-1.1,42.6,9.5,85.3l103-103C170.3,51.6,164.4,46.8,164.3,46.7z"/>
	</g>
</g>
</svg>
