<?xml version="1.0" encoding="utf-8"?>
<!-- Generator: Adobe Illustrator 17.1.0, SVG Export Plug-In . SVG Version: 6.00 Build 0)  -->
<!DOCTYPE svg PUBLIC "-//W3C//DTD SVG 1.1//EN" "http://www.w3.org/Graphics/SVG/1.1/DTD/svg11.dtd">
<svg version="1.1" id="Layer_1" xmlns="http://www.w3.org/2000/svg" xmlns:xlink="http://www.w3.org/1999/xlink" x="0px" y="0px"
	 viewBox="0 0 100 100" enable-background="new 0 0 100 100" xml:space="preserve">
<path fill="#FFFFFF" d="M33.2,81.3L22.4,92.1c-0.5,0.5-1.1,0.7-1.7,0.7c-0.6,0-1.2-0.2-1.7-0.7c-1-1-0.9-2.5,0-3.4l7.4-7.3
	L33.2,81.3z"/>
<path fill="#FFFFFF" d="M77.8,92.3c-0.5,0.5-1.1,0.7-1.7,0.7c-0.6,0-1.3-0.2-1.7-0.7L63.6,81.5l6.9,0l7.3,7.4
	C78.8,89.8,78.8,91.3,77.8,92.3z"/>
<path fill="none" d="M43.2,39.2c0.3-1.3,0.5-2.7,0.5-4.1c0-3.7-1-7.3-3-10.3l7.9-1.6c-0.6,2.1-1,4.2-1,6.5c0,3.3,0.7,6.4,2,9.3
	L43.2,39.2z"/>
<g>
	<path fill="none" d="M66.6,77.5H63c0,0,0-0.1,0-0.1C64,76.5,65.6,76.5,66.6,77.5L66.6,77.5z"/>
	<path opacity="0.6" fill="#FFFFFF" d="M40.7,24.8l7.9-1.6c0.6-2,1.5-3.8,2.5-5.5l-14,2.9c0.3,0.3,0.7,0.6,1,0.9
		C39.1,22.4,40,23.6,40.7,24.8z"/>
</g>
<g>
	<g>
		<path opacity="0.6" fill="#FFFFFF" d="M83.9,49.4l0,6.5l0,15.8l0,4.5c0,0.5-0.1,0.9-0.2,1.4c-0.6,2.3-2.7,4-5.2,4h0l-7.8,0l-6.9,0
			l-30.4-0.1l-6.9,0l-9.8,0c-1.4,0-2.8-0.6-3.8-1.6c-0.6-0.6-1-1.4-1.3-2.2c-0.2-0.5-0.3-1.1-0.3-1.6l0.1-26.6
			c3.5,3.3,8.1,5.1,13,5.1h0.1c9.2,0,17-6.5,18.9-15.2l6.4-0.2c1.1,2.5,2.6,4.8,4.6,6.8c4.3,4.3,10,6.7,16,6.7h0.1
			c5,0,9.6-1.6,13.4-4.4C83.8,48.5,83.9,48.9,83.9,49.4z"/>
	</g>
</g>
<polygon fill="#FFFFFF" points="90,55.9 90,71.7 83.8,71.6 83.8,55.8 "/>
<path fill="#1A98C2" d="M95,53.3V61l0-7.6C95,53.4,95,53.3,95,53.3z"/>
<path opacity="0.6" fill="#FFFFFF" d="M94,52.4l-3,0c-0.5,0-1,0.4-1,1l0,2.5L90,71.7l0,2c0,0.5,0.4,1,1,1l3,0c0.5,0,1-0.4,1-1L95,61
	v-7.7C94.9,52.8,94.5,52.4,94,52.4z"/>
<path fill="none" d="M18.2,39.8C17.6,39,17.1,38,16.8,37H10c0.4,2.8,1.6,5.4,3.4,7.6L18.2,39.8z"/>
<path fill="none" d="M30.8,30.7c0.7,1.1,1.2,2.4,1.3,3.8h6.7c-0.1-3.2-1.2-6.1-3.2-8.6L30.8,30.7z"/>
<path fill="none" d="M17.9,30.8L13.1,26c-1.9,2.3-3,5.3-3.2,8.5h6.7C16.7,33.1,17.2,31.9,17.9,30.8z"/>
<g>
	<path fill="none" d="M21.8,27.7c0.4-0.1,0.7-0.2,1.1-0.3v-4v-2.8c-3.1,0.3-5.9,1.6-8.2,3.6l4.7,4.8C20.2,28.4,21,28,21.8,27.7z"/>
	<path fill="none" d="M17.9,30.8L13.1,26c-1.9,2.3-3,5.3-3.2,8.5h6.7C16.7,33.1,17.2,31.9,17.9,30.8z"/>
	<path fill="none" d="M18.2,39.8C17.6,39,17.1,38,16.8,37H10c0.4,2.8,1.6,5.4,3.4,7.6L18.2,39.8z"/>
	<path fill="none" d="M32.1,34.5h6.7c-0.1-3.2-1.2-6.1-3.2-8.6l-4.8,4.8C31.5,31.8,32,33.1,32.1,34.5z"/>
	<path fill="none" d="M26.7,27.7c0.9,0.3,1.7,0.7,2.4,1.2l2.2-2.2l2.6-2.6c-1.1-0.9-2.2-1.7-3.5-2.2c-1.6-0.7-3.2-1.2-5-1.3V23v4.4
		C25.9,27.4,26.3,27.6,26.7,27.7z"/>
	<path fill="none" d="M31.8,37c-0.2,1-0.7,1.9-1.3,2.7c0,0.1-0.1,0.1-0.1,0.2l4.8,4.8c1.3-1.5,2.3-3.3,3-5.2
		c0.2-0.8,0.4-1.6,0.6-2.4H31.8z"/>
	<path fill="none" d="M28.7,35.1c0-1.4-0.7-2.7-1.8-3.5c-0.7-0.5-1.5-0.7-2.4-0.8c-0.9,0-1.8,0.3-2.5,0.8c-1.1,0.8-1.7,2-1.7,3.4
		c0,1.5,0.8,2.8,1.9,3.6c0.7,0.4,1.4,0.7,2.3,0.7c1,0,1.9-0.3,2.6-0.9C28,37.6,28.6,36.4,28.7,35.1z"/>
	<path fill="none" d="M25.4,42.7v6.7c3-0.2,5.7-1.3,8-3.1l-4.8-4.8C27.6,42.1,26.6,42.5,25.4,42.7z"/>
	<path fill="none" d="M20,41.5l-2.3,2.3l-2.5,2.5c2.2,1.8,4.9,2.9,7.7,3.2v-6.8c-0.2,0-0.5-0.1-0.7-0.2C21.4,42.2,20.7,41.9,20,41.5
		z"/>
	<path fill="#FFFFFF" d="M40.7,24.8c-0.8-1.2-1.6-2.3-2.7-3.3c-0.3-0.3-0.6-0.6-1-0.9c-3.5-3.1-8-4.8-12.8-4.8
		C13.7,15.7,5,24.3,5,35c0,5.2,2,10,5.6,13.7c0.2,0.2,0.5,0.4,0.7,0.6c3.5,3.3,8.1,5.1,13,5.1h0.1c9.2,0,17-6.5,18.9-15.2
		c0.3-1.3,0.5-2.7,0.5-4.1C43.7,31.4,42.6,27.8,40.7,24.8z M25.4,20.6c1.8,0.1,3.4,0.6,5,1.3c1.2,0.6,2.4,1.3,3.5,2.2l-2.6,2.6
		l-2.2,2.2c-0.7-0.5-1.5-1-2.4-1.2c-0.4-0.1-0.9-0.2-1.3-0.3V20.6z M22.9,20.7v6.8c-0.4,0.1-0.7,0.2-1.1,0.3
		C21,28,20.2,28.4,19.5,29l-4.8-4.8C17,22.3,19.8,21,22.9,20.7z M13.1,26l4.8,4.8c-0.7,1.1-1.1,2.3-1.2,3.7H9.9
		C10,31.3,11.2,28.4,13.1,26z M10,37h6.8c0.3,1,0.7,2,1.4,2.8l-4.8,4.8C11.6,42.4,10.4,39.8,10,37z M22.9,49.4
		c-2.8-0.3-5.5-1.4-7.7-3.2l2.5-2.5l2.3-2.3c0.7,0.4,1.4,0.8,2.2,1c0.2,0.1,0.5,0.2,0.7,0.2V49.4z M22.1,38.6
		c-1.2-0.8-1.9-2.1-1.9-3.6c0-1.4,0.7-2.6,1.8-3.4c0.7-0.5,1.6-0.8,2.5-0.8c0.9,0,1.7,0.3,2.4,0.8c1.1,0.8,1.8,2,1.8,3.5
		c0,1.3-0.7,2.5-1.6,3.3c-0.7,0.6-1.6,0.9-2.6,0.9C23.6,39.3,22.8,39,22.1,38.6z M25.4,49.5v-6.8c1.1-0.2,2.2-0.6,3.2-1.2l4.8,4.8
		C31.1,48.1,28.4,49.2,25.4,49.5z M38.1,39.4c-0.6,2-1.6,3.8-3,5.2l-4.8-4.8c0-0.1,0.1-0.1,0.1-0.2c0.6-0.8,1.1-1.7,1.3-2.7h6.8
		C38.5,37.8,38.3,38.6,38.1,39.4z M32.1,34.5c-0.1-1.4-0.6-2.7-1.3-3.8l4.8-4.8c2,2.4,3.1,5.4,3.2,8.6H32.1z"/>
</g>
<circle fill="none" cx="70.3" cy="29.7" r="4.2"/>
<path fill="none" d="M79.4,32c-0.3,1-0.9,2.5-1.8,3.5l6,6c2.3-2.6,3.9-5.9,4.3-9.5H79.4z"/>
<path fill="none" d="M79.7,29.1h8.4c-0.1-4-1.6-7.7-4-10.6l-6,6C79,25.8,79.6,27.1,79.7,29.1z"/>
<path fill="none" d="M71.3,11.9v8.5c2,0.2,3.4,0.9,4.6,1.9l6-6.1C79,13.7,75.4,12.2,71.3,11.9z"/>
<polygon fill="#27B4A6" points="59.3,20.9 58.8,21 59.4,21.6 "/>
<g>
	<circle fill="none" cx="70.3" cy="29.7" r="4.2"/>
	<path fill="none" d="M60.7,29.1h0.2c0.1-2,0.6-3.2,1.5-4.5l-3-3l-0.1-0.7L58.8,21l-2.4-2.4c-0.8,1-1.5,2.2-2.1,3.4
		c-1.1,2.2-1.7,4.6-1.8,7.1H60.7z"/>
	<path fill="none" d="M81.9,16.2c-2.9-2.5-6.6-4.1-10.6-4.3v8.5c2,0.2,3.4,0.9,4.6,1.9L81.9,16.2z"/>
	<path fill="none" d="M79.7,29.1h8.4c-0.1-4-1.6-7.7-4-10.6l-6,6C79,25.8,79.6,27.1,79.7,29.1z"/>
	<path fill="none" d="M64.3,22.4c0.1-0.1,0.2-0.1,0.2-0.2c1.2-0.9,2.9-1.5,3.8-1.7V12c-3.5,0.4-6.8,1.8-9.4,4
		c-0.2,0.2-0.4,0.3-0.6,0.5L64.3,22.4z"/>
	<path fill="none" d="M77.7,35.6l6,6c2.3-2.6,3.9-5.9,4.3-9.5h-8.6C79.1,33,78.5,34.5,77.7,35.6z"/>
	<path fill="none" d="M62.3,38.5l-0.4-2.1l0.9-0.9c-0.8-1-1.3-2.3-1.6-3.3c0,0,0-0.1,0-0.1h-8.6c0.3,2.4,1.1,4.7,2.3,6.7
		c0.6,0.9,1.2,1.8,1.9,2.7l2.9-2.9L62.3,38.5z"/>
	<path fill="none" d="M75.3,37.6c-1.1,0.7-2.5,1.2-4,1.4v4.9v3.6c3.4-0.2,6.5-1.3,9.1-3.2c0.3-0.2,0.6-0.4,0.9-0.7L75.3,37.6z"/>
	<path fill="none" d="M67.3,38.7c-0.8-0.3-1.7-0.7-2.4-1.1l-6,5.9c2.7,2.2,5.9,3.6,9.4,4v-3.5v-5C68,38.9,67.7,38.8,67.3,38.7z"/>
	<g>
		<path fill="none" d="M60.9,29.1c0.1-2,0.6-3.2,1.5-4.5l-3-3l-0.1-0.7L58.8,21l-2.4-2.4c-0.8,1-1.5,2.2-2.1,3.4
			c-1.1,2.2-1.7,4.6-1.8,7.1h8.2H60.9z"/>
		<path fill="none" d="M61.9,36.4l0.9-0.9c-0.8-1-1.3-2.3-1.6-3.3c0,0,0-0.1,0-0.1h-8.6c0.3,2.4,1.1,4.7,2.3,6.7
			c0.6,0.9,1.2,1.8,1.9,2.7l2.9-2.9L61.9,36.4z"/>
		<path fill="none" d="M64.5,22.2c1.2-0.9,2.9-1.5,3.8-1.7V12c-3.5,0.4-6.8,1.8-9.4,4c-0.2,0.2-0.4,0.3-0.6,0.5l5.8,5.9
			C64.3,22.3,64.4,22.3,64.5,22.2z"/>
		<path fill="none" d="M79.7,29.1h8.4c-0.1-4-1.6-7.7-4-10.6l-6,6C79,25.8,79.6,27.1,79.7,29.1z"/>
		<path fill="none" d="M81.9,16.2c-2.9-2.5-6.6-4.1-10.6-4.3v8.5c2,0.2,3.4,0.9,4.6,1.9L81.9,16.2z"/>
		<path fill="none" d="M64.9,37.5l-6,5.9c2.7,2.2,5.9,3.6,9.4,4v-3.5v-5c-0.3-0.1-0.7-0.2-1-0.3C66.5,38.4,65.7,38,64.9,37.5z"/>
		<path fill="none" d="M77.7,35.6l6,6c2.3-2.6,3.9-5.9,4.3-9.5h-8.6C79.1,33,78.5,34.5,77.7,35.6z"/>
		<circle fill="none" cx="70.3" cy="29.7" r="4.2"/>
		<path fill="none" d="M71.3,39v4.9v3.6c3.4-0.2,6.5-1.3,9.1-3.2c0.3-0.2,0.6-0.4,0.9-0.7l-6-6.1C74.2,38.4,72.8,38.8,71.3,39z"/>
		<g>
			<path fill="none" d="M64.5,22.2c1.2-0.9,2.9-1.5,3.8-1.7V12c-3.5,0.4-6.8,1.8-9.4,4c-0.2,0.2-0.4,0.3-0.6,0.5l5.8,5.9
				C64.3,22.3,64.4,22.3,64.5,22.2z"/>
			<path fill="none" d="M60.9,29.1c0.1-2,0.6-3.2,1.5-4.5l-3-3l-0.1-0.7L58.8,21l-2.4-2.4c-0.8,1-1.5,2.2-2.1,3.4
				c-1.1,2.2-1.7,4.6-1.8,7.1h8.2H60.9z"/>
			<path fill="none" d="M81.9,16.2c-2.9-2.5-6.6-4.1-10.6-4.3v8.5c2,0.2,3.4,0.9,4.6,1.9L81.9,16.2z"/>
			<path fill="none" d="M61.9,36.4l0.9-0.9c-0.8-1-1.3-2.3-1.6-3.3c0,0,0-0.1,0-0.1h-8.6c0.3,2.4,1.1,4.7,2.3,6.7
				c0.6,0.9,1.2,1.8,1.9,2.7l2.9-2.9L61.9,36.4z"/>
			<path fill="none" d="M79.7,29.1h8.4c-0.1-4-1.6-7.7-4-10.6l-6,6C79,25.8,79.6,27.1,79.7,29.1z"/>
			<path fill="none" d="M71.3,39v4.9v3.6c3.4-0.2,6.5-1.3,9.1-3.2c0.3-0.2,0.6-0.4,0.9-0.7l-6-6.1C74.2,38.4,72.8,38.8,71.3,39z"/>
			<path fill="none" d="M64.9,37.5l-6,5.9c2.7,2.2,5.9,3.6,9.4,4v-3.5v-5c-0.3-0.1-0.7-0.2-1-0.3C66.5,38.4,65.7,38,64.9,37.5z"/>
			<path fill="none" d="M77.7,35.6l6,6c2.3-2.6,3.9-5.9,4.3-9.5h-8.6C79.1,33,78.5,34.5,77.7,35.6z"/>
			<circle fill="none" cx="70.3" cy="29.7" r="4.2"/>
			<path fill="#FFFFFF" d="M70.3,7c-8.1,0-15.1,4.3-19.2,10.6c-1.1,1.7-2,3.5-2.5,5.5c-0.6,2.1-1,4.2-1,6.5c0,3.3,0.7,6.4,2,9.3
				c1.1,2.5,2.6,4.8,4.6,6.8c4.3,4.3,10,6.7,16,6.7h0.1c5,0,9.6-1.6,13.4-4.4c5.6-4.1,9.3-10.8,9.3-18.2C93.1,17.3,82.9,7,70.3,7z
				 M88.1,29.1h-8.4c-0.1-2-0.7-3.2-1.6-4.6l6-6C86.5,21.4,88,25.1,88.1,29.1z M71.3,11.9c4,0.2,7.7,1.8,10.6,4.3l-6,6.1
				c-1.3-1-2.6-1.7-4.6-1.9V11.9z M59,16c2.6-2.2,5.8-3.6,9.4-4v8.5c-0.9,0.2-2.7,0.9-3.8,1.7c-0.1,0.1-0.2,0.1-0.2,0.2l-5.8-5.9
				C58.6,16.3,58.8,16.2,59,16z M54.3,22c0.6-1.2,1.3-2.3,2.1-3.4l2.4,2.4l0.6,0.6l3,3c-0.8,1.3-1.4,2.5-1.5,4.5h-8.4
				C52.6,26.5,53.2,24.1,54.3,22z M55,38.8c-1.2-2.1-2-4.3-2.3-6.7h8.6c0,0,0,0.1,0,0.1c0.3,1,0.9,2.3,1.6,3.3l-3.1,3.1l-2.8,2.9
				C56.2,40.6,55.5,39.7,55,38.8z M68.3,47.5c-3.2,0.1-6-0.6-9.4-4l6-5.9c0.7,0.5,1.6,0.9,2.4,1.1c0.3,0.1,0.7,0.2,1,0.3V47.5z
				 M70.3,33.9c-2.3,0-4.2-1.9-4.2-4.2c0-2.3,1.9-4.2,4.2-4.2c2.3,0,4.2,1.9,4.2,4.2C74.5,32.1,72.6,34,70.3,33.9z M80.5,44.4
				c-2.6,1.8-5.8,3-9.1,3.2V39c1.5-0.2,2.9-0.7,4-1.4l6,6.1C81,43.9,80.8,44.2,80.5,44.4z M83.6,41.5l-6-6c0.8-1,1.4-2.6,1.8-3.5H88
				C87.5,35.7,86,38.9,83.6,41.5z"/>
		</g>
	</g>
</g>
</svg>
