<?xml version="1.0" encoding="utf-8"?>
<!-- Generator: Adobe Illustrator 17.1.0, SVG Export Plug-In . SVG Version: 6.00 Build 0)  -->
<!DOCTYPE svg PUBLIC "-//W3C//DTD SVG 1.1//EN" "http://www.w3.org/Graphics/SVG/1.1/DTD/svg11.dtd">
<svg version="1.1" id="Layer_1" xmlns="http://www.w3.org/2000/svg" xmlns:xlink="http://www.w3.org/1999/xlink" x="0px" y="0px"
	 viewBox="0 0 720 1200" enable-background="new 0 0 720 1200" xml:space="preserve">
<circle fill="#DDDCDC" cx="360" cy="600" r="360"/>
<rect x="157.9" y="355.4" fill="#FFFFFF" width="398.7" height="401.9"/>
<line fill="none" stroke="#ACE4DF" stroke-width="2" stroke-linecap="round" stroke-miterlimit="10" x1="556.6" y1="370.7" x2="161.3" y2="370.7"/>
<line fill="none" stroke="#ACE4DF" stroke-width="2" stroke-linecap="round" stroke-miterlimit="10" x1="556.6" y1="360.6" x2="161.3" y2="360.6"/>
<line fill="none" stroke="#ACE4DF" stroke-width="2" stroke-linecap="round" stroke-miterlimit="10" x1="556.6" y1="380.9" x2="161.3" y2="380.9"/>
<line fill="none" stroke="#ACE4DF" stroke-width="2" stroke-linecap="round" stroke-miterlimit="10" x1="556.6" y1="391" x2="161.3" y2="391"/>
<line fill="none" stroke="#ACE4DF" stroke-width="2" stroke-linecap="round" stroke-miterlimit="10" x1="556.6" y1="401.1" x2="161.3" y2="401.1"/>
<line fill="none" stroke="#ACE4DF" stroke-width="2" stroke-linecap="round" stroke-miterlimit="10" x1="556.6" y1="411.2" x2="161.3" y2="411.2"/>
<line fill="none" stroke="#ACE4DF" stroke-width="2" stroke-linecap="round" stroke-miterlimit="10" x1="556.6" y1="421.4" x2="161.3" y2="421.4"/>
<line fill="none" stroke="#ACE4DF" stroke-width="2" stroke-linecap="round" stroke-miterlimit="10" x1="556.6" y1="431.5" x2="161.3" y2="431.5"/>
<line fill="none" stroke="#ACE4DF" stroke-width="2" stroke-linecap="round" stroke-miterlimit="10" x1="556.6" y1="441.6" x2="161.3" y2="441.6"/>
<line fill="none" stroke="#ACE4DF" stroke-width="2" stroke-linecap="round" stroke-miterlimit="10" x1="556.6" y1="451.7" x2="161.3" y2="451.7"/>
<line fill="none" stroke="#ACE4DF" stroke-width="2" stroke-linecap="round" stroke-miterlimit="10" x1="556.6" y1="461.9" x2="161.3" y2="461.9"/>
<line fill="none" stroke="#ACE4DF" stroke-width="2" stroke-linecap="round" stroke-miterlimit="10" x1="556.6" y1="472" x2="161.3" y2="472"/>
<line fill="none" stroke="#ACE4DF" stroke-width="2" stroke-linecap="round" stroke-miterlimit="10" x1="556.6" y1="482.1" x2="161.3" y2="482.1"/>
<line fill="none" stroke="#ACE4DF" stroke-width="2" stroke-linecap="round" stroke-miterlimit="10" x1="556.6" y1="492.2" x2="161.3" y2="492.2"/>
<line fill="none" stroke="#ACE4DF" stroke-width="2" stroke-linecap="round" stroke-miterlimit="10" x1="556.6" y1="502.4" x2="161.3" y2="502.4"/>
<line fill="none" stroke="#ACE4DF" stroke-width="2" stroke-linecap="round" stroke-miterlimit="10" x1="556.6" y1="512.5" x2="161.3" y2="512.5"/>
<line fill="none" stroke="#ACE4DF" stroke-width="2" stroke-linecap="round" stroke-miterlimit="10" x1="556.6" y1="522.4" x2="161.3" y2="522.4"/>
<line fill="none" stroke="#ACE4DF" stroke-width="2" stroke-linecap="round" stroke-miterlimit="10" x1="556.6" y1="532.5" x2="161.3" y2="532.5"/>
<line fill="none" stroke="#ACE4DF" stroke-width="2" stroke-linecap="round" stroke-miterlimit="10" x1="556.6" y1="542.6" x2="161.3" y2="542.6"/>
<line fill="none" stroke="#ACE4DF" stroke-width="2" stroke-linecap="round" stroke-miterlimit="10" x1="556.6" y1="552.8" x2="161.3" y2="552.8"/>
<line fill="none" stroke="#ACE4DF" stroke-width="2" stroke-linecap="round" stroke-miterlimit="10" x1="556.6" y1="562.9" x2="161.3" y2="562.9"/>
<line fill="none" stroke="#ACE4DF" stroke-width="2" stroke-linecap="round" stroke-miterlimit="10" x1="556.6" y1="571.4" x2="161.3" y2="571.4"/>
<line fill="none" stroke="#ACE4DF" stroke-width="2" stroke-linecap="round" stroke-miterlimit="10" x1="556.6" y1="581.5" x2="161.3" y2="581.5"/>
<line fill="none" stroke="#ACE4DF" stroke-width="2" stroke-linecap="round" stroke-miterlimit="10" x1="556.6" y1="591.7" x2="161.3" y2="591.7"/>
<line fill="none" stroke="#ACE4DF" stroke-width="2" stroke-linecap="round" stroke-miterlimit="10" x1="556.6" y1="601.8" x2="161.3" y2="601.8"/>
<line fill="none" stroke="#ACE4DF" stroke-width="2" stroke-linecap="round" stroke-miterlimit="10" x1="556.6" y1="611.7" x2="161.3" y2="611.7"/>
<line fill="none" stroke="#ACE4DF" stroke-width="4" stroke-linecap="round" stroke-miterlimit="10" x1="488.2" y1="609.5" x2="488.2" y2="355.4"/>
<line fill="none" stroke="#ACE4DF" stroke-width="2" stroke-linecap="round" stroke-miterlimit="10" x1="513.5" y1="511.6" x2="513.5" y2="355.4"/>
<line fill="none" stroke="#ACE4DF" stroke-width="4" stroke-linecap="round" stroke-miterlimit="10" x1="233.6" y1="609.5" x2="233.6" y2="355.4"/>
<ellipse fill="#FFFFFF" stroke="#ACE4DF" stroke-width="2" stroke-miterlimit="10" cx="513.5" cy="511.6" rx="6.3" ry="6.1"/>
<rect x="146.7" y="792.4" fill="#30BCAE" stroke="#30BCAE" stroke-width="2" stroke-miterlimit="10" width="426.4" height="38"/>
<polygon fill="#30BCAE" points="571.5,819.8 150.3,802 150.3,800.7 571.5,800.7 "/>
<rect x="163.2" y="360.7" fill="none" stroke="#009ECA" stroke-width="12" stroke-linecap="round" stroke-miterlimit="10" width="393.7" height="403.3"/>
<line fill="none" stroke="#009ECA" stroke-width="6" stroke-linecap="round" stroke-miterlimit="10" x1="360.9" y1="361.7" x2="360.9" y2="764"/>
<line fill="none" stroke="#009ECA" stroke-width="6" stroke-linecap="round" stroke-miterlimit="10" x1="560.5" y1="579.5" x2="161.3" y2="579.5"/>
<rect x="120.2" y="751" fill="#59C9BE" width="479.5" height="45.2"/>
<polygon opacity="0.39" fill="#FFFFFF" enable-background="new    " points="169.2,634.2 169.2,367.1 542.9,367.1 "/>
</svg>
